<svg width="42" height="42" viewBox="0 0 42 42" fill="none" xmlns="http://www.w3.org/2000/svg">
<path d="M38.7188 22.5947V20.6719C38.7188 17.958 36.5108 15.75 33.7969 15.75H4.92188C4.01723 15.75 3.28125 15.014 3.28125 14.1094C3.28125 13.2047 4.01723 12.4688 4.92188 12.4688C5.82799 12.4688 6.5625 11.7342 6.5625 10.8281C6.5625 9.92201 5.82799 9.1875 4.92188 9.1875C2.20795 9.1875 0 11.3955 0 14.1094V37.0781C0 39.792 2.20795 42 4.92188 42H33.7969C36.5108 42 38.7188 39.792 38.7188 37.0781V35.1553C40.6283 34.4781 42 32.6544 42 30.5156V27.2344C42 25.0956 40.6283 23.2719 38.7188 22.5947ZM33.7969 38.7188H4.92188C4.01723 38.7188 3.28125 37.9828 3.28125 37.0781V18.7491C3.79477 18.9312 4.34675 19.0312 4.92188 19.0312H33.7969C34.7015 19.0312 35.4375 19.7672 35.4375 20.6719V22.3125H32.1562C28.5377 22.3125 25.5938 25.2564 25.5938 28.875C25.5938 32.4936 28.5377 35.4375 32.1562 35.4375H35.4375V37.0781C35.4375 37.9828 34.7015 38.7188 33.7969 38.7188ZM38.7188 30.5156C38.7188 31.4203 37.9828 32.1562 37.0781 32.1562H32.1562C30.347 32.1562 28.875 30.6843 28.875 28.875C28.875 27.0657 30.347 25.5938 32.1562 25.5938H37.0781C37.9828 25.5938 38.7188 26.3297 38.7188 27.2344V30.5156Z" fill="#0050CA"/>
<path d="M11.1562 12.4688C12.0624 12.4688 12.7969 11.7342 12.7969 10.8281V4.92188C12.7969 4.01723 13.5329 3.28125 14.4375 3.28125H16.0781V10.8281C16.0781 11.7342 16.8126 12.4688 17.7188 12.4688C18.6249 12.4688 19.3594 11.7342 19.3594 10.8281V3.28125H27.5625C28.4671 3.28125 29.2031 4.01723 29.2031 4.92188V10.8281C29.2031 11.7342 29.9376 12.4688 30.8438 12.4688C31.7499 12.4688 32.4844 11.7342 32.4844 10.8281V4.92188C32.4844 2.20795 30.2764 0 27.5625 0H14.4375C11.7236 0 9.51562 2.20795 9.51562 4.92188V10.8281C9.51562 11.7342 10.2501 12.4688 11.1562 12.4688Z" fill="#0050CA"/>
<path d="M22.6406 8.20312V10.8281C22.6406 11.7342 23.3751 12.4688 24.2812 12.4688C25.1874 12.4688 25.9219 11.7342 25.9219 10.8281V8.20312C25.9219 7.29701 25.1874 6.5625 24.2812 6.5625C23.3751 6.5625 22.6406 7.29701 22.6406 8.20312Z" fill="#0050CA"/>
</svg>
