<svg width="42" height="42" viewBox="0 0 42 42" fill="none" xmlns="http://www.w3.org/2000/svg">
<path d="M30.8438 32.1562H24.2812C23.3751 32.1562 22.6406 32.8908 22.6406 33.7969C22.6406 34.703 23.3751 35.4375 24.2812 35.4375H30.8438C31.7499 35.4375 32.4844 34.703 32.4844 33.7969C32.4844 32.8908 31.7499 32.1562 30.8438 32.1562Z" fill="#0050CA"/>
<path d="M8.20312 22.3125C9.10922 22.3125 9.84375 21.578 9.84375 20.6719C9.84375 19.7658 9.10922 19.0312 8.20312 19.0312C7.29703 19.0312 6.5625 19.7658 6.5625 20.6719C6.5625 21.578 7.29703 22.3125 8.20312 22.3125Z" fill="#0050CA"/>
<path d="M8.20312 28.875C9.10922 28.875 9.84375 28.1405 9.84375 27.2344C9.84375 26.3283 9.10922 25.5938 8.20312 25.5938C7.29703 25.5938 6.5625 26.3283 6.5625 27.2344C6.5625 28.1405 7.29703 28.875 8.20312 28.875Z" fill="#0050CA"/>
<path d="M8.20312 35.4375C9.10922 35.4375 9.84375 34.703 9.84375 33.7969C9.84375 32.8908 9.10922 32.1562 8.20312 32.1562C7.29703 32.1562 6.5625 32.8908 6.5625 33.7969C6.5625 34.703 7.29703 35.4375 8.20312 35.4375Z" fill="#0050CA"/>
<path d="M33.7969 12.4688H32.4844V4.92188C32.4844 2.20795 30.2764 0 27.5625 0C24.8486 0 22.6406 2.20795 22.6406 4.92188V22.594C22.6406 23.9087 23.1526 25.1448 24.0822 26.0743L26.4023 28.3945C26.7227 28.7148 27.1427 28.875 27.5625 28.875C27.9823 28.875 28.4023 28.7148 28.7227 28.3945L31.0428 26.0743C31.9724 25.1447 32.4844 23.9087 32.4844 22.594V15.75H33.7969C36.5108 15.75 38.7188 17.958 38.7188 20.6719V33.7969C38.7188 36.5108 36.5108 38.7188 33.7969 38.7188H8.20312C5.4892 38.7188 3.28125 36.5108 3.28125 33.7969V20.6719C3.28125 17.958 5.4892 15.75 8.20312 15.75H17.7188C18.6249 15.75 19.3594 15.0155 19.3594 14.1094C19.3594 13.2033 18.6249 12.4688 17.7188 12.4688H8.20312C3.67992 12.4688 0 16.1487 0 20.6719V33.7969C0 38.3201 3.67992 42 8.20312 42H33.7969C38.3202 42 42 38.3201 42 33.7969V20.6719C42 16.1487 38.3202 12.4688 33.7969 12.4688ZM29.2031 22.594C29.2031 23.0322 29.0325 23.4443 28.7227 23.7541H28.7226L27.5625 24.9142L26.4023 23.754C26.0925 23.4442 25.9219 23.0322 25.9219 22.5939V4.92188C25.9219 4.01723 26.6579 3.28125 27.5625 3.28125C28.4671 3.28125 29.2031 4.01723 29.2031 4.92188V22.594Z" fill="#0050CA"/>
</svg>
