<svg width="42" height="37" viewBox="0 0 42 37" fill="none" xmlns="http://www.w3.org/2000/svg">
<path d="M37.0781 0H11.4844C8.77045 0 6.5625 2.20795 6.5625 4.92188C6.5625 5.82799 7.29701 6.5625 8.20312 6.5625C9.10924 6.5625 9.84375 5.82799 9.84375 4.92188C9.84375 4.01723 10.5797 3.28125 11.4844 3.28125H37.0781C37.9828 3.28125 38.7188 4.01723 38.7188 4.92188V21.3281C38.7188 22.2328 37.9828 22.9688 37.0781 22.9688H35.4375V14.7656C35.4375 12.0517 33.2295 9.84375 30.5156 9.84375H4.92188C2.20795 9.84375 0 12.0517 0 14.7656V31.1719C0 33.8858 2.20795 36.0938 4.92188 36.0938H30.5156C33.2295 36.0938 35.4375 33.8858 35.4375 31.1719V26.25H37.0781C39.792 26.25 42 24.042 42 21.3281V4.92188C42 2.20795 39.792 0 37.0781 0ZM32.1562 31.1719C32.1562 32.0765 31.4203 32.8125 30.5156 32.8125H4.92188C4.01723 32.8125 3.28125 32.0765 3.28125 31.1719V14.7656C3.28125 13.861 4.01723 13.125 4.92188 13.125H30.5156C31.4203 13.125 32.1562 13.861 32.1562 14.7656V16.4062H8.20312C7.29701 16.4062 6.5625 17.1408 6.5625 18.0469C6.5625 18.953 7.29701 19.6875 8.20312 19.6875H32.1562V31.1719Z" fill="#0050CA"/>
<path d="M27.2344 29.5312H20.6719C19.7658 29.5312 19.0312 28.7967 19.0312 27.8906C19.0312 26.9845 19.7658 26.25 20.6719 26.25H27.2344C28.1405 26.25 28.875 26.9845 28.875 27.8906C28.875 28.7967 28.1405 29.5312 27.2344 29.5312Z" fill="#0050CA"/>
</svg>
