<svg width="41" height="41" viewBox="0 0 41 41" fill="none" xmlns="http://www.w3.org/2000/svg">
<path d="M31.3906 34.5938H9.60769C4.30996 34.5938 0 30.2837 0 24.9861V11.8516C0 6.55295 4.31077 2.24219 9.60938 2.24219H9.68945C11.8122 2.32091 11.8106 5.36732 9.68945 5.44531H9.60938C6.07697 5.44531 3.20312 8.31916 3.20312 11.8516V24.9861C3.20312 28.5176 6.07625 31.3906 9.60769 31.3906H31.3906C34.923 31.3906 37.7969 28.5168 37.7969 24.9844V11.8511C37.7969 10.1399 37.1305 8.53113 35.9204 7.32106C34.7103 6.11108 33.1015 5.44475 31.3903 5.44483H31.2305C29.1078 5.36612 29.1094 2.3197 31.2305 2.24171H31.3902C33.9571 2.24163 36.3702 3.24108 38.1853 5.05613C40.0005 6.87103 41 9.28418 41 11.8511V24.9844C41 30.283 36.6892 34.5938 31.3906 34.5938ZM29.7891 39.3984C29.7891 38.5139 29.072 37.7969 28.1875 37.7969H12.8125C10.6898 37.8756 10.6914 40.922 12.8125 41H28.1875C29.072 41 29.7891 40.283 29.7891 39.3984ZM28.3695 23.2227H12.4703C8.77848 23.2858 6.35404 19.0886 8.27928 15.9332L16.243 2.39314C17.125 0.893273 18.6938 -0.00143967 20.4379 1.73896e-06C22.1823 0.00136307 23.7492 0.898398 24.6289 2.39962L32.5645 15.9397C33.4505 17.4516 33.4594 19.2618 32.5883 20.782C31.7125 22.3102 30.1354 23.2227 28.3695 23.2227ZM20.4341 3.20313C20.147 3.20313 19.4358 3.2828 19.0041 4.01704L11.0403 17.5572C10.6087 18.2908 10.8895 18.9423 11.0302 19.1883C11.1731 19.4382 11.5996 20.0195 12.4703 20.0195H28.3696C29.2395 20.0195 29.6661 19.439 29.8092 19.1894C29.9499 18.9438 30.231 18.293 29.801 17.5593L21.8654 4.0192C21.4341 3.28329 20.7217 3.20337 20.4354 3.20313C20.435 3.20313 20.4346 3.20313 20.4341 3.20313ZM18.418 16.1847C18.418 17.2903 19.3143 18.1866 20.4199 18.1866C23.0726 18.0884 23.0719 14.2805 20.4199 14.1827C19.3143 14.1827 18.418 15.079 18.418 16.1847ZM22.0215 11.0508V8.64844C21.9428 6.52573 18.8964 6.52733 18.8184 8.64844V11.0508C18.8184 11.9353 19.5354 12.6523 20.4199 12.6523C21.3045 12.6523 22.0215 11.9353 22.0215 11.0508Z" fill="#0050CA"/>
</svg>
