<svg width="38" height="38" viewBox="0 0 38 38" fill="none" xmlns="http://www.w3.org/2000/svg">
<path d="M33.3035 26.3039C32.4896 26.3039 31.8299 25.6442 31.8299 24.8303V22.7672C31.8299 21.9534 32.4896 21.2936 33.3035 21.2936C34.1174 21.2936 34.7771 21.9534 34.7771 22.7672V24.8303C34.7771 25.6442 34.1174 26.3039 33.3035 26.3039ZM5.89443 24.8303V13.9993C5.89443 10.7491 8.53867 8.10484 11.7889 8.10484H14.515C15.3289 8.10484 15.9886 7.44511 15.9886 6.63123C15.9886 5.81736 15.3289 5.15762 14.515 5.15762H11.7889C6.91358 5.15762 2.94721 9.12399 2.94721 13.9993V24.8303C2.94721 25.6442 3.60695 26.3039 4.42082 26.3039C5.23469 26.3039 5.89443 25.6442 5.89443 24.8303ZM37.7243 33.3035C37.7243 30.8659 35.7412 28.8827 33.3035 28.8827H4.42082C1.98318 28.8827 0 30.8659 0 33.3035C0 35.7412 1.98318 37.7243 4.42082 37.7243H33.3035C35.7412 37.7243 37.7243 35.7412 37.7243 33.3035ZM33.3035 31.8299C34.1161 31.8299 34.7771 32.491 34.7771 33.3035C34.7771 34.1161 34.1161 34.7771 33.3035 34.7771H4.42082C3.60827 34.7771 2.94721 34.1161 2.94721 33.3035C2.94721 32.491 3.60827 31.8299 4.42082 31.8299H33.3035ZM20.7515 19.02L20.8847 18.8868C21.6018 18.1696 22.6921 17.9906 23.5975 18.4414C24.9439 19.1117 26.3983 19.4516 27.9195 19.4515H27.9289C30.5157 19.4515 32.9521 18.4555 34.7899 16.6468C36.6334 14.8324 37.6622 12.4083 37.6871 9.821C37.7123 7.19503 36.7137 4.72652 34.875 2.87022C33.0419 1.01929 30.5866 0 27.9617 0C25.3546 0 22.9029 1.02578 21.0581 2.88834C19.2152 4.74899 18.2133 7.20837 18.2363 9.81363L18.2359 17.9779C18.2359 18.5739 18.5949 19.1113 19.1455 19.3395C19.3279 19.415 19.5193 19.4517 19.7092 19.4517C20.0926 19.4516 20.4696 19.3019 20.7515 19.02ZM21.1832 15.4268L21.1835 9.80693C21.1835 9.80221 21.1835 9.79742 21.1834 9.79271C21.1659 7.97715 21.8651 6.26165 23.1521 4.9623C24.4391 3.66287 26.1472 2.94721 27.9617 2.94721C29.7941 2.94721 31.5056 3.65639 32.7811 4.94417C34.0618 6.23741 34.7575 7.95925 34.7399 9.79271C34.7044 13.4943 31.6494 16.5046 27.9274 16.5044C27.9253 16.5044 27.9228 16.5043 27.9209 16.5044C26.8583 16.5044 25.8456 16.2685 24.911 15.8031C24.1596 15.429 23.3522 15.2471 22.5511 15.2471C22.089 15.2472 21.629 15.3077 21.1832 15.4268Z" fill="#0050CA"/>
</svg>
