<svg width="41" height="39" viewBox="0 0 41 39" fill="none" xmlns="http://www.w3.org/2000/svg">
<path d="M12.2126 25.226C12.2126 22.7121 10.1055 20.667 7.51548 20.667C4.92549 20.667 2.81836 22.7121 2.81836 25.226C2.81836 27.7398 4.92549 29.7849 7.51548 29.7849C10.1055 29.7849 12.2126 27.7398 12.2126 25.226ZM7.51548 26.7456C6.65215 26.7456 5.94977 26.0639 5.94977 25.226C5.94977 24.388 6.65215 23.7063 7.51548 23.7063C8.37881 23.7063 9.08119 24.388 9.08119 25.226C9.08119 26.0639 8.37881 26.7456 7.51548 26.7456Z" fill="#0050CA"/>
<path d="M24.738 25.226C24.738 22.7121 22.6309 20.667 20.0409 20.667C17.4509 20.667 15.3438 22.7121 15.3438 25.226C15.3438 27.7398 17.4509 29.7849 20.0409 29.7849C22.6309 29.7849 24.738 27.7398 24.738 25.226ZM20.0409 26.7456C19.1775 26.7456 18.4752 26.0639 18.4752 25.226C18.4752 24.388 19.1775 23.7063 20.0409 23.7063C20.9042 23.7063 21.6066 24.388 21.6066 25.226C21.6066 26.0639 20.9042 26.7456 20.0409 26.7456Z" fill="#0050CA"/>
<path d="M37.2634 25.226C37.2634 22.7121 35.1563 20.667 32.5663 20.667C29.9763 20.667 27.8691 22.7121 27.8691 25.226C27.8691 27.7398 29.9763 29.7849 32.5663 29.7849C35.1563 29.7849 37.2634 27.7398 37.2634 25.226ZM32.5663 26.7456C31.7029 26.7456 31.0006 26.0639 31.0006 25.226C31.0006 24.388 31.7029 23.7063 32.5663 23.7063C33.4296 23.7063 34.132 24.388 34.132 25.226C34.132 26.0639 33.4296 26.7456 32.5663 26.7456Z" fill="#0050CA"/>
<path d="M35.385 29.7852H29.4353C28.2332 29.7852 27.1356 30.2262 26.3039 30.9497C25.4722 30.2262 24.3745 29.7852 23.1725 29.7852H16.9096C15.7076 29.7852 14.6099 30.2262 13.7782 30.9497C12.9465 30.2262 11.8489 29.7852 10.6468 29.7852H4.69712C2.10713 29.7852 0 31.8303 0 34.3441C0 36.8579 2.10713 38.9031 4.69712 38.9031H10.6468C11.8489 38.9031 12.9465 38.462 13.7782 37.7385C14.6099 38.462 15.7076 38.9031 16.9096 38.9031H23.1725C24.3745 38.9031 25.4722 38.462 26.3039 37.7385C27.1356 38.462 28.2332 38.9031 29.4353 38.9031H35.385C37.975 38.9031 40.0821 36.8579 40.0821 34.3441C40.0821 31.8303 37.975 29.7852 35.385 29.7852ZM10.6468 35.8638H4.69712C3.83379 35.8638 3.13142 35.1821 3.13142 34.3441C3.13142 33.5062 3.83379 32.8245 4.69712 32.8245H10.6468C11.5101 32.8245 12.2125 33.5062 12.2125 34.3441C12.2125 35.1821 11.5101 35.8638 10.6468 35.8638ZM23.1725 35.8638H16.9096C16.0463 35.8638 15.3439 35.1821 15.3439 34.3441C15.3439 33.5062 16.0463 32.8245 16.9096 32.8245H23.1725C24.0358 32.8245 24.7382 33.5062 24.7382 34.3441C24.7382 35.1821 24.0358 35.8638 23.1725 35.8638ZM35.385 35.8638H29.4353C28.572 35.8638 27.8696 35.1821 27.8696 34.3441C27.8696 33.5062 28.572 32.8245 29.4353 32.8245H35.385C36.2483 32.8245 36.9507 33.5062 36.9507 34.3441C36.9507 35.1821 36.2483 35.8638 35.385 35.8638Z" fill="#0050CA"/>
<path d="M16.597 3.03931H18.1627V10.6376C18.1627 13.1514 20.2698 15.1966 22.8598 15.1966H25.9912V17.932C25.9912 18.7713 26.6922 19.4516 27.5569 19.4516C28.4217 19.4516 29.1226 18.7713 29.1226 17.932V15.1966H32.254C34.844 15.1966 36.9512 13.1514 36.9512 10.6376V3.03931H38.5169C39.3816 3.03931 40.0826 2.35896 40.0826 1.51966C40.0826 0.680351 39.3816 0 38.5169 0H16.597C15.7322 0 15.0312 0.680351 15.0312 1.51966C15.0312 2.35896 15.7322 3.03931 16.597 3.03931ZM33.8197 10.6376C33.8197 11.4755 33.1174 12.1573 32.254 12.1573H22.8598C21.9965 12.1573 21.2941 11.4755 21.2941 10.6376V3.03931H33.8197V10.6376Z" fill="#0050CA"/>
<path d="M12.2126 4.55897C12.2126 2.04515 10.1055 0 7.51548 0C4.92549 0 2.81836 2.04515 2.81836 4.55897C2.81836 7.07279 4.92549 9.11794 7.51548 9.11794C10.1055 9.11794 12.2126 7.07279 12.2126 4.55897ZM7.51548 6.07863C6.65215 6.07863 5.94977 5.39691 5.94977 4.55897C5.94977 3.72103 6.65215 3.03931 7.51548 3.03931C8.37881 3.03931 9.08119 3.72103 9.08119 4.55897C9.08119 5.39691 8.37881 6.07863 7.51548 6.07863Z" fill="#0050CA"/>
<path d="M15.3439 13.6771C15.3439 11.1633 13.2368 9.11816 10.6468 9.11816H4.69712C2.10713 9.11816 0 11.1633 0 13.6771C0 16.191 2.10713 18.2361 4.69712 18.2361H10.6468C13.2368 18.2361 15.3439 16.191 15.3439 13.6771ZM10.6468 15.1968H4.69712C3.83379 15.1968 3.13142 14.5151 3.13142 13.6771C3.13142 12.8392 3.83379 12.1575 4.69712 12.1575H10.6468C11.5101 12.1575 12.2125 12.8392 12.2125 13.6771C12.2125 14.5151 11.5101 15.1968 10.6468 15.1968Z" fill="#0050CA"/>
</svg>
