<svg width="24" height="24" viewBox="0 0 24 24" fill="none" xmlns="http://www.w3.org/2000/svg">
<path d="M20 10.666V19C19.9998 19.5521 19.5522 20 19 20H14V15.666C13.9998 15.1139 13.5522 14.666 13 14.666H11C10.4478 14.666 10.0002 15.1139 10 15.666V20H5C4.44784 20 4.0002 19.5521 4 19V10.666L12 4L20 10.666Z" fill="#2BBEA9"/>
<mask id="mask0_3838_64536" style="mask-type:luminance" maskUnits="userSpaceOnUse" x="4" y="4" width="16" height="16">
<path d="M20 10.666V19C19.9998 19.5521 19.5522 20 19 20H14V15.666C13.9998 15.1139 13.5522 14.666 13 14.666H11C10.4478 14.666 10.0002 15.1139 10 15.666V20H5C4.44784 20 4.0002 19.5521 4 19V10.666L12 4L20 10.666Z" fill="white"/>
</mask>
<g mask="url(#mask0_3838_64536)">
<path d="M20 10.6659H21V10.1975L20.6401 9.89766L20 10.6659ZM14 19.9999H13V20.9999H14V19.9999ZM10 19.9999V20.9999H11V19.9999H10ZM4 10.6659L3.35985 9.89766L3 10.1975V10.6659H4ZM12 3.9999L12.6401 3.23165L12 2.69824L11.3599 3.23165L12 3.9999ZM20 10.6659H19V18.9999H20L21 19.0003V10.6659H20ZM20 18.9999H19V19.9999V20.9999C20.1048 20.9999 20.9996 20.104 21 19.0003L20 18.9999ZM19 19.9999V18.9999H14V19.9999V20.9999H19V19.9999ZM14 19.9999H15V15.6659H14H13V19.9999H14ZM14 15.6659H15C14.9997 14.562 14.1047 13.6659 13 13.6659V14.6659V15.6659H14ZM13 14.6659V13.6659H11V14.6659V15.6659H13V14.6659ZM11 14.6659V13.6659C9.89525 13.6659 9.0003 14.5617 9 15.6656L10 15.6659H11V14.6659ZM10 15.6659L9 15.6656V19.9999H10H11V15.6659H10ZM10 19.9999V18.9999H5V19.9999V20.9999H10V19.9999ZM5 19.9999V18.9999H4H3C3.0004 20.1036 3.89519 20.9999 5 20.9999V19.9999ZM4 18.9999H5V10.6659H4H3V18.9999H4ZM4 10.6659L4.64015 11.4342L12.6401 4.76815L12 3.9999L11.3599 3.23165L3.35985 9.89766L4 10.6659ZM12 3.9999L11.3599 4.76815L19.3599 11.4342L20 10.6659L20.6401 9.89766L12.6401 3.23165L12 3.9999Z" fill="#2BBEA9"/>
</g>
</svg>
