<?xml version="1.0" encoding="UTF-8"?>
<svg id="_레이어_1" data-name="레이어_1" xmlns="http://www.w3.org/2000/svg" version="1.1" viewBox="0 0 25 24">
  <!-- Generator: Adobe Illustrator 29.1.0, SVG Export Plug-In . SVG Version: 2.1.0 Build 142)  -->
  <defs>
    <style>
      .st0 {
        fill: #fff;
      }

      .st1 {
        fill: #08a895;
      }
    </style>
  </defs>
  <ellipse class="st1" cx="12.2" cy="12" rx="12.2" ry="12"/>
  <path class="st0" d="M16.5,18c-.3,0-.5-.2-.5-.5,0-2-1.6-3.6-3.6-3.6h-.8c-2,0-3.6,1.6-3.6,3.6s-.2.5-.5.5-.5-.2-.5-.5c0-2.5,2.1-4.6,4.7-4.6h.8c2.6,0,4.7,2,4.7,4.6s-.2.5-.5.5Z"/>
  <path class="st0" d="M11.9,12c-1.9,0-3.5-1.5-3.5-3.4s1.5-3.4,3.5-3.4,3.5,1.5,3.5,3.4-1.5,3.4-3.5,3.4ZM11.9,6.2c-1.3,0-2.4,1.1-2.4,2.4s1.1,2.4,2.4,2.4,2.4-1.1,2.4-2.4-1.1-2.4-2.4-2.4Z"/>
</svg>