<svg width="21" height="21" viewBox="0 0 21 21" fill="none" xmlns="http://www.w3.org/2000/svg">
<path d="M17.5 1.75H3.5C2.5375 1.75 1.75875 2.5375 1.75875 3.5L1.75 19.25L5.25 15.75H17.5C18.4625 15.75 19.25 14.9625 19.25 14V3.5C19.25 2.5375 18.4625 1.75 17.5 1.75ZM17.5 14H4.52375L3.5 15.0238V3.5H17.5V14ZM5.25 10.5H7V12.25H5.25V10.5ZM5.25 7.875H7V9.625H5.25V7.875ZM5.25 5.25H7V7H5.25V5.25ZM8.75 10.5H13.125V12.25H8.75V10.5ZM8.75 7.875H15.75V9.625H8.75V7.875ZM8.75 5.25H15.75V7H8.75V5.25Z" fill="white"/>
</svg>
