<svg width="90" height="91" viewBox="0 0 90 91" fill="none" xmlns="http://www.w3.org/2000/svg">
<path d="M15.3133 45.9746H26.2832V37.277H15.3133L15.3133 45.9746Z" stroke="white" stroke-width="2" stroke-linecap="round" stroke-linejoin="round"/>
<path d="M23.5806 58.4766H16.6875" stroke="white" stroke-width="2" stroke-linecap="round" stroke-linejoin="round"/>
<path d="M38.6724 58.4766H31.7793" stroke="white" stroke-width="2" stroke-linecap="round" stroke-linejoin="round"/>
<path d="M53.7642 58.4766H46.8711" stroke="white" stroke-width="2" stroke-linecap="round" stroke-linejoin="round"/>
<path d="M68.8576 58.4766H61.9531" stroke="white" stroke-width="2" stroke-linecap="round" stroke-linejoin="round"/>
<path d="M73.5691 26.6113H11.9739C9.22691 26.6113 7 28.8178 7 31.5396V67.8153C7 70.5371 9.22691 72.7435 11.9739 72.7435H73.5691C76.3162 72.7435 78.5431 70.5371 78.5431 67.8153V31.5396C78.5431 28.8178 76.3162 26.6113 73.5691 26.6113Z" stroke="white" stroke-width="2" stroke-linecap="round" stroke-linejoin="round"/>
<path d="M84.7445 32.9682L67.2789 59.8149L57.524 62.6504L56.8086 52.6026L74.2855 25.7559" fill="#418200"/>
<path d="M84.7445 32.9682L67.2789 59.8149L57.524 62.6504L56.8086 52.6026L74.2855 25.7559" stroke="white" stroke-width="2" stroke-linecap="round" stroke-linejoin="round"/>
<path d="M73.9902 26.1731L77.1245 21.7062C79.1345 18.8482 83.1091 18.1394 85.9936 20.1309C88.878 22.1225 89.5934 26.0606 87.5834 28.9185L84.4492 33.3855" fill="#418200"/>
<path d="M73.9902 26.1731L77.1245 21.7062C79.1345 18.8482 83.1091 18.1394 85.9936 20.1309C88.878 22.1225 89.5934 26.0606 87.5834 28.9185L84.4492 33.3855" stroke="white" stroke-width="2" stroke-linecap="round" stroke-linejoin="round"/>
<path d="M57.5233 62.6504L55.9902 64.822" stroke="white" stroke-width="2" stroke-linecap="round" stroke-linejoin="round"/>
<path d="M57.0586 52.502L67.1428 59.4443" stroke="white" stroke-width="2" stroke-linecap="round" stroke-linejoin="round"/>
<path d="M75.6367 23.832L82.4844 28.5578" stroke="white" stroke-width="2" stroke-linecap="round" stroke-linejoin="round"/>
</svg>
