<svg width="45" height="41" viewBox="0 0 45 41" fill="none" xmlns="http://www.w3.org/2000/svg">
<path d="M20.6072 12.1794C20.6072 9.38084 18.2569 7.104 15.3681 7.104C12.4792 7.104 10.1289 9.38084 10.1289 12.1794C10.1289 14.978 12.4792 17.2549 15.3681 17.2549C18.2569 17.2549 20.6072 14.9781 20.6072 12.1794ZM15.3681 13.8712C14.4051 13.8712 13.6217 13.1123 13.6217 12.1794C13.6217 11.2466 14.4051 10.4876 15.3681 10.4876C16.331 10.4876 17.1144 11.2466 17.1144 12.1794C17.1144 13.1123 16.331 13.8712 15.3681 13.8712Z" fill="#7E7B77"/>
<path d="M15.3679 17.2549C12.2605 17.2549 9.3626 18.875 7.80526 21.4832C7.32238 22.292 7.60766 23.3269 8.44252 23.7948C9.27912 24.2635 10.3466 23.9847 10.8287 23.1775C11.7638 21.6115 13.5031 20.6386 15.3679 20.6386C17.2326 20.6386 18.972 21.6115 19.9073 23.1776C20.3902 23.9864 21.4588 24.2626 22.2933 23.7948C23.1283 23.327 23.4135 22.292 22.9305 21.4832C21.3731 18.8751 18.4753 17.2549 15.3679 17.2549Z" fill="#7E7B77"/>
<path d="M36.3257 13.8706H29.3401C28.3756 13.8706 27.5938 14.628 27.5938 15.5624C27.5938 16.4968 28.3756 17.2542 29.3401 17.2542H36.3257C37.2902 17.2542 38.0721 16.4968 38.0721 15.5624C38.0721 14.628 37.2902 13.8706 36.3257 13.8706Z" fill="#7E7B77"/>
<path d="M36.3257 20.6387H29.3401C28.3756 20.6387 27.5938 21.3961 27.5938 22.3305C27.5938 23.2649 28.3756 24.0223 29.3401 24.0223H36.3257C37.2902 24.0223 38.0721 23.2649 38.0721 22.3305C38.0721 21.3961 37.2902 20.6387 36.3257 20.6387Z" fill="#7E7B77"/>
<path d="M35.9754 0.336914H8.7319C3.91704 0.336914 0 4.13163 0 8.79594V22.3304C0 26.9947 3.91704 30.7894 8.7319 30.7894H35.9754C40.7903 30.7894 44.7073 26.9947 44.7073 22.3304V8.79594C44.7073 4.13163 40.7902 0.336914 35.9754 0.336914ZM41.2146 22.3304C41.2146 25.129 38.8643 27.4058 35.9754 27.4058H8.7319C5.84304 27.4058 3.49276 25.129 3.49276 22.3304V8.79594C3.49276 5.99736 5.84304 3.72053 8.7319 3.72053H35.9754C38.8643 3.72053 41.2146 5.99736 41.2146 8.79594V22.3304Z" fill="#7E7B77"/>
<path d="M36.3257 7.104H29.3401C28.3756 7.104 27.5938 7.86143 27.5938 8.79581C27.5938 9.7302 28.3756 10.4876 29.3401 10.4876H36.3257C37.2902 10.4876 38.0721 9.7302 38.0721 8.79581C38.0721 7.86143 37.2902 7.104 36.3257 7.104Z" fill="#7E7B77"/>
<path d="M24.778 40.0685H21.5035C18.7952 40.0685 16.5918 37.8651 16.5918 35.1568C16.5918 34.2525 17.3248 33.5195 18.229 33.5195C19.1333 33.5195 19.8663 34.2525 19.8663 35.1568C19.8663 36.0595 20.6007 36.794 21.5035 36.794H24.778C25.6807 36.794 26.4152 36.0595 26.4152 35.1568C26.4152 34.2525 27.1482 33.5195 28.0524 33.5195C28.9567 33.5195 29.6897 34.2525 29.6897 35.1568C29.6897 37.8651 27.4863 40.0685 24.778 40.0685Z" fill="#7E7B77"/>
</svg>
