<svg width="38" height="45" viewBox="0 0 38 45" fill="none" xmlns="http://www.w3.org/2000/svg">
<path d="M8.45939 22.0975C9.39375 22.0975 10.1512 21.34 10.1512 20.4057C10.1512 19.4713 9.39375 18.7139 8.45939 18.7139C7.52503 18.7139 6.76758 19.4713 6.76758 20.4057C6.76758 21.34 7.52503 22.0975 8.45939 22.0975Z" fill="#7E7B77"/>
<path d="M8.45939 28.8651C9.39375 28.8651 10.1512 28.1076 10.1512 27.1733C10.1512 26.2389 9.39375 25.4814 8.45939 25.4814C7.52503 25.4814 6.76758 26.2389 6.76758 27.1733C6.76758 28.1076 7.52503 28.8651 8.45939 28.8651Z" fill="#7E7B77"/>
<path d="M8.45939 35.6326C9.39375 35.6326 10.1512 34.8752 10.1512 33.9408C10.1512 33.0065 9.39375 32.249 8.45939 32.249C7.52503 32.249 6.76758 33.0065 6.76758 33.9408C6.76758 34.8752 7.52503 35.6326 8.45939 35.6326Z" fill="#7E7B77"/>
<path d="M32.1444 7.54849C31.21 7.54849 30.4526 8.30591 30.4526 9.2403C30.4526 10.1747 31.21 10.9321 32.1444 10.9321C33.0772 10.9321 33.8362 11.6911 33.8362 12.6239V39.0161C33.8362 39.949 33.0772 40.7079 32.1444 40.7079H5.07543C4.14256 40.7079 3.38362 39.949 3.38362 39.0161V12.6239C3.38362 11.6911 4.14256 10.9321 5.07543 10.9321H10.1509V12.6239C10.1509 13.5583 10.9083 14.3157 11.8427 14.3157H25.3771C26.3115 14.3157 27.0689 13.5583 27.0689 12.6239V9.2403C27.0689 6.44171 24.7921 4.16487 21.9935 4.16487H20.3017V2.47306C20.3017 1.53867 19.5443 0.78125 18.6099 0.78125C17.6755 0.78125 16.9181 1.53867 16.9181 2.47306V4.16487H15.2263C13.0208 4.16487 11.1403 5.57939 10.4418 7.54849H5.07543C2.27684 7.54849 0 9.82532 0 12.6239V39.0161C0 41.8147 2.27684 44.0916 5.07543 44.0916H32.1444C34.943 44.0916 37.2198 41.8147 37.2198 39.0161V12.6239C37.2198 9.82532 34.943 7.54849 32.1444 7.54849ZM15.2263 7.54849H21.9935C22.9264 7.54849 23.6853 8.30743 23.6853 9.2403V10.9321H13.5345V9.2403C13.5345 8.30743 14.2934 7.54849 15.2263 7.54849Z" fill="#7E7B77"/>
<path d="M13.5352 20.4057C13.5352 21.3401 14.2926 22.0975 15.227 22.0975H28.7614C29.6958 22.0975 30.4532 21.3401 30.4532 20.4057C30.4532 19.4713 29.6958 18.7139 28.7614 18.7139H15.227C14.2926 18.7139 13.5352 19.4713 13.5352 20.4057Z" fill="#7E7B77"/>
<path d="M28.7614 32.249H15.227C14.2926 32.249 13.5352 33.0064 13.5352 33.9408C13.5352 34.8752 14.2926 35.6326 15.227 35.6326H28.7614C29.6958 35.6326 30.4532 34.8752 30.4532 33.9408C30.4532 33.0064 29.6958 32.249 28.7614 32.249Z" fill="#7E7B77"/>
<path d="M28.7614 25.4819H15.227C14.2926 25.4819 13.5352 26.2394 13.5352 27.1737C13.5352 28.1081 14.2926 28.8656 15.227 28.8656H28.7614C29.6958 28.8656 30.4532 28.1081 30.4532 27.1737C30.4532 26.2394 29.6958 25.4819 28.7614 25.4819Z" fill="#7E7B77"/>
</svg>
