<svg width="90" height="91" viewBox="0 0 90 91" fill="none" xmlns="http://www.w3.org/2000/svg">
<g clip-path="url(#clip0_2070_68214)">
<path d="M71.2034 55.881C79.2224 38.8475 71.9147 18.5385 54.8812 10.5195C37.8477 2.50052 17.5386 9.80822 9.51966 26.8417C1.50067 43.8752 8.80838 64.1843 25.8419 72.2033C42.8754 80.2222 63.1844 72.9145 71.2034 55.881Z" stroke="#231F20" stroke-width="2" stroke-linecap="round" stroke-linejoin="round"/>
<path d="M68.9994 60.9375L81.8434 73.7814C84.3457 76.2838 84.3457 80.3438 81.8434 82.859C79.341 85.3614 75.281 85.3614 72.7658 82.859L59.9219 70.0151" stroke="#231F20" stroke-width="2" stroke-linecap="round" stroke-linejoin="round"/>
<path d="M64.9121 74.981L70.1978 69.6953" stroke="#231F20" stroke-width="2" stroke-linecap="round" stroke-linejoin="round"/>
<path d="M24.5825 40.6855H30.9023V35.6297H24.5825V40.6855Z" stroke="#418200" stroke-width="2" stroke-linecap="round" stroke-linejoin="round"/>
<path d="M29.3564 47.9512H25.373" stroke="#231F20" stroke-width="2" stroke-linecap="round" stroke-linejoin="round"/>
<path d="M38.039 47.9512H34.0684" stroke="#231F20" stroke-width="2" stroke-linecap="round" stroke-linejoin="round"/>
<path d="M46.7324 47.9512H42.7617" stroke="#231F20" stroke-width="2" stroke-linecap="round" stroke-linejoin="round"/>
<path d="M55.4268 47.9512H51.4434" stroke="#231F20" stroke-width="2" stroke-linecap="round" stroke-linejoin="round"/>
<path d="M57.0489 29.4375H23.7645C21.5786 29.4375 19.8066 31.2095 19.8066 33.3954V52.291C19.8066 54.4769 21.5786 56.2489 23.7645 56.2489H57.0489C59.2348 56.2489 61.0068 54.4769 61.0068 52.291V33.3954C61.0068 31.2095 59.2348 29.4375 57.0489 29.4375Z" stroke="#231F20" stroke-width="2" stroke-linecap="round" stroke-linejoin="round"/>
</g>
<defs>
<clipPath id="clip0_2070_68214">
<rect width="90" height="90" fill="white" transform="translate(0 0.5)"/>
</clipPath>
</defs>
</svg>
