<svg width="37" height="37" viewBox="0 0 37 37" fill="none" xmlns="http://www.w3.org/2000/svg">
<g clip-path="url(#clip0_1611_7179)">
<path d="M32.2628 5.13916H4.28267C1.92121 5.13916 0 7.06037 0 9.42183V20.8423C0 23.2037 1.92121 25.125 4.28267 25.125C5.07111 25.125 5.71023 24.4858 5.71023 23.6974C5.71023 22.909 5.07111 22.2698 4.28267 22.2698C3.49552 22.2698 2.85511 21.6294 2.85511 20.8423V9.42183C2.85511 8.63468 3.49552 7.99427 4.28267 7.99427H32.2628C33.0499 7.99427 33.6903 8.63468 33.6903 9.42183V20.8423C33.6903 21.6294 33.0499 22.2698 32.2628 22.2698C31.4743 22.2698 30.8352 22.909 30.8352 23.6974C30.8352 24.4858 31.4743 25.125 32.2628 25.125C34.6242 25.125 36.5455 23.2037 36.5455 20.8423V9.42183C36.5455 7.06037 34.6242 5.13916 32.2628 5.13916Z" fill="#7E7B77"/>
<path d="M29.6932 13.7047C30.4816 13.7047 31.1207 13.0656 31.1207 12.2772C31.1207 11.4887 30.4816 10.8496 29.6932 10.8496C28.9048 10.8496 28.2656 11.4887 28.2656 12.2772C28.2656 13.0656 28.9048 13.7047 29.6932 13.7047Z" fill="#7E7B77"/>
<path d="M23.9822 13.7047C24.7707 13.7047 25.4098 13.0656 25.4098 12.2772C25.4098 11.4887 24.7707 10.8496 23.9822 10.8496C23.1938 10.8496 22.5547 11.4887 22.5547 12.2772C22.5547 13.0656 23.1938 13.7047 23.9822 13.7047Z" fill="#7E7B77"/>
<path d="M8.2793 20.8422V32.2627C8.2793 34.6242 10.2005 36.5454 12.562 36.5454H23.9824C26.3439 36.5454 28.2651 34.6242 28.2651 32.2627V20.8422C28.2651 18.4808 26.3439 16.5596 23.9824 16.5596H12.562C10.2005 16.5596 8.2793 18.4808 8.2793 20.8422ZM25.41 20.8422V32.2627C25.41 33.0498 24.7696 33.6903 23.9824 33.6903H12.562C11.7748 33.6903 11.1344 33.0498 11.1344 32.2627V20.8422C11.1344 20.0551 11.7748 19.4147 12.562 19.4147H23.9824C24.7696 19.4147 25.41 20.0551 25.41 20.8422Z" fill="#7E7B77"/>
<path d="M15.4178 25.1251H21.128C21.9165 25.1251 22.5556 24.486 22.5556 23.6976C22.5556 22.9091 21.9165 22.27 21.128 22.27H15.4178C14.6294 22.27 13.9902 22.9091 13.9902 23.6976C13.9902 24.486 14.6294 25.1251 15.4178 25.1251Z" fill="#7E7B77"/>
<path d="M15.4178 30.8351H21.128C21.9165 30.8351 22.5556 30.196 22.5556 29.4075C22.5556 28.6191 21.9165 27.98 21.128 27.98H15.4178C14.6294 27.98 13.9902 28.6191 13.9902 29.4075C13.9902 30.196 14.6294 30.8351 15.4178 30.8351Z" fill="#7E7B77"/>
<path d="M26.8375 0H9.70685C8.91841 0 8.2793 0.639117 8.2793 1.42756C8.2793 2.216 8.91841 2.85511 9.70685 2.85511H26.8375C27.626 2.85511 28.2651 2.216 28.2651 1.42756C28.2651 0.639117 27.626 0 26.8375 0Z" fill="#7E7B77"/>
</g>
<defs>
<clipPath id="clip0_1611_7179">
<rect width="36.5455" height="36.5455" fill="white"/>
</clipPath>
</defs>
</svg>
