<svg width="16" height="20" viewBox="0 0 16 20" fill="none" xmlns="http://www.w3.org/2000/svg">
<path d="M6.80469 12.1172H9.82812L11.1172 13.7812C11.9258 12.832 12.3828 11.4023 12.3828 9.51562C12.3828 5.88281 10.6719 3.91406 8.04688 3.91406C5.42188 3.91406 3.6875 5.88281 3.6875 9.51562C3.6875 13.1484 5.42188 15.1172 8.04688 15.1172C8.38672 15.1172 8.71484 15.082 9.03125 15.0234L6.80469 12.1172ZM15.9688 9.51562C15.9688 12.5391 14.9375 14.8711 13.2734 16.3359L15.6875 19.4062H12.3828L11.0234 17.6953C10.1094 18.0586 9.10156 18.2344 8.04688 18.2344C3.52344 18.2344 0.101562 15.0234 0.101562 9.51562C0.101562 3.98438 3.52344 0.796875 8.04688 0.796875C12.5234 0.796875 15.9688 3.98438 15.9688 9.51562Z" fill="#418200"/>
</svg>
