<svg width="43" height="45" viewBox="0 0 43 45" fill="none" xmlns="http://www.w3.org/2000/svg">
<g clip-path="url(#clip0_1611_7188)">
<path d="M37.961 0.544922C35.1824 0.544922 32.9219 2.85802 32.9219 5.70117C32.9219 6.49618 33.0989 7.24968 33.4144 7.92283L27.367 14.1108C26.711 14.782 26.711 15.8703 27.367 16.5415C28.0229 17.2127 29.0866 17.2127 29.7425 16.5415L35.7899 10.3535C36.4477 10.6763 37.184 10.8573 37.961 10.8573C40.7396 10.8573 43.0001 8.54424 43.0001 5.70109C43.0001 2.85793 40.7395 0.544922 37.961 0.544922ZM37.961 7.41992C37.0348 7.41992 36.2813 6.64889 36.2813 5.70117C36.2813 4.75345 37.0348 3.98242 37.961 3.98242C38.8871 3.98242 39.6406 4.75345 39.6406 5.70117C39.6406 6.64889 38.8871 7.41992 37.961 7.41992Z" fill="#7E7B77"/>
<path d="M35.2734 16.4541C34.3457 16.4541 33.5938 17.2236 33.5938 18.1729V39.3887C33.5938 40.3364 32.8402 41.1074 31.9141 41.1074H13.4375V35.9512C13.4375 33.108 11.177 30.7949 8.39844 30.7949H3.35938V11.8887C3.35938 10.941 4.11288 10.1699 5.03906 10.1699H25.7727C26.7004 10.1699 27.4524 9.40044 27.4524 8.45117C27.4524 7.50191 26.7004 6.73242 25.7727 6.73242H5.03906C2.26052 6.73242 0 9.04552 0 11.8887V32.5137C0 33.891 0.524146 35.1858 1.47594 36.1597L8.19469 43.0347C9.14632 44.0086 10.4118 44.5449 11.7578 44.5449H31.9141C34.6926 44.5449 36.9531 42.2318 36.9531 39.3887V18.1729C36.9531 17.2236 36.2011 16.4541 35.2734 16.4541ZM4.34334 34.2324H8.39844C9.32462 34.2324 10.0781 35.0035 10.0781 35.9512V40.1006L4.34334 34.2324Z" fill="#7E7B77"/>
<path d="M20.1562 15.3262C20.1562 14.3769 19.4043 13.6074 18.4766 13.6074H8.39844C7.47075 13.6074 6.71875 14.3769 6.71875 15.3262V22.2012C6.71875 23.1504 7.47075 23.9199 8.39844 23.9199H18.4766C19.4043 23.9199 20.1562 23.1504 20.1562 22.2012V15.3262ZM16.7969 20.4824H10.0781V17.0449H16.7969V20.4824Z" fill="#7E7B77"/>
<path d="M20.1562 29.0762C20.1562 30.0254 20.9082 30.7949 21.8359 30.7949H28.5547C29.4824 30.7949 30.2344 30.0254 30.2344 29.0762C30.2344 28.1269 29.4824 27.3574 28.5547 27.3574H21.8359C20.9082 27.3574 20.1562 28.1269 20.1562 29.0762Z" fill="#7E7B77"/>
<path d="M28.5547 34.2324H21.8359C20.9082 34.2324 20.1562 35.0019 20.1562 35.9512C20.1562 36.9004 20.9082 37.6699 21.8359 37.6699H28.5547C29.4824 37.6699 30.2344 36.9004 30.2344 35.9512C30.2344 35.0019 29.4824 34.2324 28.5547 34.2324Z" fill="#7E7B77"/>
</g>
<defs>
<clipPath id="clip0_1611_7188">
<rect width="43" height="44" fill="white" transform="translate(0 0.544922)"/>
</clipPath>
</defs>
</svg>
