<svg width="19" height="18" viewBox="0 0 19 18" fill="none" xmlns="http://www.w3.org/2000/svg">
<rect x="0.939453" width="17.8591" height="18" rx="6" fill="#29364A"/>
<path d="M14.6574 7.21875C14.4141 7.21875 14.2168 7.42861 14.2168 7.6875C14.2168 7.94639 14.4141 8.15625 14.6574 8.15625C14.9003 8.15625 15.098 8.36653 15.098 8.625C15.098 8.88347 14.9003 9.09375 14.6574 9.09375C14.4141 9.09375 14.2168 9.30361 14.2168 9.5625C14.2168 9.82139 14.4141 10.0313 14.6574 10.0313C15.3862 10.0313 15.9792 9.40041 15.9792 8.625C15.9792 7.84959 15.3862 7.21875 14.6574 7.21875Z" fill="white"/>
<path d="M12.167 3.00019C11.7859 3.00699 11.426 3.1887 11.1797 3.49876L9.47338 5.64632C9.38949 5.7519 9.26683 5.81246 9.13689 5.81246H6.46163C5.48984 5.81246 4.69922 6.65359 4.69922 7.68747V9.56247C4.69922 10.5963 5.48984 11.4375 6.46163 11.4375H9.13689C9.26683 11.4375 9.38951 11.498 9.47338 11.6036L11.1797 13.7512C11.4261 14.0612 11.7859 14.243 12.167 14.2498C12.1745 14.2499 12.1818 14.25 12.1893 14.25C12.925 14.25 13.5113 13.5971 13.5113 12.826V4.42393C13.5113 3.6478 12.9158 2.987 12.167 3.00019ZM12.6301 12.8261C12.6301 13.0842 12.4326 13.3166 12.1818 13.3124C12.0549 13.3102 11.9349 13.2495 11.8527 13.146L10.1464 10.9984C9.89469 10.6817 9.52674 10.5 9.13689 10.5H6.46163C5.97574 10.5 5.58043 10.0794 5.58043 9.56249V7.68749C5.58043 7.17055 5.97574 6.74999 6.46163 6.74999H9.13689C9.52674 6.74999 9.89469 6.56832 10.1464 6.25154L11.8527 4.10396C11.9349 4.00046 12.0549 3.93983 12.1818 3.93756C12.429 3.93313 12.6301 4.16223 12.6301 4.42393V12.8261Z" fill="white"/>
<path d="M7.7831 12.375C7.53975 12.375 7.34249 12.5849 7.34249 12.8438V13.5938C7.34249 13.8522 7.14484 14.0625 6.90189 14.0625C6.65894 14.0625 6.46129 13.8522 6.46129 13.5938V12.8438C6.46129 12.5849 6.26403 12.375 6.02068 12.375C5.77734 12.375 5.58008 12.5849 5.58008 12.8438V13.5938C5.58008 14.3692 6.17304 15 6.90189 15C7.63074 15 8.2237 14.3692 8.2237 13.5938V12.8438C8.2237 12.5849 8.02644 12.375 7.7831 12.375Z" fill="white"/>
<path d="M8.66326 7.6875C8.41991 7.6875 8.22266 7.89736 8.22266 8.15625V9.09375C8.22266 9.35264 8.41991 9.5625 8.66326 9.5625C8.90661 9.5625 9.10386 9.35264 9.10386 9.09375V8.15625C9.10386 7.89736 8.90661 7.6875 8.66326 7.6875Z" fill="white"/>
</svg>
