<svg width="25" height="24" viewBox="0 0 25 24" fill="none" xmlns="http://www.w3.org/2000/svg">
<ellipse cx="12.1606" cy="12" rx="12.1606" ry="12" fill="#418200"/>
<path d="M16.4893 18.0002C16.2068 18.0002 15.9777 17.7764 15.9777 17.5002C15.9777 15.5427 14.3482 13.9502 12.3451 13.9502H11.5777C9.5747 13.9502 7.94513 15.5427 7.94513 17.5002C7.94513 17.7764 7.71608 18.0002 7.4335 18.0002C7.15093 18.0002 6.92188 17.7764 6.92188 17.5002C6.92188 14.9913 9.01047 12.9502 11.5777 12.9502H12.3451C14.9124 12.9502 17.001 14.9913 17.001 17.5002C17.001 17.7764 16.7719 18.0002 16.4893 18.0002Z" fill="white"/>
<path d="M11.9105 11.9502C10.0063 11.9502 8.45703 10.4362 8.45703 8.57521C8.45703 6.71423 10.0063 5.2002 11.9105 5.2002C13.8148 5.2002 15.364 6.71423 15.364 8.57521C15.364 10.4362 13.8148 11.9502 11.9105 11.9502ZM11.9105 6.2002C10.5705 6.2002 9.48029 7.26563 9.48029 8.57521C9.48029 9.88479 10.5705 10.9502 11.9105 10.9502C13.2506 10.9502 14.3408 9.88479 14.3408 8.57521C14.3408 7.26563 13.2506 6.2002 11.9105 6.2002Z" fill="white"/>
</svg>
