<svg width="16" height="19" viewBox="0 0 16 19" fill="none" xmlns="http://www.w3.org/2000/svg">
<path d="M6.23111 17.2414C6.23111 18.2135 7.02222 19 8 19C8.97778 19 9.76889 18.2135 9.76889 17.2414H6.23111ZM8 3.97674C10.4533 3.97674 12.4444 5.95628 12.4444 8.39535V14.5814H3.55556V8.39535C3.55556 5.95628 5.54667 3.97674 8 3.97674ZM8 0C7.26222 0 6.66667 0.592093 6.66667 1.32558V2.35953C3.87556 2.96047 1.77778 5.43488 1.77778 8.39535V13.6977L0 15.4651V16.3488H16V15.4651L14.2222 13.6977V8.39535C14.2222 5.43488 12.1244 2.96047 9.33333 2.35953V1.32558C9.33333 0.592093 8.73778 0 8 0Z" fill="white"/>
</svg>
