<svg width="24" height="24" viewBox="0 0 24 24" fill="none" xmlns="http://www.w3.org/2000/svg">
<mask id="path-1-inside-1_958_30109" fill="white">
<path d="M20 10.666V19C19.9998 19.5521 19.5522 20 19 20H14V15.666C13.9998 15.1139 13.5522 14.666 13 14.666H11C10.4478 14.666 10.0002 15.1139 10 15.666V20H5C4.44784 20 4.0002 19.5521 4 19V10.666L12 4L20 10.666Z"/>
</mask>
<path d="M20 10.666V19C19.9998 19.5521 19.5522 20 19 20H14V15.666C13.9998 15.1139 13.5522 14.666 13 14.666H11C10.4478 14.666 10.0002 15.1139 10 15.666V20H5C4.44784 20 4.0002 19.5521 4 19V10.666L12 4L20 10.666Z" fill="#418200"/>
<path d="M20 10.666H21V10.1976L20.6401 9.89776L20 10.666ZM20 19L21 19.0004V19H20ZM14 20H13V21H14V20ZM14 15.666L15 15.666L15 15.6657L14 15.666ZM10 15.666L9 15.6657V15.666H10ZM10 20V21H11V20H10ZM4 19L3 19L3 19.0004L4 19ZM4 10.666L3.35985 9.89776L3 10.1976V10.666H4ZM12 4L12.6401 3.23175L12 2.69834L11.3599 3.23175L12 4ZM20 10.666H19V19H20H21V10.666H20ZM20 19L19 18.9996L19 19V20V21C20.1048 21 20.9996 20.1041 21 19.0004L20 19ZM19 20V19H14V20V21H19V20ZM14 20H15V15.666H14H13V20H14ZM14 15.666L15 15.6657C14.9997 14.5618 14.1047 13.666 13 13.666V14.666V15.666L13 15.6663L14 15.666ZM13 14.666V13.666H11V14.666V15.666H13V14.666ZM11 14.666V13.666C9.89525 13.666 9.0003 14.5618 9 15.6657L10 15.666L11 15.6663L11 15.666V14.666ZM10 15.666H9V20H10H11V15.666H10ZM10 20V19H5V20V21H10V20ZM5 20V19L5 18.9996L4 19L3 19.0004C3.0004 20.1041 3.89519 21 5 21V20ZM4 19H5V10.666H4H3V19H4ZM4 10.666L4.64015 11.4343L12.6401 4.76825L12 4L11.3599 3.23175L3.35985 9.89776L4 10.666ZM12 4L11.3599 4.76825L19.3599 11.4343L20 10.666L20.6401 9.89776L12.6401 3.23175L12 4Z" fill="#418200" mask="url(#path-1-inside-1_958_30109)"/>
</svg>
