<svg width="25" height="22" viewBox="0 0 25 22" fill="none" xmlns="http://www.w3.org/2000/svg">
<path d="M7.75781 13.9531H11.0156L12.1172 15.3125C12.7617 14.457 13.125 13.168 13.125 11.5156C13.125 8.14062 11.625 6.3125 9.14062 6.3125C6.65625 6.3125 5.15625 8.14062 5.15625 11.5156C5.15625 14.8906 6.65625 16.7188 9.14062 16.7188C9.375 16.7188 9.60938 16.707 9.84375 16.6719L7.75781 13.9531ZM17.2031 11.5156C17.2031 14.5039 16.207 16.7773 14.5781 18.2656L17.0625 21.3359H13.4297L12.1172 19.7422C11.2031 20.0703 10.1953 20.2344 9.14062 20.2344C4.57031 20.2344 1.07812 17.0938 1.07812 11.5156C1.07812 5.91406 4.57031 2.79688 9.14062 2.79688C13.6875 2.79688 17.2031 5.91406 17.2031 11.5156ZM20.7188 20.2344C19.5469 20.2344 18.5859 19.2969 18.6094 18.1016C18.5859 16.9531 19.5469 16.0156 20.7188 16.0156C21.8438 16.0156 22.8281 16.9531 22.8516 18.1016C22.8281 19.2969 21.8438 20.2344 20.7188 20.2344Z" fill="#05417C"/>
</svg>
