<svg width="37" height="37" viewBox="0 0 37 37" fill="none" xmlns="http://www.w3.org/2000/svg">
<path d="M16.4043 7.52734H4.33594C3.73729 7.52734 3.25195 8.01268 3.25195 8.61133V15.1152C3.25195 15.7139 3.73729 16.1992 4.33594 16.1992H16.4043C17.0029 16.1992 17.4883 15.7139 17.4883 15.1152V8.61133C17.4883 8.01268 17.0029 7.52734 16.4043 7.52734Z" fill="#FF9B8B"/>
<path d="M10.1172 11.8631C9.51854 11.8631 9.0332 11.3778 9.0332 10.7792V6.44336C9.0332 5.84471 9.51854 5.35938 10.1172 5.35938C10.7158 5.35938 11.2012 5.84471 11.2012 6.44336V10.7792C11.2012 11.3779 10.7158 11.8631 10.1172 11.8631Z" fill="#E6FFFF"/>
<path d="M27.4611 16.1992H23.6316C23.2904 16.1992 22.9691 16.3599 22.7644 16.6327L21.4634 18.3673L20.1624 16.6327C19.9577 16.3598 19.6364 16.1992 19.2952 16.1992H17.4883V15.1152H3.25195V35.9157L24.2091 36.9997C26.6 36.9997 28.5451 35.0546 28.5451 32.6638V17.2832C28.5451 16.6846 28.0597 16.1992 27.4611 16.1992Z" fill="#E6FFFF"/>
<path d="M27.461 16.1992H23.6315C23.2903 16.1992 22.9691 16.3599 22.7643 16.6327L21.4633 18.3673L20.1623 16.6327C19.9576 16.3598 19.6363 16.1992 19.2951 16.1992H17.4882V15.1152H16.6212L15.8984 17.2832V36.5699L24.2091 36.9997C26.6 36.9997 28.545 35.0546 28.545 32.6638V17.2832C28.545 16.6846 28.0597 16.1992 27.461 16.1992Z" fill="#CBF0FF"/>
<path d="M20.0538 32.6641V30.4961C20.0538 29.8974 19.5684 29.4121 18.9698 29.4121H1.08398C0.485336 29.4121 0 29.8974 0 30.4961V32.6641C0 35.055 1.9451 37.0001 4.33594 37.0001H24.2091C24.2295 37.0001 24.2495 36.9981 24.2695 36.997C21.9342 36.933 20.0538 35.0147 20.0538 32.6641Z" fill="#CBF0FF"/>
<path d="M20.0537 32.6641V30.4961C20.0537 29.8974 19.5683 29.4121 18.9697 29.4121H15.8984V37.0001H24.2091C24.2294 37.0001 24.2494 36.9981 24.2695 36.997C21.9341 36.933 20.0537 35.0147 20.0537 32.6641Z" fill="#B1E1FF"/>
<path d="M16.6212 22.7036H15.1758C14.5771 22.7036 14.0918 22.2183 14.0918 21.6196C14.0918 21.021 14.5771 20.5356 15.1758 20.5356H16.6212C17.2199 20.5356 17.7052 21.021 17.7052 21.6196C17.7052 22.2183 17.2199 22.7036 16.6212 22.7036Z" fill="#78B4FF"/>
<path d="M16.6212 20.5356H15.8984V22.7036H16.6212C17.2198 22.7036 17.7051 22.2183 17.7051 21.6196C17.7051 21.021 17.2198 20.5356 16.6212 20.5356Z" fill="#6299F7"/>
<path d="M16.6212 27.04H15.1758C14.5771 27.04 14.0918 26.5547 14.0918 25.9561C14.0918 25.3574 14.5771 24.8721 15.1758 24.8721H16.6212C17.2199 24.8721 17.7052 25.3574 17.7052 25.9561C17.7052 26.5547 17.2199 27.04 16.6212 27.04Z" fill="#78B4FF"/>
<path d="M16.6212 24.8721H15.8984V27.04H16.6212C17.2198 27.04 17.7051 26.5547 17.7051 25.9561C17.7051 25.3573 17.2198 24.8721 16.6212 24.8721Z" fill="#6299F7"/>
<path d="M10.84 27.04H9.39453C8.79588 27.04 8.31055 26.5547 8.31055 25.9561C8.31055 25.3574 8.79588 24.8721 9.39453 24.8721H10.84C11.4386 24.8721 11.924 25.3574 11.924 25.9561C11.924 26.5547 11.4386 27.04 10.84 27.04Z" fill="#78B4FF"/>
<path d="M22.4025 27.04H20.957C20.3584 27.04 19.873 26.5547 19.873 25.9561C19.873 25.3574 20.3584 24.8721 20.957 24.8721H22.4025C23.0011 24.8721 23.4865 25.3574 23.4865 25.9561C23.4865 26.5547 23.0011 27.04 22.4025 27.04Z" fill="#6299F7"/>
<path d="M10.84 22.7036H9.39453C8.79588 22.7036 8.31055 22.2183 8.31055 21.6196C8.31055 21.021 8.79588 20.5356 9.39453 20.5356H10.84C11.4386 20.5356 11.924 21.021 11.924 21.6196C11.924 22.2183 11.4386 22.7036 10.84 22.7036Z" fill="#78B4FF"/>
<path d="M35.9159 0H16.9824C16.3838 0 15.8984 0.485336 15.8984 1.08398V17.2834C15.8984 17.8821 16.3838 18.3674 16.9824 18.3674H18.7531L20.5961 20.8245C20.8009 21.0974 21.1222 21.2581 21.4633 21.2581C21.8045 21.2581 22.1258 21.0974 22.3305 20.8245L24.1735 18.3674H35.9159C36.5146 18.3674 36.9999 17.8821 36.9999 17.2834V1.08398C36.9999 0.485336 36.5146 0 35.9159 0Z" fill="#FFC072"/>
<path d="M31.8691 4.33594H29.3399C28.0823 4.33594 26.9899 5.0539 26.4492 6.1011C25.9085 5.0539 24.8161 4.33594 23.5585 4.33594H21.0293C20.4306 4.33594 19.9453 4.82127 19.9453 5.41992V11.8634C19.9453 12.4621 20.4306 12.9474 21.0293 12.9474H31.8691C32.4677 12.9474 32.9531 12.4621 32.9531 11.8634V5.41992C32.9531 4.82127 32.4677 4.33594 31.8691 4.33594Z" fill="#CBF0FF"/>
<path d="M31.8691 4.33594H29.3399C28.0823 4.33594 26.9899 5.0539 26.4492 6.1011V12.9474H31.8691C32.4677 12.9474 32.9531 12.4621 32.9531 11.8634V5.41992C32.9531 4.82127 32.4677 4.33594 31.8691 4.33594Z" fill="#B1E1FF"/>
<path d="M32.9717 12.9473C32.9717 13.5435 32.4839 14.0312 31.8877 14.0312H21.0117C20.4155 14.0312 19.9277 13.5435 19.9277 12.9473C19.9277 12.3511 19.9277 11.8633 19.9277 11.8633H32.9717V12.9473Z" fill="#5E638B"/>
<path d="M26.4316 11.8633V14.0312H31.8877C32.4839 14.0312 32.9717 13.5435 32.9717 12.9473C32.9717 12.3511 32.9717 11.8633 32.9717 11.8633H26.4316Z" fill="#4F5480"/>
</svg>
