<svg width="36" height="37" viewBox="0 0 36 37" fill="none" xmlns="http://www.w3.org/2000/svg">
<path d="M34.946 13.7788H33.8164C33.2339 13.7788 32.7617 13.2935 32.7617 12.6948C32.7617 12.0962 33.2339 11.6108 33.8164 11.6108H34.946C35.5285 11.6108 36.0007 12.0962 36.0007 12.6948C36.0007 13.2935 35.5285 13.7788 34.946 13.7788Z" fill="#237ACD"/>
<path d="M2.18433 13.7788H1.05469C0.472219 13.7788 0 13.2935 0 12.6948C0 12.0962 0.472219 11.6108 1.05469 11.6108H2.18433C2.7668 11.6108 3.23902 12.0962 3.23902 12.6948C3.23902 13.2935 2.76687 13.7788 2.18433 13.7788Z" fill="#22A6F1"/>
<path d="M33.8149 37.0001H2.18359C1.60112 37.0001 1.12891 36.5147 1.12891 35.9161V10.3726C1.12891 9.77391 1.60112 9.28857 2.18359 9.28857H33.8149C34.3973 9.28857 34.8696 9.77391 34.8696 10.3726V35.9161C34.8696 36.5147 34.3974 37.0001 33.8149 37.0001Z" fill="#3ECEF5"/>
<path d="M34.8704 35.9161V10.3726C34.8704 9.77391 34.3981 9.28857 33.8157 9.28857H18V37.0001H33.8157C34.3981 37.0001 34.8704 36.5147 34.8704 35.9161Z" fill="#22A6F1"/>
<path d="M29.2969 16.1008H6.70312C6.12066 16.1008 5.64844 15.6154 5.64844 15.0168V1.08398C5.64844 0.485336 6.12066 0 6.70312 0H29.2969C29.8794 0 30.3516 0.485336 30.3516 1.08398V15.0168C30.3516 15.6154 29.8794 16.1008 29.2969 16.1008Z" fill="#F3F8F7"/>
<path d="M7.83284 30.0337H6.70312C6.12066 30.0337 5.64844 29.5484 5.64844 28.9497C5.64844 28.3511 6.12066 27.8657 6.70312 27.8657H7.83284C8.4153 27.8657 8.88752 28.3511 8.88752 28.9497C8.88752 29.5484 8.41537 30.0337 7.83284 30.0337Z" fill="#F3F8F7"/>
<path d="M29.2977 30.0337H28.168C27.5855 30.0337 27.1133 29.5484 27.1133 28.9497C27.1133 28.3511 27.5855 27.8657 28.168 27.8657H29.2977C29.8801 27.8657 30.3524 28.3511 30.3524 28.9497C30.3524 29.5484 29.8801 30.0337 29.2977 30.0337Z" fill="#D3E8EB"/>
<path d="M29.2977 25.3892H28.168C27.5855 25.3892 27.1133 24.9038 27.1133 24.3052C27.1133 23.7065 27.5855 23.2212 28.168 23.2212H29.2977C29.8801 23.2212 30.3524 23.7065 30.3524 24.3052C30.3524 24.9038 29.8801 25.3892 29.2977 25.3892Z" fill="#D3E8EB"/>
<path d="M23.9304 25.3892H22.8008C22.2183 25.3892 21.7461 24.9038 21.7461 24.3052C21.7461 23.7065 22.2183 23.2212 22.8008 23.2212H23.9304C24.5129 23.2212 24.9851 23.7065 24.9851 24.3052C24.9851 24.9038 24.5129 25.3892 23.9304 25.3892Z" fill="#D3E8EB"/>
<path d="M18.5652 25.3892H17.4355C16.8531 25.3892 16.3809 24.9038 16.3809 24.3052C16.3809 23.7065 16.8531 23.2212 17.4355 23.2212H18.5652C19.1477 23.2212 19.6199 23.7065 19.6199 24.3052C19.6199 24.9038 19.1477 25.3892 18.5652 25.3892Z" fill="#F3F8F7"/>
<path d="M13.1981 25.3892H12.0684C11.4859 25.3892 11.0137 24.9038 11.0137 24.3052C11.0137 23.7065 11.4859 23.2212 12.0684 23.2212H13.198C13.7805 23.2212 14.2527 23.7065 14.2527 24.3052C14.2527 24.9038 13.7805 25.3892 13.1981 25.3892Z" fill="#F3F8F7"/>
<path d="M7.83284 25.3892H6.70312C6.12066 25.3892 5.64844 24.9038 5.64844 24.3052C5.64844 23.7065 6.12066 23.2212 6.70312 23.2212H7.83284C8.4153 23.2212 8.88752 23.7065 8.88752 24.3052C8.88752 24.9038 8.41537 25.3892 7.83284 25.3892Z" fill="#F3F8F7"/>
<path d="M29.2977 20.7451H28.168C27.5855 20.7451 27.1133 20.2598 27.1133 19.6611C27.1133 19.0625 27.5855 18.5771 28.168 18.5771H29.2977C29.8801 18.5771 30.3524 19.0625 30.3524 19.6611C30.3524 20.2598 29.8801 20.7451 29.2977 20.7451Z" fill="#D3E8EB"/>
<path d="M23.9304 20.7451H22.8008C22.2183 20.7451 21.7461 20.2598 21.7461 19.6611C21.7461 19.0625 22.2183 18.5771 22.8008 18.5771H23.9304C24.5129 18.5771 24.9851 19.0625 24.9851 19.6611C24.9851 20.2598 24.5129 20.7451 23.9304 20.7451Z" fill="#D3E8EB"/>
<path d="M18.5652 20.7451H17.4355C16.8531 20.7451 16.3809 20.2598 16.3809 19.6611C16.3809 19.0625 16.8531 18.5771 17.4355 18.5771H18.5652C19.1477 18.5771 19.6199 19.0625 19.6199 19.6611C19.6199 20.2598 19.1477 20.7451 18.5652 20.7451Z" fill="#F3F8F7"/>
<path d="M13.1981 20.7451H12.0684C11.4859 20.7451 11.0137 20.2598 11.0137 19.6611C11.0137 19.0625 11.4859 18.5771 12.0684 18.5771H13.198C13.7805 18.5771 14.2527 19.0625 14.2527 19.6611C14.2527 20.2598 13.7805 20.7451 13.1981 20.7451Z" fill="#F3F8F7"/>
<path d="M7.83284 20.7451H6.70312C6.12066 20.7451 5.64844 20.2598 5.64844 19.6611C5.64844 19.0625 6.12066 18.5771 6.70312 18.5771H7.83284C8.4153 18.5771 8.88752 19.0625 8.88752 19.6611C8.88752 20.2598 8.41537 20.7451 7.83284 20.7451Z" fill="#F3F8F7"/>
<path d="M23.9301 30.0337H12.0684C11.4859 30.0337 11.0137 29.5484 11.0137 28.9497C11.0137 28.3511 11.4859 27.8657 12.0684 27.8657H23.9301C24.5125 27.8657 24.9848 28.3511 24.9848 28.9497C24.9848 29.5484 24.5125 30.0337 23.9301 30.0337Z" fill="#F3F8F7"/>
<path d="M30.3516 15.0168V1.08398C30.3516 0.485336 29.8794 0 29.2969 0H18V16.1008H29.2969C29.8794 16.1008 30.3516 15.6154 30.3516 15.0168Z" fill="#D3E8EB"/>
<path d="M19.6195 24.3052C19.6195 23.7065 19.1473 23.2212 18.5648 23.2212H18V25.3892H18.5648C19.1473 25.3892 19.6195 24.9039 19.6195 24.3052Z" fill="#D3E8EB"/>
<path d="M19.6195 19.6611C19.6195 19.0625 19.1473 18.5771 18.5648 18.5771H18V20.7451H18.5648C19.1473 20.7451 19.6195 20.2598 19.6195 19.6611Z" fill="#D3E8EB"/>
<path d="M24.9855 28.9497C24.9855 28.3511 24.5133 27.8657 23.9309 27.8657H18V30.0337H23.9309C24.5133 30.0337 24.9855 29.5484 24.9855 28.9497Z" fill="#D3E8EB"/>
<path d="M23.9301 11.4565H12.0684C11.4859 11.4565 11.0137 10.9712 11.0137 10.3726C11.0137 9.77391 11.4859 9.28857 12.0684 9.28857H23.9301C24.5125 9.28857 24.9848 9.77391 24.9848 10.3726C24.9848 10.9712 24.5125 11.4565 23.9301 11.4565Z" fill="#294451"/>
<path d="M15.7398 6.8125H12.0684C11.4859 6.8125 11.0137 6.32716 11.0137 5.72852C11.0137 5.12987 11.4859 4.64453 12.0684 4.64453H15.7398C16.3223 4.64453 16.7945 5.12987 16.7945 5.72852C16.7945 6.32716 16.3223 6.8125 15.7398 6.8125Z" fill="#294451"/>
<path d="M24.9855 10.3726C24.9855 9.77391 24.5133 9.28857 23.9309 9.28857H18V11.4565H23.9309C24.5133 11.4565 24.9855 10.9712 24.9855 10.3726Z" fill="#2B2523"/>
</svg>
