<svg width="32" height="35" viewBox="0 0 32 35" fill="none" xmlns="http://www.w3.org/2000/svg">
<path d="M25.4904 20.3446C25.1397 20.3447 24.7939 20.2416 24.5276 20.0456L19.4653 16.3187H15.5859V0.180176H29.2647C30.5619 0.180176 31.6172 1.01078 31.6172 2.03176V14.4671C31.6172 15.4881 30.5619 16.3187 29.2647 16.3187H26.8991V19.2357C26.8991 19.6775 26.5659 20.0772 26.0509 20.253C25.8706 20.3146 25.6798 20.3446 25.4904 20.3446Z" fill="#DDE4E8"/>
<path d="M5.95679 20.4848C5.77268 20.4848 5.58729 20.4543 5.41176 20.3917C4.91111 20.213 4.58718 19.807 4.58718 19.3582V16.3949H2.28724C1.02604 16.3949 0 15.551 0 14.5139V1.88099C0 0.843799 1.02604 0 2.28724 0H15.5862V16.3949H11.8146L6.89278 20.181C6.63397 20.38 6.2978 20.4848 5.95679 20.4848Z" fill="#F7F7F7"/>
<path d="M10.2136 35.0004H0.945937C0.423472 35.0004 0 34.577 0 34.0546V31.6882C0 30.4616 0.670547 29.3454 1.75163 28.769L3.71499 27.6144C3.86034 27.529 4.02587 27.4839 4.1945 27.4839H6.96511C7.13375 27.4839 7.29928 27.529 7.44462 27.6144L9.40799 28.769C10.4891 29.3454 11.1596 30.4616 11.1596 31.6882V34.0546C11.1595 34.577 10.7361 35.0004 10.2136 35.0004Z" fill="#67C782"/>
<path d="M9.40818 28.769L7.44482 27.6144C7.29947 27.529 7.13394 27.4839 6.96531 27.4839H5.58008V35.0004H10.2139C10.7363 35.0004 11.1599 34.577 11.1599 34.0545V31.6881C11.1598 30.4616 10.4893 29.3454 9.40818 28.769Z" fill="#3E9E8A"/>
<path d="M5.58077 29.3764C3.72586 29.3764 2.2168 27.8673 2.2168 26.0124C2.2168 24.1575 3.72586 22.6484 5.58077 22.6484C7.43568 22.6484 8.94474 24.1575 8.94474 26.0124C8.94467 27.8673 7.4356 29.3764 5.58077 29.3764Z" fill="#FFDBC2"/>
<path d="M8.94405 26.0124C8.94405 24.1575 7.43499 22.6484 5.58008 22.6484V29.3765C7.43499 29.3764 8.94405 27.8673 8.94405 26.0124Z" fill="#FFCCA9"/>
<path d="M30.6726 35.0005H21.4049C20.8825 35.0005 20.459 34.577 20.459 34.0546V31.6882C20.459 30.4616 21.1295 29.3454 22.2106 28.769L24.174 27.6144C24.3193 27.529 24.4849 27.4839 24.6535 27.4839H27.4241C27.5927 27.4839 27.7583 27.529 27.9036 27.6144L29.867 28.769C30.948 29.3454 31.6185 30.4616 31.6185 31.6883V34.0547C31.6185 34.577 31.1951 35.0005 30.6726 35.0005Z" fill="#7AD0F6"/>
<path d="M29.8672 28.769L27.9039 27.6144C27.7585 27.529 27.593 27.4839 27.4244 27.4839H26.0391V35.0004H30.6729C31.1953 35.0004 31.6189 34.577 31.6189 34.0545V31.6881C31.6189 30.4616 30.9483 29.3454 29.8672 28.769Z" fill="#6AAEFC"/>
<path d="M26.0378 29.3764C24.1829 29.3764 22.6738 27.8673 22.6738 26.0124C22.6738 24.1575 24.1829 22.6484 26.0378 22.6484C27.8927 22.6484 29.4018 24.1575 29.4018 26.0124C29.4018 27.8673 27.8927 29.3764 26.0378 29.3764Z" fill="#FFDBC2"/>
<path d="M29.403 26.0124C29.403 24.1575 27.894 22.6484 26.0391 22.6484V29.3765C27.894 29.3764 29.403 27.8673 29.403 26.0124Z" fill="#FFCCA9"/>
<path d="M11.0144 9.36914H8.23395C7.62152 9.36914 7.125 9.86566 7.125 10.4781C7.125 11.0905 7.62152 11.587 8.23395 11.587H11.0144C11.6268 11.587 12.1233 11.0905 12.1233 10.4781C12.1233 9.86566 11.6268 9.36914 11.0144 9.36914Z" fill="#49578C"/>
<path d="M8.23395 7.13148H11.0144C11.6268 7.13148 12.1233 6.63497 12.1233 6.02253C12.1233 5.41009 11.6268 4.91357 11.0144 4.91357H8.23395C7.62152 4.91357 7.125 5.41009 7.125 6.02253C7.125 6.63497 7.62144 7.13148 8.23395 7.13148Z" fill="#49578C"/>
<path d="M26.6999 9.36963H23.9195C23.3071 9.36963 22.8105 9.86614 22.8105 10.4786C22.8105 11.091 23.3071 11.5875 23.9195 11.5875H26.6999C27.3124 11.5875 27.8089 11.091 27.8089 10.4786C27.8089 9.86614 27.3125 9.36963 26.6999 9.36963Z" fill="#22283A"/>
<path d="M23.9195 7.13197H26.6999C27.3124 7.13197 27.8089 6.63545 27.8089 6.02302C27.8089 5.41058 27.3124 4.91406 26.6999 4.91406H23.9195C23.3071 4.91406 22.8105 5.41058 22.8105 6.02302C22.8105 6.63545 23.3071 7.13197 23.9195 7.13197Z" fill="#22283A"/>
</svg>
