<svg width="61" height="62" viewBox="0 0 61 62" fill="none" xmlns="http://www.w3.org/2000/svg">
<g clip-path="url(#clip0_2108_38733)">
<path d="M42.75 1.5H15.08L1 15.58V60.55H52.87V54.69" stroke="#231F20" stroke-width="2" stroke-linecap="round" stroke-linejoin="round"/>
<path d="M42.8594 1.5H52.8694V13.45" stroke="#231F20" stroke-width="2" stroke-linecap="round" stroke-linejoin="round"/>
<path d="M7.07 15.58H15.08V1.5L1 15.58H7.07Z" stroke="#231F20" stroke-width="2" stroke-linecap="round" stroke-linejoin="round"/>
<path d="M43.6405 44.2205C51.0025 44.2205 56.9705 38.2525 56.9705 30.8905C56.9705 23.5286 51.0025 17.5605 43.6405 17.5605C36.2786 17.5605 30.3105 23.5286 30.3105 30.8905C30.3105 38.2525 36.2786 44.2205 43.6405 44.2205Z" stroke="#231F20" stroke-width="2" stroke-linecap="round" stroke-linejoin="round"/>
<path d="M52.5508 40.8105L59.4208 47.6805" stroke="#231F20" stroke-width="2" stroke-linecap="round" stroke-linejoin="round"/>
<path d="M38.5312 30.5212L42.7013 34.7413L48.7612 27.0312" stroke="#418200" stroke-width="2" stroke-linecap="round" stroke-linejoin="round"/>
<path d="M21.0703 26.5H29.9503" stroke="#231F20" stroke-width="2" stroke-linecap="round" stroke-linejoin="round"/>
<path d="M21.0703 36.5312H29.9503" stroke="#231F20" stroke-width="2" stroke-linecap="round" stroke-linejoin="round"/>
<path d="M14.5795 36.53C14.5795 36.82 14.3395 37.06 14.0495 37.06C13.7595 37.06 13.5195 36.82 13.5195 36.53C13.5195 36.24 13.7595 36 14.0495 36C14.3395 36 14.5795 36.24 14.5795 36.53Z" stroke="#231F20" stroke-width="2" stroke-linecap="round" stroke-linejoin="round"/>
<path d="M14.5795 26.5007C14.5795 26.7907 14.3395 27.0307 14.0495 27.0307C13.7595 27.0307 13.5195 26.7907 13.5195 26.5007C13.5195 26.2107 13.7595 25.9707 14.0495 25.9707C14.3395 25.9707 14.5795 26.2107 14.5795 26.5007Z" stroke="#231F20" stroke-width="2" stroke-linecap="round" stroke-linejoin="round"/>
</g>
<defs>
<clipPath id="clip0_2108_38733">
<rect width="60.42" height="61.05" fill="white" transform="translate(0 0.5)"/>
</clipPath>
</defs>
</svg>
