<svg width="18" height="18" viewBox="0 0 18 18" fill="none" xmlns="http://www.w3.org/2000/svg">
<path d="M14.482 7.69096C14.482 12.2728 8.5911 16.2 8.5911 16.2C8.5911 16.2 2.7002 12.2728 2.7002 7.69096C2.7002 6.12859 3.32084 4.63022 4.4256 3.52546C5.53036 2.4207 7.02874 1.80005 8.5911 1.80005C10.1535 1.80005 11.6518 2.4207 12.7566 3.52546C13.8614 4.63022 14.482 6.12859 14.482 7.69096Z" stroke="#0D0E10" stroke-width="1.4" stroke-linecap="round" stroke-linejoin="round"/>
<path d="M8.59108 9.65457C9.67556 9.65457 10.5547 8.77542 10.5547 7.69093C10.5547 6.60644 9.67556 5.72729 8.59108 5.72729C7.50659 5.72729 6.62744 6.60644 6.62744 7.69093C6.62744 8.77542 7.50659 9.65457 8.59108 9.65457Z" stroke="#0D0E10" stroke-width="1.4" stroke-linecap="round" stroke-linejoin="round"/>
</svg>
