<svg width="18" height="18" viewBox="0 0 18 18" fill="none" xmlns="http://www.w3.org/2000/svg">
<path d="M16 7.5C16 12.5556 9.5 16.8889 9.5 16.8889C9.5 16.8889 3 12.5556 3 7.5C3 5.77609 3.68482 4.12279 4.90381 2.90381C6.12279 1.68482 7.77609 1 9.5 1C11.2239 1 12.8772 1.68482 14.0962 2.90381C15.3152 4.12279 16 5.77609 16 7.5Z" stroke="#464C53" stroke-width="1.4" stroke-linecap="round" stroke-linejoin="round"/>
<path d="M9.50065 9.66732C10.6973 9.66732 11.6673 8.69727 11.6673 7.50065C11.6673 6.30403 10.6973 5.33398 9.50065 5.33398C8.30403 5.33398 7.33398 6.30403 7.33398 7.50065C7.33398 8.69727 8.30403 9.66732 9.50065 9.66732Z" stroke="#464C53" stroke-width="1.4" stroke-linecap="round" stroke-linejoin="round"/>
</svg>
