<svg width="18" height="18" viewBox="0 0 18 18" fill="none" xmlns="http://www.w3.org/2000/svg">
<path d="M8.25 10.8417C8.25 11.168 8.1183 11.4809 7.88388 11.7116C7.64946 11.9423 7.33152 12.0719 7 12.0719C6.66848 12.0719 6.35054 11.9423 6.11612 11.7116C5.8817 11.4809 5.75 11.168 5.75 10.8417C5.75 10.5154 5.8817 10.2025 6.11612 9.97182C6.35054 9.74111 6.66848 9.6115 7 9.6115C7.33152 9.6115 7.64946 9.74111 7.88388 9.97182C8.1183 10.2025 8.25 10.5154 8.25 10.8417ZM12 12.0719C12.3315 12.0719 12.6495 11.9423 12.8839 11.7116C13.1183 11.4809 13.25 11.168 13.25 10.8417C13.25 10.5154 13.1183 10.2025 12.8839 9.97182C12.6495 9.74111 12.3315 9.6115 12 9.6115C11.6685 9.6115 11.3505 9.74111 11.1161 9.97182C10.8817 10.2025 10.75 10.5154 10.75 10.8417C10.75 11.168 10.8817 11.4809 11.1161 11.7116C11.3505 11.9423 11.6685 12.0719 12 12.0719ZM7 4.07553C7 3.9124 7.06585 3.75594 7.18306 3.64059C7.30027 3.52523 7.45924 3.46043 7.625 3.46043H11.375C11.5408 3.46043 11.6997 3.52523 11.8169 3.64059C11.9342 3.75594 12 3.9124 12 4.07553C12 4.23867 11.9342 4.39513 11.8169 4.51048C11.6997 4.62584 11.5408 4.69064 11.375 4.69064H7.625C7.45924 4.69064 7.30027 4.62584 7.18306 4.51048C7.06585 4.39513 7 4.23867 7 4.07553ZM2 4.07553C2 3.25985 2.32924 2.47758 2.91529 1.9008C3.50134 1.32403 4.2962 1 5.125 1H13.875C14.7038 1 15.4987 1.32403 16.0847 1.9008C16.6708 2.47758 17 3.25985 17 4.07553V11.4568C17 12.2725 16.6708 13.0548 16.0847 13.6315C15.4987 14.2083 14.7038 14.5324 13.875 14.5324H13.1038L15.435 15.8438C15.5083 15.8827 15.5729 15.9358 15.6251 15.9997C15.6773 16.0636 15.716 16.1372 15.7388 16.216C15.7617 16.2949 15.7683 16.3774 15.7583 16.4589C15.7483 16.5403 15.7218 16.6189 15.6805 16.6901C15.6392 16.7613 15.5838 16.8236 15.5176 16.8734C15.4514 16.9233 15.3758 16.9596 15.2951 16.9802C15.2145 17.0008 15.1305 17.0054 15.048 16.9936C14.9656 16.9818 14.8863 16.9539 14.815 16.9116L10.5837 14.5324H8.41625L4.185 16.9116C4.04143 16.988 3.8732 17.006 3.71627 16.9619C3.55934 16.9178 3.42616 16.8151 3.34519 16.6756C3.26422 16.5362 3.24189 16.3711 3.28296 16.2156C3.32403 16.0602 3.42526 15.9267 3.565 15.8438L5.89625 14.5324H5.125C4.2962 14.5324 3.50134 14.2083 2.91529 13.6315C2.32924 13.0548 2 12.2725 2 11.4568V4.07553ZM3.25 8.38128V11.4568C3.25 11.9462 3.44754 12.4156 3.79917 12.7617C4.15081 13.1077 4.62772 13.3021 5.125 13.3021H13.875C14.3723 13.3021 14.8492 13.1077 15.2008 12.7617C15.5525 12.4156 15.75 11.9462 15.75 11.4568V8.38128H3.25ZM15.75 7.15107V4.07553C15.75 3.58612 15.5525 3.11676 15.2008 2.7707C14.8492 2.42463 14.3723 2.23021 13.875 2.23021H5.125C4.62772 2.23021 4.15081 2.42463 3.79917 2.7707C3.44754 3.11676 3.25 3.58612 3.25 4.07553V7.15107H15.75Z" fill="#464C53"/>
</svg>
