<svg width="24" height="25" viewBox="0 0 24 25" fill="none" xmlns="http://www.w3.org/2000/svg">
<g clip-path="url(#clip0_1963_59734)">
<path d="M7.2 0.5H16.8C18.7096 0.5 20.5409 1.25857 21.8912 2.60883C23.2414 3.95909 24 5.79044 24 7.7V17.3C24 19.2096 23.2414 21.0409 21.8912 22.3912C20.5409 23.7414 18.7096 24.5 16.8 24.5H7.2C5.29044 24.5 3.45909 23.7414 2.10883 22.3912C0.758569 21.0409 0 19.2096 0 17.3L0 7.7C0 5.79044 0.758569 3.95909 2.10883 2.60883C3.45909 1.25857 5.29044 0.5 7.2 0.5ZM7.2 2.9C5.92696 2.9 4.70606 3.40571 3.80589 4.30589C2.90571 5.20606 2.4 6.42696 2.4 7.7V17.3C2.4 18.573 2.90571 19.7939 3.80589 20.6941C4.70606 21.5943 5.92696 22.1 7.2 22.1H16.8C18.073 22.1 19.2939 21.5943 20.1941 20.6941C21.0943 19.7939 21.6 18.573 21.6 17.3V7.7C21.6 6.42696 21.0943 5.20606 20.1941 4.30589C19.2939 3.40571 18.073 2.9 16.8 2.9H7.2ZM14.4 11.3H18C18.3183 11.3 18.6235 11.4264 18.8485 11.6515C19.0736 11.8765 19.2 12.1817 19.2 12.5C19.2 12.8183 19.0736 13.1235 18.8485 13.3485C18.6235 13.5736 18.3183 13.7 18 13.7H14.4C14.0817 13.7 13.7765 13.5736 13.5515 13.3485C13.3264 13.1235 13.2 12.8183 13.2 12.5C13.2 12.1817 13.3264 11.8765 13.5515 11.6515C13.7765 11.4264 14.0817 11.3 14.4 11.3ZM12 16.1H18C18.3183 16.1 18.6235 16.2264 18.8485 16.4515C19.0736 16.6765 19.2 16.9817 19.2 17.3C19.2 17.6183 19.0736 17.9235 18.8485 18.1485C18.6235 18.3736 18.3183 18.5 18 18.5H12C11.6817 18.5 11.3765 18.3736 11.1515 18.1485C10.9264 17.9235 10.8 17.6183 10.8 17.3C10.8 16.9817 10.9264 16.6765 11.1515 16.4515C11.3765 16.2264 11.6817 16.1 12 16.1ZM12 6.5H18C18.3183 6.5 18.6235 6.62643 18.8485 6.85147C19.0736 7.07652 19.2 7.38174 19.2 7.7C19.2 8.01826 19.0736 8.32348 18.8485 8.54853C18.6235 8.77357 18.3183 8.9 18 8.9H12C11.6817 8.9 11.3765 8.77357 11.1515 8.54853C10.9264 8.32348 10.8 8.01826 10.8 7.7C10.8 7.38174 10.9264 7.07652 11.1515 6.85147C11.3765 6.62643 11.6817 6.5 12 6.5ZM6.9936 12.7916L9.54 10.244C9.65149 10.1326 9.78384 10.0442 9.92948 9.98396C10.0751 9.92369 10.2312 9.8927 10.3888 9.89276C10.5464 9.89281 10.7025 9.92391 10.8481 9.98428C10.9937 10.0447 11.126 10.1331 11.2374 10.2446C11.3488 10.3561 11.4372 10.4884 11.4974 10.6341C11.5577 10.7797 11.5887 10.9358 11.5886 11.0934C11.5886 11.251 11.5575 11.4071 11.4971 11.5527C11.4367 11.6983 11.3483 11.8306 11.2368 11.942L7.8432 15.3356C7.73175 15.4472 7.59941 15.5357 7.45373 15.5961C7.30805 15.6565 7.1519 15.6875 6.9942 15.6875C6.8365 15.6875 6.68035 15.6565 6.53467 15.5961C6.38899 15.5357 6.25665 15.4472 6.1452 15.3356L4.4484 13.64C4.22981 13.4137 4.10886 13.1106 4.11159 12.7959C4.11433 12.4813 4.24053 12.1803 4.46302 11.9578C4.68551 11.7353 4.98648 11.6091 5.30112 11.6064C5.61575 11.6037 5.91888 11.7246 6.1452 11.9432L6.9936 12.7916Z" fill="#0050CA"/>
</g>
<defs>
<clipPath id="clip0_1963_59734">
<rect width="24" height="24" fill="white" transform="translate(0 0.5)"/>
</clipPath>
</defs>
</svg>
