<svg width="18" height="18" viewBox="0 0 18 18" fill="none" xmlns="http://www.w3.org/2000/svg">
<path d="M14.481 7.69169C14.481 12.2735 8.59013 16.2008 8.59013 16.2008C8.59013 16.2008 2.69922 12.2735 2.69922 7.69169C2.69922 6.12932 3.31987 4.63095 4.42463 3.52619C5.52939 2.42143 7.02776 1.80078 8.59013 1.80078C10.1525 1.80078 11.6509 2.42143 12.7556 3.52619C13.8604 4.63095 14.481 6.12932 14.481 7.69169Z" stroke="#8A949E" stroke-width="1.4" stroke-linecap="round" stroke-linejoin="round"/>
<path d="M8.59059 9.65579C9.67508 9.65579 10.5542 8.77664 10.5542 7.69215C10.5542 6.60767 9.67508 5.72852 8.59059 5.72852C7.5061 5.72852 6.62695 6.60767 6.62695 7.69215C6.62695 8.77664 7.5061 9.65579 8.59059 9.65579Z" stroke="#8A949E" stroke-width="1.4" stroke-linecap="round" stroke-linejoin="round"/>
</svg>
