<svg width="24" height="24" viewBox="0 0 24 24" fill="none" xmlns="http://www.w3.org/2000/svg">
<path d="M12 1.99951C17.5228 1.99951 22 6.47666 22 11.9995C22 17.5223 17.5228 21.9995 12 21.9995C6.47715 21.9995 2 17.5223 2 11.9995C2 6.47666 6.47715 1.99951 12 1.99951ZM12 3.59912C7.36081 3.59912 3.59961 7.36032 3.59961 11.9995C3.59961 16.6387 7.36081 20.3999 12 20.3999C16.6391 20.3999 20.4004 16.6387 20.4004 11.9995C20.4004 7.36032 16.6391 3.59912 12 3.59912ZM11.999 6.69971C12.4408 6.69971 12.7987 7.05777 12.7988 7.49951V11.1997H16.5C16.9416 11.2 17.2998 11.5588 17.2998 12.0005C17.2995 12.4419 16.9414 12.8 16.5 12.8003H11.999C11.5574 12.8002 11.1995 12.442 11.1992 12.0005V7.49951C11.1993 7.05784 11.5574 6.69981 11.999 6.69971Z" fill="#33363D"/>
<path d="M12 1.99951C17.5228 1.99951 22 6.47666 22 11.9995C22 17.5223 17.5228 21.9995 12 21.9995C6.47715 21.9995 2 17.5223 2 11.9995C2 6.47666 6.47715 1.99951 12 1.99951ZM12 3.59912C7.36081 3.59912 3.59961 7.36032 3.59961 11.9995C3.59961 16.6387 7.36081 20.3999 12 20.3999C16.6391 20.3999 20.4004 16.6387 20.4004 11.9995C20.4004 7.36032 16.6391 3.59912 12 3.59912ZM11.999 6.69971C12.4408 6.69971 12.7987 7.05777 12.7988 7.49951V11.1997H16.5C16.9416 11.2 17.2998 11.5588 17.2998 12.0005C17.2995 12.4419 16.9414 12.8 16.5 12.8003H11.999C11.5574 12.8002 11.1995 12.442 11.1992 12.0005V7.49951C11.1993 7.05784 11.5574 6.69981 11.999 6.69971Z" fill="#0B78CB"/>
</svg>
