<svg width="16" height="16" viewBox="0 0 16 16" fill="none" xmlns="http://www.w3.org/2000/svg">
<path d="M8 0.5C12.1423 0.5 15.5 3.85775 15.5 8C15.5 12.1423 12.1423 15.5 8 15.5C3.85775 15.5 0.5 12.1423 0.5 8C0.5 3.85775 3.85775 0.5 8 0.5ZM8 2C6.4087 2 4.88258 2.63214 3.75736 3.75736C2.63214 4.88258 2 6.4087 2 8C2 9.5913 2.63214 11.1174 3.75736 12.2426C4.88258 13.3679 6.4087 14 8 14C9.5913 14 11.1174 13.3679 12.2426 12.2426C13.3679 11.1174 14 9.5913 14 8C14 6.4087 13.3679 4.88258 12.2426 3.75736C11.1174 2.63214 9.5913 2 8 2ZM10.2725 5.56775C10.3189 5.38213 10.4344 5.22125 10.5955 5.11804C10.7566 5.01484 10.9511 4.9771 11.1391 5.01255C11.3271 5.04801 11.4945 5.15398 11.6069 5.30877C11.7194 5.46357 11.7684 5.65549 11.744 5.84525L11.7275 5.93225L11.585 6.5H11.75C11.9412 6.50021 12.125 6.57341 12.264 6.70464C12.403 6.83586 12.4867 7.01521 12.4979 7.20605C12.5091 7.39688 12.447 7.58478 12.3243 7.73137C12.2016 7.87796 12.0276 7.97217 11.8378 7.99475L11.75 8H11.21L11.0225 8.75H11.75C11.9412 8.75021 12.125 8.82341 12.264 8.95464C12.403 9.08586 12.4867 9.26521 12.4979 9.45605C12.5091 9.64688 12.447 9.83478 12.3243 9.98137C12.2016 10.128 12.0276 10.2222 11.8378 10.2448L11.75 10.25H10.6475L10.2898 11.6825C10.0978 12.4505 9.056 12.521 8.7425 11.8325L8.70725 11.7425L8 9.6215L7.29275 11.7425C7.04225 12.4948 5.99825 12.485 5.738 11.7748L5.71025 11.6818L5.35175 10.25H4.25C4.05884 10.2498 3.87498 10.1766 3.73597 10.0454C3.59697 9.91414 3.51332 9.73479 3.50212 9.54395C3.49092 9.35312 3.55301 9.16522 3.6757 9.01863C3.79839 8.87204 3.97243 8.77783 4.16225 8.75525L4.25 8.75H4.9775L4.79 8H4.25C4.05884 7.99979 3.87498 7.92659 3.73597 7.79536C3.59697 7.66414 3.51332 7.48479 3.50212 7.29395C3.49092 7.10312 3.55301 6.91522 3.6757 6.76863C3.79839 6.62204 3.97243 6.52783 4.16225 6.50525L4.25 6.5H4.415L4.2725 5.93225C4.22647 5.7468 4.25295 5.55077 4.34655 5.38419C4.44014 5.2176 4.59379 5.09302 4.77613 5.03588C4.95846 4.97874 5.15573 4.99335 5.32766 5.07672C5.49959 5.1601 5.63321 5.30595 5.70125 5.4845L5.7275 5.56775L6.60275 9.0695L7.28825 7.013C7.33557 6.87056 7.42455 6.74559 7.54366 6.65426C7.66278 6.56293 7.80656 6.50945 7.95641 6.50073C8.10625 6.492 8.25527 6.52844 8.38418 6.60533C8.51309 6.68221 8.61597 6.79601 8.6795 6.932L8.71175 7.013L9.39725 9.0695L10.2725 5.56775Z" fill="#8A949E"/>
</svg>
