<svg width="24" height="24" viewBox="0 0 24 24" fill="none" xmlns="http://www.w3.org/2000/svg">
<path d="M21 11.666V20C20.9998 20.5521 20.5522 21 20 21H15V16.666C14.9998 16.1139 14.5522 15.666 14 15.666H12C11.4478 15.666 11.0002 16.1139 11 16.666V21H6C5.44784 21 5.0002 20.5521 5 20V11.666L13 5L21 11.666Z" fill="white"/>
<mask id="mask0_4499_27055" style="mask-type:luminance" maskUnits="userSpaceOnUse" x="5" y="5" width="16" height="16">
<path d="M21 11.666V20C20.9998 20.5521 20.5522 21 20 21H15V16.666C14.9998 16.1139 14.5522 15.666 14 15.666H12C11.4478 15.666 11.0002 16.1139 11 16.666V21H6C5.44784 21 5.0002 20.5521 5 20V11.666L13 5L21 11.666Z" fill="white"/>
</mask>
<g mask="url(#mask0_4499_27055)">
<path d="M21 7.1659H22V6.6975L21.6401 6.3977L21 7.1659ZM15 16.4999H14V17.4999H15V16.4999ZM11 16.4999V17.4999H12V16.4999H11ZM5 7.1659L4.35985 6.3977L4 6.6975V7.1659H5ZM13 0.499902L13.6401 -0.268348L13 -0.801758L12.3599 -0.268348L13 0.499902ZM21 7.1659H20V15.4999H21L22 15.5003V7.1659H21ZM21 15.4999H20V16.4999V17.4999C21.1048 17.4999 21.9996 16.604 22 15.5003L21 15.4999ZM20 16.4999V15.4999H15V16.4999V17.4999H20V16.4999ZM15 16.4999H16V12.1659H15H14V16.4999H15ZM15 12.1659H16C15.9997 11.062 15.1047 10.1659 14 10.1659V11.1659V12.1659H15ZM14 11.1659V10.1659H12V11.1659V12.1659H14V11.1659ZM12 11.1659V10.1659C10.8953 10.1659 10.0003 11.0617 10 12.1656L11 12.1659H12V11.1659ZM11 12.1659L10 12.1656V16.4999H11H12V12.1659H11ZM11 16.4999V15.4999H6V16.4999V17.4999H11V16.4999ZM6 16.4999V15.4999H5H4C4.0004 16.6036 4.89519 17.4999 6 17.4999V16.4999ZM5 15.4999H6V7.1659H5H4V15.4999H5ZM5 7.1659L5.64015 7.9342L13.6401 1.26815L13 0.499902L12.3599 -0.268348L4.35985 6.3977L5 7.1659ZM13 0.499902L12.3599 1.26815L20.3599 7.9342L21 7.1659L21.6401 6.3977L13.6401 -0.268348L13 0.499902Z" fill="white"/>
</g>
</svg>
