<svg width="65" height="62" viewBox="0 0 65 62" fill="none" xmlns="http://www.w3.org/2000/svg">
<g clip-path="url(#clip0_2108_38711)">
<path d="M61.049 12.8895L45.569 35.1495L38.709 37.1595L38.209 30.0195L53.689 7.76953" stroke="#231F20" stroke-width="2" stroke-linecap="round" stroke-linejoin="round"/>
<path d="M53.4785 8.05966L55.6885 4.88966C57.0985 2.85966 59.8985 2.35966 61.9285 3.76966C63.9585 5.17966 64.4585 7.97966 63.0485 10.0097L60.8385 13.1797" stroke="#231F20" stroke-width="2" stroke-linecap="round" stroke-linejoin="round"/>
<path d="M38.7089 37.1602L37.6289 38.7002" stroke="#231F20" stroke-width="2" stroke-linecap="round" stroke-linejoin="round"/>
<path d="M38.3789 29.9492L45.4689 34.8892" stroke="#231F20" stroke-width="2" stroke-linecap="round" stroke-linejoin="round"/>
<path d="M54.6387 6.40039L59.4687 9.75039" stroke="#231F20" stroke-width="2" stroke-linecap="round" stroke-linejoin="round"/>
<path d="M39.0391 43.1392C36.3091 46.3792 32.2291 48.4392 27.6591 48.4392C19.4491 48.4392 12.7891 41.7792 12.7891 33.5692C12.7891 25.3592 19.4491 18.6992 27.6591 18.6992C31.4991 18.6992 34.9991 20.1492 37.6291 22.5392" stroke="#418200" stroke-width="2" stroke-linecap="round" stroke-linejoin="round"/>
<path d="M21.9395 33.1598L26.5995 37.8798L33.3795 29.2598" stroke="#418200" stroke-width="2" stroke-linecap="round" stroke-linejoin="round"/>
<path d="M42.75 1.5H15.08L1 15.58V60.55H52.87V37.75" stroke="#231F20" stroke-width="2" stroke-linecap="round" stroke-linejoin="round"/>
<path d="M42.8594 1.5H48.8694" stroke="#231F20" stroke-width="2" stroke-linecap="round" stroke-linejoin="round"/>
<path d="M7.07 15.58H15.08V1.5L1 15.58H7.07Z" stroke="#231F20" stroke-width="2" stroke-linecap="round" stroke-linejoin="round"/>
</g>
<defs>
<clipPath id="clip0_2108_38711">
<rect width="64.86" height="61.05" fill="white" transform="translate(0 0.5)"/>
</clipPath>
</defs>
</svg>
