<svg width="18" height="18" viewBox="0 0 18 18" fill="none" xmlns="http://www.w3.org/2000/svg">
<path d="M7.875 11.25C7.875 11.5484 7.75647 11.8345 7.5455 12.0455C7.33452 12.2565 7.04837 12.375 6.75 12.375C6.45163 12.375 6.16548 12.2565 5.9545 12.0455C5.74353 11.8345 5.625 11.5484 5.625 11.25C5.625 10.9516 5.74353 10.6655 5.9545 10.4545C6.16548 10.2435 6.45163 10.125 6.75 10.125C7.04837 10.125 7.33452 10.2435 7.5455 10.4545C7.75647 10.6655 7.875 10.9516 7.875 11.25ZM11.25 12.375C11.5484 12.375 11.8345 12.2565 12.0455 12.0455C12.2565 11.8345 12.375 11.5484 12.375 11.25C12.375 10.9516 12.2565 10.6655 12.0455 10.4545C11.8345 10.2435 11.5484 10.125 11.25 10.125C10.9516 10.125 10.6655 10.2435 10.4545 10.4545C10.2435 10.6655 10.125 10.9516 10.125 11.25C10.125 11.5484 10.2435 11.8345 10.4545 12.0455C10.6655 12.2565 10.9516 12.375 11.25 12.375ZM6.75 5.0625C6.75 4.91332 6.80926 4.77024 6.91475 4.66475C7.02024 4.55926 7.16332 4.5 7.3125 4.5H10.6875C10.8367 4.5 10.9798 4.55926 11.0852 4.66475C11.1907 4.77024 11.25 4.91332 11.25 5.0625C11.25 5.21168 11.1907 5.35476 11.0852 5.46025C10.9798 5.56574 10.8367 5.625 10.6875 5.625H7.3125C7.16332 5.625 7.02024 5.56574 6.91475 5.46025C6.80926 5.35476 6.75 5.21168 6.75 5.0625ZM2.25 5.0625C2.25 4.31658 2.54632 3.60121 3.07376 3.07376C3.60121 2.54632 4.31658 2.25 5.0625 2.25H12.9375C13.6834 2.25 14.3988 2.54632 14.9262 3.07376C15.4537 3.60121 15.75 4.31658 15.75 5.0625V11.8125C15.75 12.5584 15.4537 13.2738 14.9262 13.8012C14.3988 14.3287 13.6834 14.625 12.9375 14.625H12.2434L14.3415 15.8243C14.4075 15.8599 14.4656 15.9084 14.5126 15.9669C14.5596 16.0253 14.5944 16.0926 14.6149 16.1647C14.6355 16.2368 14.6415 16.3123 14.6325 16.3867C14.6235 16.4612 14.5996 16.5331 14.5624 16.5982C14.5252 16.6633 14.4754 16.7203 14.4158 16.7659C14.3563 16.8114 14.2882 16.8446 14.2156 16.8635C14.1431 16.8824 14.0674 16.8865 13.9932 16.8758C13.919 16.865 13.8477 16.8395 13.7835 16.8007L9.97537 14.625H8.02462L4.2165 16.8007C4.08728 16.8706 3.93588 16.8871 3.79464 16.8468C3.65341 16.8065 3.53354 16.7125 3.46067 16.585C3.3878 16.4574 3.3677 16.3065 3.40466 16.1643C3.44163 16.0222 3.53273 15.9001 3.6585 15.8243L5.75663 14.625H5.0625C4.31658 14.625 3.60121 14.3287 3.07376 13.8012C2.54632 13.2738 2.25 12.5584 2.25 11.8125V5.0625ZM3.375 9V11.8125C3.375 12.2601 3.55279 12.6893 3.86926 13.0057C4.18572 13.3222 4.61495 13.5 5.0625 13.5H12.9375C13.3851 13.5 13.8143 13.3222 14.1307 13.0057C14.4472 12.6893 14.625 12.2601 14.625 11.8125V9H3.375ZM14.625 7.875V5.0625C14.625 4.61495 14.4472 4.18572 14.1307 3.86926C13.8143 3.55279 13.3851 3.375 12.9375 3.375H5.0625C4.61495 3.375 4.18572 3.55279 3.86926 3.86926C3.55279 4.18572 3.375 4.61495 3.375 5.0625V7.875H14.625Z" fill="#464C53"/>
</svg>
