<svg width="18" height="18" viewBox="0 0 18 18" fill="none" xmlns="http://www.w3.org/2000/svg">
<path d="M11.4375 2.0625H6.5625C4.07722 2.0625 2.0625 4.07722 2.0625 6.5625V11.4375C2.0625 13.9228 4.07722 15.9375 6.5625 15.9375H11.4375C13.9228 15.9375 15.9375 13.9228 15.9375 11.4375V6.5625C15.9375 4.07722 13.9228 2.0625 11.4375 2.0625Z" stroke="#8A949E" stroke-width="1.4"/>
<path d="M12.5725 8.20671V9.79371C12.5725 9.89913 12.5306 10.0002 12.456 10.0748C12.3815 10.1493 12.2804 10.1912 12.175 10.1912H10.1912V12.175C10.1912 12.2804 10.1493 12.3815 10.0748 12.456C10.0002 12.5306 9.89913 12.5725 9.79371 12.5725H8.20671C8.10129 12.5725 8.00018 12.5306 7.92564 12.456C7.85109 12.3815 7.80921 12.2804 7.80921 12.175V10.1912H5.82621C5.72079 10.1912 5.61968 10.1493 5.54514 10.0748C5.47059 10.0002 5.42871 9.89913 5.42871 9.79371V8.20671C5.42871 8.10129 5.47059 8.00018 5.54514 7.92564C5.61968 7.85109 5.72079 7.80921 5.82621 7.80921H7.80996V5.82621C7.80996 5.72079 7.85184 5.61968 7.92639 5.54514C8.00093 5.47059 8.10204 5.42871 8.20746 5.42871H9.79446C9.89988 5.42871 10.001 5.47059 10.0755 5.54514C10.1501 5.61968 10.192 5.72079 10.192 5.82621V7.80996H12.1757C12.2279 7.80996 12.2796 7.82024 12.3278 7.84022C12.3761 7.86019 12.4199 7.88947 12.4568 7.92639C12.4937 7.9633 12.523 8.00712 12.543 8.05534C12.5629 8.10357 12.5732 8.15526 12.5732 8.20746" stroke="#8A949E" stroke-width="1.4" stroke-linecap="round" stroke-linejoin="round"/>
</svg>
