<svg width="1000" height="600" viewBox="0 0 1000 600" fill="none" xmlns="http://www.w3.org/2000/svg">
<rect width="1000" height="600" rx="10" fill="#F1F2F6"/>
<mask id="mask0_4502_48488" style="mask-type:luminance" maskUnits="userSpaceOnUse" x="411" y="273" width="50" height="73">
<path d="M418.988 273.85C414.903 273.85 411.656 277.445 411.656 281.564V345.693H460.976V332.485H426.211V273.85H418.988Z" fill="white"/>
</mask>
<g mask="url(#mask0_4502_48488)">
<path d="M418.988 273.85C414.903 273.85 411.656 277.445 411.656 281.564V345.693H460.976V332.485H426.211V273.85H418.988Z" fill="#C9C7C4"/>
</g>
<mask id="mask1_4502_48488" style="mask-type:luminance" maskUnits="userSpaceOnUse" x="464" y="273" width="56" height="73">
<path d="M472.193 273.85C468.11 273.85 464.863 277.445 464.863 281.564V345.693H479.418V320.126H497.428C511.669 320.126 519.311 311.148 519.311 296.989C519.311 281.985 511.46 273.85 496.381 273.85H472.193ZM479.629 286.318H494.497C501.304 286.318 504.76 289.805 504.76 296.782C504.76 303.753 501.095 307.234 493.763 307.131H479.629V286.318Z" fill="white"/>
</mask>
<g mask="url(#mask1_4502_48488)">
<path d="M472.193 273.85C468.11 273.85 464.863 277.445 464.863 281.564V345.693H479.418V320.126H497.428C511.669 320.126 519.311 311.148 519.311 296.989C519.311 281.985 511.46 273.85 496.381 273.85H472.193ZM479.629 286.318H494.497C501.304 286.318 504.76 289.805 504.76 296.782C504.76 303.753 501.095 307.234 493.763 307.131H479.629V286.318Z" fill="#C9C7C4"/>
</g>
<mask id="mask2_4502_48488" style="mask-type:luminance" maskUnits="userSpaceOnUse" x="522" y="273" width="60" height="73">
<path d="M566.934 273.85V323.189L537.927 273.85H530.075C525.993 273.85 522.746 277.445 522.746 281.564V345.693H537.092V296.354L566.096 345.693H581.279V273.85H566.934Z" fill="white"/>
</mask>
<g mask="url(#mask2_4502_48488)">
<path d="M566.934 273.85V323.189L537.927 273.85H530.075C525.993 273.85 522.746 277.445 522.746 281.564V345.693H537.092V296.354L566.096 345.693H581.279V273.85H566.934Z" fill="#C9C7C4"/>
</g>
<path d="M608.549 318.858H628.131L618.288 288.326L608.549 318.858ZM626.771 273.851L652.319 345.692H636.927L632.216 331.007H604.676L599.964 345.692H584.363L608.131 278.605C609.178 275.437 611.483 273.851 615.04 273.851H626.771Z" fill="#C9C7C4"/>
<path d="M355.011 273.85H362.236V303.431L389.982 273.85H408.413L380.035 303.012L410.926 345.693H393.125L375.114 320.339C371.975 316.109 369.041 314.421 366.321 315.369C363.596 316.323 362.236 318.119 362.236 320.547V345.693H347.682V281.564C347.682 277.445 350.929 273.85 355.011 273.85Z" fill="#C9C7C4"/>
<mask id="mask3_4502_48488" style="mask-type:luminance" maskUnits="userSpaceOnUse" x="574" y="254" width="53" height="15">
<path d="M574.543 254.32C574.543 256.192 574.909 258.047 575.62 259.777C576.331 261.507 577.372 263.079 578.685 264.403C579.997 265.727 581.556 266.777 583.271 267.493C584.986 268.21 586.824 268.578 588.68 268.578H626.341C626.342 266.705 625.976 264.851 625.266 263.12C624.556 261.39 623.515 259.818 622.202 258.494C620.89 257.17 619.331 256.119 617.616 255.403C615.901 254.687 614.063 254.319 612.207 254.32H574.543Z" fill="white"/>
</mask>
<g mask="url(#mask3_4502_48488)">
<path d="M574.543 254.32C574.543 256.192 574.909 258.047 575.62 259.777C576.331 261.507 577.372 263.079 578.685 264.403C579.997 265.727 581.556 266.777 583.271 267.493C584.986 268.21 586.824 268.578 588.68 268.578H626.341C626.342 266.705 625.976 264.851 625.266 263.12C624.556 261.39 623.515 259.818 622.202 258.494C620.89 257.17 619.331 256.119 617.616 255.403C615.901 254.687 614.063 254.319 612.207 254.32H574.543Z" fill="#C9C7C4"/>
</g>
<path d="M593.177 252.619H598.763C600.619 252.619 602.457 252.251 604.171 251.534C605.886 250.818 607.444 249.768 608.756 248.445C610.069 247.121 611.11 245.549 611.821 243.82C612.531 242.09 612.897 240.236 612.897 238.363H588.68C584.932 238.363 581.337 239.864 578.686 242.537C576.035 245.211 574.545 248.837 574.543 252.619H593.177Z" fill="#C9C7C4"/>
<path d="M593.177 252.619H598.763C600.619 252.619 602.457 252.251 604.171 251.534C605.886 250.818 607.444 249.768 608.756 248.445C610.069 247.121 611.11 245.549 611.821 243.82C612.531 242.09 612.897 240.236 612.897 238.363H588.68C584.932 238.363 581.337 239.864 578.686 242.537C576.035 245.211 574.545 248.837 574.543 252.619H593.177Z" fill="#C9C7C4"/>
<mask id="mask4_4502_48488" style="mask-type:luminance" maskUnits="userSpaceOnUse" x="543" y="254" width="30" height="15">
<path d="M558.46 254.32H557.862C554.114 254.32 550.519 255.823 547.868 258.496C545.217 261.17 543.726 264.796 543.723 268.578H558.622C562.37 268.578 565.965 267.076 568.615 264.402C571.266 261.728 572.755 258.101 572.756 254.32H558.46Z" fill="white"/>
</mask>
<g mask="url(#mask4_4502_48488)">
<path d="M558.46 254.32H557.862C554.114 254.32 550.519 255.823 547.868 258.496C545.217 261.17 543.726 264.796 543.723 268.578H558.622C562.37 268.578 565.965 267.076 568.615 264.402C571.266 261.728 572.755 258.101 572.756 254.32H558.46Z" fill="#C9C7C4"/>
</g>
<path d="M558.619 237.758V238.363C558.621 242.145 560.11 245.771 562.761 248.444C565.411 251.117 569.006 252.619 572.753 252.619V237.591C572.753 235.718 572.387 233.864 571.677 232.134C570.967 230.404 569.926 228.832 568.613 227.508C567.301 226.184 565.743 225.134 564.028 224.417C562.313 223.701 560.475 223.333 558.619 223.333V237.758Z" fill="#C9C7C4"/>
<mask id="mask5_4502_48488" style="mask-type:luminance" maskUnits="userSpaceOnUse" x="544" y="261" width="27" height="8">
<path d="M544.635 261.861H570.615V268.578H544.635V261.861Z" fill="white"/>
</mask>
<g mask="url(#mask5_4502_48488)">
<g opacity="0.199997">
<path d="M570.615 261.861C560.633 262.78 551.665 265.173 544.635 268.578H558.627C563.686 268.578 568.119 265.895 570.615 261.861Z" fill="white"/>
</g>
</g>
<mask id="mask6_4502_48488" style="mask-type:luminance" maskUnits="userSpaceOnUse" x="576" y="261" width="39" height="8">
<path d="M576.469 261.446H614.89V268.578H576.469V261.446Z" fill="white"/>
</mask>
<g mask="url(#mask6_4502_48488)">
<g opacity="0.199997">
<path d="M614.898 268.578C605.777 264.163 593.402 261.446 579.77 261.446C578.66 261.446 577.564 261.472 576.477 261.504C577.72 263.657 579.502 265.444 581.644 266.685C583.785 267.926 586.213 268.579 588.682 268.578H614.898Z" fill="white"/>
</g>
</g>
</svg>
