<svg width="16" height="16" viewBox="0 0 16 16" fill="none" xmlns="http://www.w3.org/2000/svg">
<rect width="16" height="16" fill="#F5F5F5"/>
<g id="&#235;&#140;&#128;&#237;&#145;&#156;/&#237;&#152;&#145;&#237;&#154;&#140;&#236;&#149;&#136;&#235;&#130;&#180;/&#236;&#160;&#149;&#234;&#180;&#128;">
<rect width="1920" height="1829" transform="translate(-640 -515)" fill="white"/>
<g id="Content">
<g id="Content_2">
<g id="con" clip-path="url(#clip0_898_26430)">
<g id="Frame 1010106553">
<g id="&#236;&#177;&#133;&#234;&#176;&#136;&#237;&#148;&#188;">
<rect x="-40" y="-170" width="1080" height="220" rx="12" fill="#F8F8F8"/>
<g id="Frame 1010106547">
<g id="icon">
<g id="Group 127">
<g id="Group">
<path id="Vector" d="M5.93572 11.6926V11.5219H11.4649V2H2V11.6926C2 12.733 2.63671 13.6225 3.54394 14H4.38849C5.29571 13.6225 5.93572 12.733 5.93572 11.6926Z" stroke="#464C53" stroke-width="1.2" stroke-linecap="round" stroke-linejoin="round"/>
<path id="Vector_2" d="M11.4681 13.9976H11.6364C12.5436 13.6202 13.1803 12.7307 13.1803 11.6902V11.5195H11.4648" stroke="#464C53" stroke-width="1.2" stroke-linecap="round" stroke-linejoin="round"/>
<path id="Vector_3" d="M11.4681 11.5195H5.93567V11.6902C5.93567 12.7307 5.29896 13.6202 4.38843 13.9976H11.4648" stroke="#464C53" stroke-width="1.2" stroke-linecap="round" stroke-linejoin="round"/>
</g>
<path id="Vector_4" d="M4.61621 5.76562H6.59562" stroke="#00AAFF" stroke-width="1.2" stroke-linecap="round" stroke-linejoin="round"/>
</g>
</g>
</g>
</g>
</g>
</g>
</g>
</g>
</g>
<defs>
<clipPath id="clip0_898_26430">
<rect width="1080" height="1454" fill="white" transform="translate(-40 -220)"/>
</clipPath>
</defs>
</svg>
