<svg width="110" height="100" viewBox="0 0 110 100" fill="none" xmlns="http://www.w3.org/2000/svg">
<g clip-path="url(#clip0_3737_45127)">
<path d="M62.7056 62.6926H2.95108C1.31159 62.6926 0 61.3616 0 59.7412V36.2844C0 34.664 1.33088 33.333 2.95108 33.333H81.5501C83.1895 33.333 84.5011 34.664 84.5011 36.2844V40.181C84.5011 40.8947 83.9225 41.4927 83.1896 41.4927C82.4566 41.4927 81.878 40.914 81.878 40.181V36.2844C81.878 36.0915 81.7237 35.9565 81.5501 35.9565H2.95108C2.7582 35.9565 2.62318 36.1108 2.62318 36.2844V59.7412C2.62318 59.9341 2.77749 60.0691 2.95108 60.0691H62.7056C63.4385 60.0691 64.0172 60.6478 64.0172 61.3808C64.0172 62.1139 63.4385 62.6926 62.7056 62.6926Z" fill="#1E1E1E"/>
<path d="M79.6018 35.9377H4.89899C4.18533 35.9377 3.5874 35.359 3.5874 34.626V28.0481C3.5874 27.3343 4.16605 26.7363 4.89899 26.7363H79.6018C80.3154 26.7363 80.9134 27.315 80.9134 28.0481V34.626C80.9134 35.3397 80.3347 35.9377 79.6018 35.9377ZM6.21058 33.3336H78.2902V29.3791H6.21058V33.3336Z" fill="#1E1E1E"/>
<path d="M43.9576 96.0266H2.95108C1.31159 96.0266 0 94.6955 0 93.0752V69.6184C0 67.998 1.33088 66.667 2.95108 66.667H57.0156C57.7293 66.667 58.3272 67.2457 58.3272 67.9787C58.3272 68.7117 57.7486 69.2904 57.0156 69.2904H2.95108C2.7582 69.2904 2.62318 69.4448 2.62318 69.6184V93.0752C2.62318 93.2681 2.77749 93.4224 2.95108 93.4224H43.9576C44.6712 93.4224 45.2692 94.0011 45.2692 94.7341C45.2692 95.4671 44.6905 96.0458 43.9576 96.0458V96.0266Z" fill="#1E1E1E"/>
<path d="M4.89899 69.2707C4.18533 69.2707 3.5874 68.692 3.5874 67.959V61.3811C3.5874 60.6673 4.16605 60.0693 4.89899 60.0693C5.63194 60.0693 6.21058 60.648 6.21058 61.3811V67.959C6.21058 68.6727 5.63194 69.2707 4.89899 69.2707Z" fill="#1E1E1E"/>
<path d="M81.5501 29.3789H2.95108C1.31159 29.3789 0 28.0478 0 26.4275V2.95139C0 1.33102 1.33088 0 2.95108 0H81.5501C83.1895 0 84.5011 1.33102 84.5011 2.95139V26.4082C84.5011 28.0285 83.1703 29.3596 81.5501 29.3596V29.3789ZM2.95108 2.62346C2.7582 2.62346 2.62318 2.77778 2.62318 2.95139V26.4082C2.62318 26.6011 2.77749 26.7361 2.95108 26.7361H81.5501C81.7429 26.7361 81.878 26.5818 81.878 26.4082V2.95139C81.878 2.75849 81.7237 2.62346 81.5501 2.62346H2.95108Z" fill="#1E1E1E"/>
<path d="M31.6133 15.9916H13.3282C12.5952 15.9916 12.0166 15.4129 12.0166 14.6799C12.0166 13.9469 12.5952 13.3682 13.3282 13.3682H31.594C32.3077 13.3682 32.9056 13.9469 32.9056 14.6799C32.9056 15.4129 32.327 15.9916 31.594 15.9916H31.6133Z" fill="#1E1E1E"/>
<path d="M36.7823 15.9919C36.4351 15.9919 36.1072 15.8569 35.8565 15.6061C35.6057 15.3553 35.4707 15.0274 35.4707 14.6802C35.4707 14.333 35.6057 14.005 35.8565 13.7543C36.3387 13.272 37.2259 13.272 37.7081 13.7543C37.9589 14.005 38.0939 14.333 38.0939 14.6802C38.0939 15.0274 37.9589 15.3553 37.7081 15.6061C37.4574 15.8569 37.1295 15.9919 36.7823 15.9919Z" fill="#1E1E1E"/>
<path d="M59.2916 20.2351C58.9444 20.2351 58.6165 20.1001 58.3657 19.8493C58.115 19.5985 57.98 19.2706 57.98 18.9234C57.98 18.5761 58.115 18.2482 58.3657 17.9974C58.8479 17.5152 59.7352 17.5152 60.2174 17.9974C60.4681 18.2482 60.6032 18.5761 60.6032 18.9234C60.6032 19.2706 60.4681 19.5985 60.2174 19.8493C59.9667 20.1001 59.6388 20.2351 59.2916 20.2351Z" fill="#1E1E1E"/>
<path d="M66.6788 20.2351C66.3316 20.2351 65.9844 20.1001 65.753 19.8493C65.5022 19.5985 65.3672 19.2706 65.3672 18.9234C65.3672 18.5761 65.5022 18.2482 65.753 17.9974C66.2352 17.5152 67.1224 17.5152 67.6046 17.9974C67.8554 18.2482 67.9904 18.5761 67.9904 18.9234C67.9904 19.2706 67.8554 19.5985 67.6046 19.8493C67.3539 20.1001 67.026 20.2351 66.6788 20.2351Z" fill="#1E1E1E"/>
<path d="M74.0469 20.2351C73.6998 20.2351 73.3526 20.1001 73.1211 19.8493C72.8704 19.5985 72.7354 19.2706 72.7354 18.9234C72.7354 18.5761 72.8704 18.2482 73.1211 17.9974C73.6033 17.5152 74.4906 17.5152 74.9728 17.9974C75.2235 18.2482 75.3585 18.5761 75.3585 18.9234C75.3585 19.2706 75.2235 19.5985 74.9728 19.8493C74.722 20.1001 74.3941 20.2351 74.0469 20.2351Z" fill="#1E1E1E"/>
<path d="M31.6133 49.3246H13.3282C12.5952 49.3246 12.0166 48.7459 12.0166 48.0129C12.0166 47.2799 12.5952 46.7012 13.3282 46.7012H31.594C32.3077 46.7012 32.9056 47.2799 32.9056 48.0129C32.9056 48.7459 32.327 49.3246 31.594 49.3246H31.6133Z" fill="#1E1E1E"/>
<path d="M36.7823 49.3249C36.4351 49.3249 36.1072 49.1899 35.8565 48.9391C35.6057 48.6884 35.4707 48.3604 35.4707 48.0132C35.4707 47.666 35.6057 47.338 35.8565 47.0873C36.3387 46.605 37.2259 46.605 37.7081 47.0873C37.9589 47.338 38.0939 47.666 38.0939 48.0132C38.0939 48.3604 37.9589 48.6884 37.7081 48.9391C37.4574 49.1899 37.1295 49.3249 36.7823 49.3249Z" fill="#1E1E1E"/>
<path d="M59.2916 53.5495C58.9444 53.5495 58.6165 53.4145 58.3657 53.1637C58.115 52.913 57.98 52.585 57.98 52.2378C57.98 51.8906 58.115 51.5627 58.3657 51.3119C58.8479 50.8296 59.7352 50.8296 60.2174 51.3119C60.4681 51.5627 60.6032 51.8906 60.6032 52.2378C60.6032 52.585 60.4681 52.913 60.2174 53.1637C59.9667 53.4145 59.6388 53.5495 59.2916 53.5495Z" fill="#1E1E1E"/>
<path d="M66.6597 53.5495C66.3125 53.5495 65.9847 53.4145 65.7339 53.1637C65.4832 52.913 65.3481 52.585 65.3481 52.2378C65.3481 51.8906 65.4832 51.5627 65.7339 51.3119C66.2161 50.8296 67.1034 50.8296 67.5856 51.3119C67.8363 51.5627 67.9713 51.8906 67.9713 52.2378C67.9713 52.585 67.8363 52.9323 67.5856 53.1637C67.3348 53.4145 67.0069 53.5495 66.6597 53.5495Z" fill="#1E1E1E"/>
<path d="M31.6133 82.6586H13.3282C12.5952 82.6586 12.0166 82.0799 12.0166 81.3469C12.0166 80.6139 12.5952 80.0352 13.3282 80.0352H31.594C32.3077 80.0352 32.9056 80.6139 32.9056 81.3469C32.9056 82.0799 32.327 82.6586 31.594 82.6586H31.6133Z" fill="#1E1E1E"/>
<path d="M36.7823 82.6589C36.4351 82.6589 36.1072 82.5239 35.8565 82.2731C35.6057 82.0223 35.4707 81.6944 35.4707 81.3472C35.4707 81 35.6057 80.6527 35.8565 80.4213C36.3387 79.939 37.2259 79.939 37.7081 80.4213C37.9589 80.672 38.0939 81 38.0939 81.3472C38.0939 81.6944 37.9589 82.0223 37.7081 82.2731C37.4574 82.5239 37.1295 82.6589 36.7823 82.6589Z" fill="#1E1E1E"/>
<path d="M106.065 100H50.5155C49.1074 100 47.8344 99.2672 47.1208 98.0519C46.4071 96.8366 46.3878 95.3706 47.0822 94.136L74.857 44.4447C75.5707 43.1908 76.8437 42.4385 78.2903 42.4385C79.7369 42.4385 81.0099 43.1908 81.7236 44.4447L109.498 94.136C110.193 95.3706 110.174 96.8366 109.46 98.0519C108.746 99.2672 107.473 100 106.065 100ZM78.2903 45.0619C78.0589 45.0619 77.4802 45.1198 77.1523 45.7371L49.3775 95.4285C49.0496 96.0264 49.281 96.528 49.3775 96.7209C49.4932 96.9138 49.8211 97.3767 50.5155 97.3767H106.065C106.74 97.3767 107.087 96.9331 107.203 96.7209C107.319 96.528 107.55 96.0072 107.203 95.4285L79.4283 45.7371C79.0811 45.1391 78.5218 45.0619 78.2903 45.0619Z" fill="#DE3412"/>
<path d="M79.9683 83.0638H76.5929C75.2427 83.0638 74.1626 81.9642 74.1626 80.6332V61.9025C74.1626 59.6263 76.0143 57.7744 78.271 57.7744C80.5277 57.7744 82.3986 59.6263 82.3986 61.9025V80.6332C82.3986 81.9835 81.2992 83.0638 79.9683 83.0638ZM76.7858 80.4403H79.7754V61.8832C79.7754 61.0537 79.1004 60.3786 78.271 60.3786C77.4416 60.3786 76.7665 61.0537 76.7665 61.8832V80.4403H76.7858Z" fill="#DE3412"/>
<path d="M79.9683 93.7886H76.5929C75.2427 93.7886 74.1626 92.6891 74.1626 91.3581V87.9823C74.1626 86.632 75.262 85.5518 76.5929 85.5518H79.9683C81.3185 85.5518 82.3986 86.6513 82.3986 87.9823V91.3581C82.3986 92.7084 81.2992 93.7886 79.9683 93.7886ZM76.7858 91.1652H79.7754V88.1752H76.7858V91.1652Z" fill="#DE3412"/>
</g>
<defs>
<clipPath id="clip0_3737_45127">
<rect width="110" height="100" fill="white"/>
</clipPath>
</defs>
</svg>
