<svg width="120" height="105" viewBox="0 0 120 105" fill="none" xmlns="http://www.w3.org/2000/svg">
<g clip-path="url(#clip0_2869_94001)">
<path d="M52.1781 6.61722L5.79108 86.9126C1.37301 94.5598 6.89532 104.119 15.7309 104.119H108.505C117.34 104.119 122.863 94.5598 118.445 86.9126L72.0583 6.61722C67.6402 -1.02996 56.5961 -1.02996 52.1781 6.61722Z" fill="#EB6053"/>
<path d="M65.8056 88.0627C67.8425 86.0271 67.8425 82.7268 65.8056 80.6912C63.7688 78.6556 60.4664 78.6556 58.4295 80.6912C56.3927 82.7268 56.3927 86.0271 58.4295 88.0627C60.4664 90.0983 63.7688 90.0983 65.8056 88.0627Z" fill="white"/>
<path d="M62.118 74.7081C60.225 74.7081 58.6636 73.2265 58.5653 71.3375L56.9095 39.4887C56.7545 36.5077 59.1313 34.0059 62.118 34.0059C65.1047 34.0059 67.4814 36.5077 67.3265 39.4887L65.6707 71.3375C65.5724 73.2265 64.011 74.7081 62.118 74.7081Z" fill="white"/>
<path d="M105.154 105H12.3799C7.91128 105 3.9098 102.691 1.67577 98.8239C-0.558264 94.9564 -0.558264 90.3385 1.67577 86.4716L48.0627 6.17614C50.2968 2.3087 54.2988 0 58.7669 0C63.2349 0 67.237 2.3087 69.471 6.17614L115.858 86.471C118.092 90.3385 118.092 94.9564 115.858 98.8233C113.624 102.691 109.622 104.999 105.154 104.999V105ZM48.827 6.6169L49.5913 7.05766L3.20382 87.3531C1.28862 90.6682 1.28862 94.6267 3.20382 97.9423C5.11902 101.257 8.54949 103.237 12.3799 103.237H105.154C108.984 103.237 112.415 101.257 114.33 97.9423C116.245 94.6272 116.245 90.6687 114.33 87.3531L67.9429 7.05821C66.0277 3.7431 62.5973 1.76358 58.7669 1.76358C54.9365 1.76358 51.506 3.7431 49.5908 7.05821L48.8265 6.61746L48.827 6.6169Z" fill="#5B5151"/>
<path d="M58.7668 90.4703C55.4041 90.4703 52.6685 87.7364 52.6685 84.3758C52.6685 81.0152 55.4041 78.2812 58.7668 78.2812C62.1295 78.2812 64.8651 81.0152 64.8651 84.3758C64.8651 87.7364 62.1295 90.4703 58.7668 90.4703ZM58.7668 80.0454C56.3772 80.0454 54.4331 81.9883 54.4331 84.3764C54.4331 86.7644 56.3772 88.7073 58.7668 88.7073C61.1563 88.7073 63.1004 86.7644 63.1004 84.3764C63.1004 81.9883 61.1563 80.0454 58.7668 80.0454Z" fill="#5B5151"/>
<path d="M58.7669 75.5894C56.4034 75.5894 54.456 73.7415 54.3333 71.3828L52.6775 39.5334C52.5897 37.8476 53.1818 36.2455 54.3449 35.0215C55.5081 33.7975 57.0783 33.123 58.7675 33.123C60.4566 33.123 62.0269 33.797 63.19 35.0215C64.3531 36.2455 64.9452 37.8481 64.8574 39.5334L63.2016 71.3828C63.0789 73.7415 61.1315 75.5894 58.768 75.5894H58.7669ZM58.7669 34.8866C57.5666 34.8866 56.4507 35.3657 55.6241 36.2355C54.7976 37.1054 54.3772 38.2439 54.4394 39.4419L56.0952 71.2907C56.169 72.7118 57.3427 73.8253 58.7669 73.8253C60.1911 73.8253 61.3642 72.7118 61.4386 71.2907L63.0944 39.4419C63.1566 38.2439 62.7362 37.1054 61.9096 36.2355C61.0831 35.3657 59.9672 34.8866 58.7669 34.8866Z" fill="#5B5151"/>
</g>
<defs>
<clipPath id="clip0_2869_94001">
<rect width="120" height="105" fill="white"/>
</clipPath>
</defs>
</svg>
