<svg width="110" height="104" viewBox="0 0 110 104" fill="none" xmlns="http://www.w3.org/2000/svg">
<g clip-path="url(#clip0_3736_45086)">
<path d="M108.852 1.15332H1.14832V11.569H108.852V1.15332Z" fill="white" stroke="#1E1E1E" stroke-width="2.5" stroke-linejoin="round"/>
<path d="M108.852 11.5693H1.14832V75.6502H108.852V11.5693Z" fill="white" stroke="#1E1E1E" stroke-width="2.5" stroke-linejoin="round"/>
<path d="M57.4436 31.3118C57.4436 27.3079 55.7533 23.6914 53.0524 21.1544C51.408 19.6137 48.7255 20.7577 48.7255 23.018V33.8211L43.6178 36.7825L38.5009 33.8211V23.018C38.5009 20.7669 35.8276 19.6045 34.1924 21.1359C31.2067 23.9221 29.4521 28.0182 29.8288 32.5111C30.2973 38.028 34.0821 42.6684 39.1164 44.4305L37.6465 96.675C37.5547 100.052 40.2463 102.838 43.6086 102.838C46.9709 102.838 49.6718 100.052 49.5707 96.675L48.1008 44.4213C53.5301 42.5485 57.4344 37.3914 57.4344 31.3025L57.4436 31.3118Z" fill="white" stroke="#0050CA" stroke-width="2.5" stroke-linejoin="round"/>
<path d="M43.6271 97.1728V93.6855" stroke="#0050CA" stroke-width="2.5" stroke-linejoin="round"/>
<path d="M73.9059 31.6534L71.297 20.4443H66.5751L63.9661 31.6534L66.5842 35.3252V67.3288H71.2878V35.3252L73.9059 31.6534Z" fill="white" stroke="#0050CA" stroke-width="2.5" stroke-linejoin="round"/>
<path d="M71.6369 64.7088H66.2351C64.9858 64.7088 63.9661 63.6848 63.9661 62.4301C63.9661 61.1754 64.9858 60.1514 66.2351 60.1514H71.6369C72.8862 60.1514 73.9059 61.1754 73.9059 62.4301C73.9059 63.6848 72.8862 64.7088 71.6369 64.7088Z" fill="white" stroke="#0050CA" stroke-width="2.5" stroke-linejoin="round"/>
<path d="M71.6369 101.925H66.2351C64.9858 101.925 63.9661 100.901 63.9661 99.6459C63.9661 98.3912 64.9858 97.3672 66.2351 97.3672H71.6369C72.8862 97.3672 73.9059 98.3912 73.9059 99.6459C73.9059 100.901 72.8862 101.925 71.6369 101.925Z" fill="white" stroke="#0050CA" stroke-width="2.5" stroke-linejoin="round"/>
<path d="M71.6369 64.709H66.2351C64.982 64.709 63.9661 65.7292 63.9661 66.9877V95.0888C63.9661 96.3473 64.982 97.3675 66.2351 97.3675H71.6369C72.89 97.3675 73.9059 96.3473 73.9059 95.0888V66.9877C73.9059 65.7292 72.89 64.709 71.6369 64.709Z" fill="white" stroke="#0050CA" stroke-width="2.5" stroke-linejoin="round"/>
<path d="M83.7999 6.35645H87.9706" stroke="#1E1E1E" stroke-width="2.5" stroke-linejoin="round"/>
<path d="M91.3605 6.35645H95.5312" stroke="#1E1E1E" stroke-width="2.5" stroke-linejoin="round"/>
<path d="M98.921 6.35645H103.092" stroke="#1E1E1E" stroke-width="2.5" stroke-linejoin="round"/>
<path d="M30.674 55.5107H9.35193V67.6793H30.674V55.5107Z" fill="white" stroke="#1E1E1E" stroke-width="2.5" stroke-linecap="square" stroke-linejoin="round"/>
<path d="M9.35193 55.5107L30.674 67.6793" stroke="#1E1E1E" stroke-width="2.5" stroke-linejoin="round"/>
<path d="M9.35193 67.6793L30.674 55.5107" stroke="#1E1E1E" stroke-width="2.5" stroke-linejoin="round"/>
<path d="M9.35193 49.1631H24.9507" stroke="#1E1E1E" stroke-width="2.5" stroke-linejoin="round"/>
<path d="M9.35193 43.6094H20.0175" stroke="#1E1E1E" stroke-width="2.5" stroke-linejoin="round"/>
<path d="M9.35193 38.0557H20.0175" stroke="#1E1E1E" stroke-width="2.5" stroke-linejoin="round"/>
<path d="M20.0175 19.4014H9.35193V31.1917H20.0175V19.4014Z" fill="white" stroke="#1E1E1E" stroke-width="2.5" stroke-linejoin="round"/>
<path d="M79.3352 67.6787H100.657V55.5102H79.3352V67.6787Z" fill="white" stroke="#1E1E1E" stroke-width="2.5" stroke-linecap="square" stroke-linejoin="round"/>
<path d="M100.657 55.5107L79.326 67.6793" stroke="#1E1E1E" stroke-width="2.5" stroke-linejoin="round"/>
<path d="M100.657 67.6793L79.326 55.5107" stroke="#1E1E1E" stroke-width="2.5" stroke-linejoin="round"/>
<path d="M100.657 49.1631H85.0585" stroke="#1E1E1E" stroke-width="2.5" stroke-linejoin="round"/>
<path d="M100.657 43.6094H89.9917" stroke="#1E1E1E" stroke-width="2.5" stroke-linejoin="round"/>
<path d="M100.657 38.0557H89.9917" stroke="#1E1E1E" stroke-width="2.5" stroke-linejoin="round"/>
<path d="M89.9825 31.1914H100.648V19.4011H89.9825V31.1914Z" fill="white" stroke="#1E1E1E" stroke-width="2.5" stroke-linejoin="round"/>
</g>
<defs>
<clipPath id="clip0_3736_45086">
<rect width="110" height="104" fill="white"/>
</clipPath>
</defs>
</svg>
