<svg width="25" height="25" viewBox="0 0 25 25" fill="none" xmlns="http://www.w3.org/2000/svg">
<path d="M5.57568 23.0357V4.19871C5.57568 2.76652 6.73943 1.60742 8.17736 1.60742H16.8232C18.2611 1.60742 19.4249 2.76652 19.4249 4.19871V23.0357" stroke="#0050CA" stroke-width="1.4" stroke-linecap="round" stroke-linejoin="round"/>
<path d="M9.76758 14.1387H15.5985" stroke="#0050CA" stroke-width="1.4" stroke-linecap="round" stroke-linejoin="round"/>
<path d="M9.76758 17.9492H15.5985" stroke="#0050CA" stroke-width="1.4" stroke-linecap="round" stroke-linejoin="round"/>
<path d="M5.33177 8.68945H3.71105C2.27312 8.68945 1.10938 9.84856 1.10938 11.2807V20.8085C1.10938 22.2406 2.27312 23.3997 3.71105 23.3997H21.2891C22.727 23.3997 23.8908 22.2406 23.8908 20.8085V11.2807C23.8908 9.84856 22.727 8.68945 21.2891 8.68945H19.8634" stroke="#0050CA" stroke-width="1.4" stroke-linecap="round" stroke-linejoin="round"/>
<path d="M12.5034 5.52148V9.3447" stroke="#0050CA" stroke-width="1.4" stroke-linecap="round" stroke-linejoin="round"/>
<path d="M10.584 7.43359H14.4225" stroke="#0050CA" stroke-width="1.4" stroke-linecap="round" stroke-linejoin="round"/>
</svg>
