<svg width="30" height="30" viewBox="0 0 30 30" fill="none" xmlns="http://www.w3.org/2000/svg">
<path d="M11.7596 18.2404C8.04432 14.5251 8.04432 8.50177 11.7596 4.78647C15.4749 1.07117 21.4982 1.07117 25.2135 4.78647C28.9288 8.50177 28.9288 14.5251 25.2135 18.2404C21.4982 21.9557 15.4749 21.9557 11.7596 18.2404Z" stroke="white" stroke-width="2" stroke-linecap="round" stroke-linejoin="round"/>
<path d="M11.7596 18.2404C8.04432 14.5251 8.04432 8.50177 11.7596 4.78647C15.4749 1.07117 21.4982 1.07117 25.2135 4.78647C28.9288 8.50177 28.9288 14.5251 25.2135 18.2404C21.4982 21.9557 15.4749 21.9557 11.7596 18.2404Z" stroke="white" stroke-width="2" stroke-linecap="round" stroke-linejoin="round"/>
<path d="M18.4863 6.38477C19.7951 6.38477 21.111 6.88436 22.1101 7.88355C23.1093 8.88274 23.6089 10.1986 23.6089 11.5074" stroke="white" stroke-width="2" stroke-linecap="round" stroke-linejoin="round"/>
<path d="M11.1968 18.8027L2 27.9995" stroke="white" stroke-width="2" stroke-linecap="round" stroke-linejoin="round"/>
</svg>
