<svg width="120" height="109" viewBox="0 0 120 109" fill="none" xmlns="http://www.w3.org/2000/svg">
<g clip-path="url(#clip0_2153_60827)">
<path d="M74.54 108.5H19.2022C8.61094 108.5 0 99.9004 0 89.3229V19.677C0 9.09964 8.61094 0.5 19.2022 0.5H74.54C85.1313 0.5 93.7422 9.09964 93.7422 19.677V89.331C93.7422 99.9084 85.1313 108.508 74.54 108.508V108.5Z" fill="#CCD0F0"/>
<path d="M74.54 108.436H19.2022C8.65102 108.436 0.0721436 99.8605 0.0721436 89.3232V19.6772C0.0721436 9.13988 8.65102 0.572266 19.2022 0.572266H74.54C85.0912 0.572266 93.6701 9.13988 93.6701 19.6772V89.3312C93.6701 99.8685 85.0912 108.436 74.54 108.436Z" fill="#CDD1F0"/>
<path d="M74.54 108.364H19.2022C8.69111 108.364 0.136292 99.8204 0.136292 89.3231V19.6772C0.136292 9.17982 8.69111 0.63623 19.2022 0.63623H74.54C85.0511 0.63623 93.6059 9.17982 93.6059 19.6772V89.3311C93.6059 99.8284 85.0511 108.372 74.54 108.372V108.364Z" fill="#CED2F1"/>
<path d="M74.54 108.3H19.2022C8.73118 108.3 0.208435 99.7881 0.208435 89.3308V19.6769C0.208435 9.21157 8.72317 0.708008 19.2022 0.708008H74.54C85.011 0.708008 93.5338 9.21957 93.5338 19.6769V89.3308C93.5338 99.7881 85.011 108.3 74.54 108.3Z" fill="#CFD3F1"/>
<path d="M74.54 108.228H19.2022C8.76326 108.228 0.272583 99.7484 0.272583 89.3232V19.6773C0.272583 9.252 8.76326 0.772461 19.2022 0.772461H74.54C84.9789 0.772461 93.4696 9.252 93.4696 19.6773V89.3312C93.4696 99.7564 84.9789 108.236 74.54 108.236V108.228Z" fill="#D0D4F1"/>
<path d="M74.54 108.164H19.2023C8.8034 108.164 0.344788 99.7161 0.344788 89.3309V19.677C0.344788 9.29175 8.8034 0.844238 19.2023 0.844238H74.54C84.9389 0.844238 93.3975 9.29175 93.3975 19.677V89.3309C93.3975 99.7161 84.9389 108.164 74.54 108.164Z" fill="#D1D5F1"/>
<path d="M74.54 108.091H19.2022C8.84343 108.091 0.408875 99.676 0.408875 89.3228V19.6769C0.408875 9.32368 8.84343 0.908203 19.2022 0.908203H74.54C84.8988 0.908203 93.3333 9.32368 93.3333 19.6689V89.3228C93.3333 99.668 84.9068 108.091 74.54 108.091Z" fill="#D2D6F2"/>
<path d="M74.54 108.02H19.2023C8.87555 108.02 0.481079 99.6282 0.481079 89.323V19.6771C0.481079 9.36392 8.87555 0.980469 19.2023 0.980469H74.54C84.8667 0.980469 93.2612 9.36392 93.2612 19.6771V89.331C93.2612 99.6442 84.8587 108.028 74.54 108.028V108.02Z" fill="#D3D6F2"/>
<path d="M74.54 107.955H19.2023C8.91564 107.955 0.545227 99.596 0.545227 89.3229V19.677C0.545227 9.40386 8.91564 1.04443 19.2023 1.04443H74.54C84.8266 1.04443 93.1971 9.40386 93.1971 19.669V89.3229C93.1971 99.596 84.8266 107.955 74.54 107.955Z" fill="#D4D7F2"/>
<path d="M74.54 107.884H19.2023C8.95572 107.884 0.617371 99.5562 0.617371 89.3231V19.6772C0.617371 9.4441 8.95572 1.1167 19.2023 1.1167H74.54C84.7865 1.1167 93.1249 9.4441 93.1249 19.6772V89.3311C93.1249 99.5642 84.7865 107.892 74.54 107.892V107.884Z" fill="#D5D8F3"/>
<path d="M74.54 107.819H19.2023C8.98779 107.819 0.681519 99.5241 0.681519 89.323V19.6771C0.681519 9.47604 8.98779 1.18066 19.2023 1.18066H74.54C84.7545 1.18066 93.0608 9.47604 93.0608 19.6691V89.323C93.0608 99.5241 84.7545 107.819 74.54 107.819Z" fill="#D6D9F3"/>
<path d="M74.54 107.747H19.2022C9.02787 107.747 0.753662 99.4838 0.753662 89.3227V19.6768C0.753662 9.51579 9.02787 1.25244 19.2022 1.25244H74.54C84.7144 1.25244 92.9886 9.51579 92.9886 19.6768V89.3307C92.9886 99.4918 84.7144 107.755 74.54 107.755V107.747Z" fill="#D7DAF3"/>
<path d="M74.54 107.683H19.2023C9.06796 107.683 0.81781 99.4441 0.81781 89.3231V19.6772C0.81781 9.55622 9.06796 1.31689 19.2023 1.31689H74.54C84.6743 1.31689 92.9244 9.54821 92.9244 19.6692V89.3231C92.9244 99.4441 84.6823 107.683 74.54 107.683Z" fill="#D8DBF4"/>
<path d="M74.54 107.611H19.2022C9.10803 107.611 0.889954 99.4038 0.889954 89.3228V19.6769C0.889954 9.58796 9.10002 1.38867 19.2022 1.38867H74.54C84.6342 1.38867 92.8523 9.59597 92.8523 19.6769V89.3308C92.8523 99.4118 84.6342 107.619 74.54 107.619V107.611Z" fill="#D9DCF4"/>
<path d="M74.54 107.547H19.2022C9.14011 107.547 0.954102 99.3717 0.954102 89.3227V19.6768C0.954102 9.6279 9.14011 1.45264 19.2022 1.45264H74.54C84.6021 1.45264 92.7801 9.6279 92.7801 19.6688V89.3227C92.7801 99.3717 84.5941 107.547 74.54 107.547Z" fill="#DADDF4"/>
<path d="M74.54 107.475H19.2022C9.18018 107.475 1.02625 99.3318 1.02625 89.3229V19.677C1.02625 9.66814 9.18018 1.5249 19.2022 1.5249H74.54C84.562 1.5249 92.716 9.66814 92.716 19.677V89.3309C92.716 99.3398 84.562 107.483 74.54 107.483V107.475Z" fill="#DBDEF4"/>
<path d="M74.54 107.411H19.2022C9.22028 107.411 1.09039 99.2997 1.09039 89.3228V19.6769C1.09039 9.70008 9.22028 1.58887 19.2022 1.58887H74.54C84.5219 1.58887 92.6438 9.70008 92.6438 19.6689V89.3228C92.6438 99.2917 84.5219 107.411 74.54 107.411Z" fill="#DCDFF5"/>
<path d="M74.54 107.339H19.2022C9.25233 107.339 1.16254 99.2599 1.16254 89.3231V19.6771C1.16254 9.74031 9.25233 1.66113 19.2022 1.66113H74.54C84.4899 1.66113 92.5797 9.74031 92.5797 19.6771V89.3311C92.5797 99.2679 84.4899 107.347 74.54 107.347V107.339Z" fill="#DDE0F5"/>
<path d="M74.54 107.275H19.2022C9.29243 107.275 1.22668 99.2198 1.22668 89.323V19.6771C1.22668 9.78026 9.29243 1.7251 19.2022 1.7251H74.54C84.4498 1.7251 92.5075 9.77225 92.5075 19.669V89.323C92.5075 99.2198 84.4498 107.275 74.54 107.275Z" fill="#DEE1F5"/>
<path d="M74.54 107.203H19.2022C9.3325 107.203 1.29883 99.1799 1.29883 89.3232V19.6773C1.29883 9.82049 9.3325 1.79736 19.2022 1.79736H74.54C84.4097 1.79736 92.4433 9.82049 92.4433 19.6773V89.3312C92.4433 99.1879 84.4097 107.211 74.54 107.211V107.203Z" fill="#DFE2F6"/>
<path d="M74.54 107.139H19.2023C9.36462 107.139 1.37104 99.1478 1.37104 89.3231V19.6772C1.36302 9.85243 9.36462 1.86133 19.2023 1.86133H74.54C84.3696 1.86133 92.3712 9.85243 92.3712 19.6692V89.3231C92.3712 99.1478 84.3696 107.139 74.54 107.139Z" fill="#E0E2F6"/>
<path d="M74.54 107.067H19.2023C9.40471 107.067 1.43518 99.1075 1.43518 89.3228V19.6769C1.43518 9.89218 9.40471 1.93311 19.2023 1.93311H74.54C84.3376 1.93311 92.3071 9.89218 92.3071 19.6769V89.3308C92.3071 99.1155 84.3376 107.075 74.54 107.075V107.067Z" fill="#E1E3F6"/>
<path d="M74.54 107.003H19.2023C9.44479 107.003 1.50732 99.0757 1.50732 89.331V19.6771C1.50732 9.93242 9.44479 2.00537 19.2023 2.00537H74.54C84.2975 2.00537 92.2349 9.93242 92.2349 19.6771V89.331C92.2349 99.0757 84.2975 107.003 74.54 107.003Z" fill="#E2E4F6"/>
<path d="M74.54 106.931H19.2023C9.48488 106.931 1.57147 99.0275 1.57147 89.3229V19.677C1.57147 9.96435 9.47687 2.06934 19.2023 2.06934H74.54C84.2574 2.06934 92.1708 9.96435 92.1708 19.677V89.3309C92.1708 99.0355 84.2654 106.939 74.54 106.939V106.931Z" fill="#E3E5F7"/>
<path d="M74.54 106.867H19.2022C9.51694 106.867 1.64362 98.9957 1.64362 89.3311V19.6772C1.64362 10.0046 9.51694 2.1416 19.2022 2.1416H74.54C84.2253 2.1416 92.0986 10.0046 92.0986 19.6772V89.3311C92.0986 99.0037 84.2173 106.867 74.54 106.867Z" fill="#E4E6F7"/>
<path d="M74.54 106.795H19.2023C9.55703 106.795 1.70776 98.9556 1.70776 89.323V19.6771C1.70776 10.0445 9.55703 2.20557 19.2023 2.20557H74.54C84.1852 2.20557 92.0345 10.0445 92.0345 19.6771V89.331C92.0345 98.9636 84.1852 106.803 74.54 106.803V106.795Z" fill="#E5E7F7"/>
<path d="M74.54 106.73H19.2022C9.59711 106.73 1.77991 98.9233 1.77991 89.3307V19.6768C1.77991 10.0763 9.59711 2.27734 19.2022 2.27734H74.54C84.1451 2.27734 91.9623 10.0843 91.9623 19.6768V89.3307C91.9623 98.9233 84.1451 106.73 74.54 106.73Z" fill="#E6E8F8"/>
<path d="M74.54 106.659H19.2022C9.62918 106.659 1.84406 98.8836 1.84406 89.3231V19.6772C1.84406 10.1167 9.62918 2.3418 19.2022 2.3418H74.54C84.113 2.3418 91.8982 10.1167 91.8982 19.6772V89.3311C91.8982 98.8916 84.113 106.667 74.54 106.667V106.659Z" fill="#E7E9F8"/>
<path d="M74.54 106.594H19.2022C9.66926 106.594 1.9162 98.8513 1.9162 89.3308V19.6769C1.9162 10.1565 9.66926 2.41357 19.2022 2.41357H74.54C84.0729 2.41357 91.826 10.1565 91.826 19.6769V89.3308C91.826 98.8513 84.0729 106.594 74.54 106.594Z" fill="#E8EAF8"/>
<path d="M74.54 106.522H19.2022C9.70935 106.522 1.98035 98.8032 1.98035 89.3227V19.6768C1.98035 10.1964 9.70935 2.47754 19.2022 2.47754H74.54C84.0329 2.47754 91.7619 10.1884 91.7619 19.6688V89.3227C91.7619 98.8032 84.0409 106.522 74.54 106.522Z" fill="#E9EBF9"/>
<path d="M74.54 106.458H19.2022C9.74141 106.458 2.05249 98.7713 2.05249 89.3309V19.677C2.05249 10.2286 9.74141 2.5498 19.2022 2.5498H74.54C83.9928 2.5498 91.6897 10.2366 91.6897 19.677V89.3309C91.6897 98.7793 83.9928 106.458 74.54 106.458Z" fill="#EAECF9"/>
<path d="M74.54 106.386H19.2022C9.7815 106.386 2.11664 98.7312 2.11664 89.3228V19.6769C2.11664 10.2686 9.7815 2.61377 19.2022 2.61377H74.54C83.9607 2.61377 91.6256 10.2686 91.6256 19.6689V89.3228C91.6256 98.7312 83.9607 106.386 74.54 106.386Z" fill="#EBEDF9"/>
<path d="M74.54 106.322H19.2023C9.82164 106.322 2.18884 98.6994 2.18884 89.331V19.6771C2.18884 10.3088 9.82164 2.68604 19.2023 2.68604H74.54C83.9207 2.68604 91.5534 10.3088 91.5534 19.6771V89.331C91.5534 98.6994 83.9207 106.322 74.54 106.322Z" fill="#ECEDF9"/>
<path d="M74.54 106.25H19.2022C9.86167 106.25 2.25293 98.6593 2.25293 89.323V19.677C2.25293 10.3407 9.85365 2.75 19.2022 2.75H74.54C83.8805 2.75 91.4893 10.3407 91.4893 19.669V89.323C91.4893 98.6512 83.8885 106.25 74.54 106.25Z" fill="#EDEEFA"/>
<path d="M74.54 106.186H19.2023C9.89379 106.186 2.32513 98.6274 2.32513 89.3312V19.6772C2.32513 10.381 9.89379 2.82227 19.2023 2.82227H74.54C83.8485 2.82227 91.4171 10.381 91.4171 19.6772V89.3312C91.4171 98.6274 83.8485 106.186 74.54 106.186Z" fill="#EEEFFA"/>
<path d="M74.54 106.114H19.2023C9.93388 106.114 2.38928 98.5793 2.38928 89.3231V19.6772C2.38928 10.4209 9.93388 2.88623 19.2023 2.88623H74.54C83.8084 2.88623 91.345 10.4129 91.345 19.6691V89.3231C91.345 98.5793 83.8084 106.114 74.54 106.114Z" fill="#EFF0FA"/>
<path d="M74.54 106.042H19.2023C9.97395 106.042 2.46143 98.539 2.46143 89.3228V19.6769C2.46143 10.4527 9.97395 2.95801 19.2023 2.95801H74.54C83.7683 2.95801 91.2808 10.4607 91.2808 19.6769V89.3308C91.2808 98.547 83.7683 106.05 74.54 106.05V106.042Z" fill="#F0F1FB"/>
<path d="M74.54 105.978H19.2023C10.006 105.978 2.52557 98.5073 2.52557 89.3232V19.6773C2.52557 10.4931 10.006 3.02246 19.2023 3.02246H74.54C83.7362 3.02246 91.2087 10.4931 91.2087 19.6693V89.3232C91.2087 98.5073 83.7282 105.978 74.54 105.978Z" fill="#F1F2FB"/>
<path d="M74.54 105.906H19.2022C10.0461 105.906 2.59772 98.467 2.59772 89.3229V19.677C2.59772 10.5329 10.0461 3.09424 19.2022 3.09424H74.54C83.6961 3.09424 91.1445 10.5329 91.1445 19.677V89.3309C91.1445 98.475 83.6961 105.914 74.54 105.914V105.906Z" fill="#F2F3FB"/>
<path d="M74.54 105.841H19.2023C10.0862 105.841 2.66187 98.4349 2.66187 89.3228V19.6769C2.66187 10.5728 10.0862 3.1582 19.2023 3.1582H74.54C83.6561 3.1582 91.0724 10.5648 91.0724 19.6689V89.3228C91.0724 98.4269 83.6561 105.841 74.54 105.841Z" fill="#F3F4FB"/>
<path d="M74.54 105.77H19.2022C10.1183 105.77 2.73401 98.387 2.73401 89.323V19.6771C2.73401 10.605 10.1183 3.23047 19.2022 3.23047H74.54C83.616 3.23047 91.0082 10.605 91.0082 19.6771V89.331C91.0082 98.4031 83.624 105.778 74.54 105.778V105.77Z" fill="#F4F5FC"/>
<path d="M74.54 105.706H19.2022C10.1583 105.706 2.80616 98.3552 2.80616 89.3232V19.6773C2.79814 10.6453 10.1583 3.30273 19.2022 3.30273H74.54C83.5839 3.30273 90.936 10.6453 90.936 19.6773V89.3312C90.936 98.3632 83.5759 105.714 74.54 105.714V105.706Z" fill="#F5F6FC"/>
<path d="M74.54 105.634H19.2022C10.1984 105.634 2.8703 98.3151 2.8703 89.3231V19.6772C2.8703 10.6852 10.1984 3.3667 19.2022 3.3667H74.54C83.5438 3.3667 90.8719 10.6852 90.8719 19.6772V89.3311C90.8719 98.3231 83.5438 105.642 74.54 105.642V105.634Z" fill="#F6F7FC"/>
<path d="M74.54 105.569H19.2022C10.2385 105.569 2.94245 98.2828 2.94245 89.3228V19.6769C2.93443 10.7169 10.2305 3.43848 19.2022 3.43848H74.54C83.5037 3.43848 90.7997 10.725 90.7997 19.6769V89.3308C90.7997 98.2828 83.5037 105.577 74.54 105.577V105.569Z" fill="#F7F8FD"/>
<path d="M74.54 105.497H19.2022C10.2706 105.497 3.00659 98.2427 3.00659 89.3227V19.6768C3.00659 10.7569 10.2706 3.50244 19.2022 3.50244H74.54C83.4716 3.50244 90.7356 10.7569 90.7356 19.6768V89.3307C90.7356 98.2507 83.4716 105.505 74.54 105.505V105.497Z" fill="#F8F9FD"/>
<path d="M74.54 105.433H19.2023C10.3107 105.433 3.0788 98.2108 3.0788 89.3309V19.677C3.0788 10.7971 10.3107 3.57471 19.2023 3.57471H74.54C83.4316 3.57471 90.6635 10.7971 90.6635 19.677V89.3309C90.6635 98.2108 83.4316 105.433 74.54 105.433Z" fill="#F9F9FD"/>
<path d="M74.54 105.361H19.2023C10.3508 105.361 3.14294 98.1627 3.14294 89.3228V19.6769C3.14294 10.8291 10.3508 3.63867 19.2023 3.63867H74.54C83.3915 3.63867 90.5993 10.8291 90.5993 19.6769V89.3308C90.5993 98.1707 83.3995 105.369 74.54 105.369V105.361Z" fill="#FAFAFE"/>
<path d="M74.54 105.297H19.2023C10.3829 105.297 3.21509 98.1309 3.21509 89.331V19.6771C3.21509 10.8693 10.3829 3.71094 19.2023 3.71094H74.54C83.3594 3.71094 90.5272 10.8693 90.5272 19.6771V89.331C90.5272 98.1389 83.3514 105.297 74.54 105.297Z" fill="#FBFBFE"/>
<path d="M74.54 105.225H19.2023C10.423 105.225 3.27924 98.0907 3.27924 89.3229V19.677C3.27924 10.9092 10.423 3.7749 19.2023 3.7749H74.54C83.3193 3.7749 90.463 10.9092 90.463 19.677V89.3309C90.463 98.0987 83.3193 105.233 74.54 105.233V105.225Z" fill="#FCFCFE"/>
<path d="M74.54 105.161H19.2023C10.463 105.161 3.35138 98.0589 3.35138 89.3311V19.6772C3.35138 10.9495 10.463 3.84717 19.2023 3.84717H74.54C83.2792 3.84717 90.3909 10.9495 90.3909 19.6772V89.3311C90.3909 98.0589 83.2792 105.161 74.54 105.161Z" fill="#FDFDFE"/>
<path d="M74.54 105.089H19.2023C10.4951 105.089 3.41553 98.0188 3.41553 89.323V19.6771C3.41553 10.9814 10.4951 3.91113 19.2023 3.91113H74.54C83.2391 3.91113 90.3267 10.9814 90.3267 19.6691V89.323C90.3267 98.0188 83.2472 105.089 74.54 105.089Z" fill="#FEFEFF"/>
<path d="M74.54 105.025H19.2022C10.5352 105.025 3.48767 97.9865 3.48767 89.3308V19.6769C3.48767 11.0212 10.5352 3.98291 19.2022 3.98291H74.54C83.2071 3.98291 90.2546 11.0212 90.2546 19.6769V89.3308C90.2546 97.9865 83.2071 105.025 74.54 105.025Z" fill="white"/>
<path d="M79.2463 46.917H30.2746V53.7951H79.2463V46.917Z" fill="#E3E7F7"/>
<path d="M79.2463 63.9321H30.2746V70.8102H79.2463V63.9321Z" fill="#E3E7F7"/>
<path d="M79.2463 80.9475H30.2746V87.8256H79.2463V80.9475Z" fill="#E3E7F7"/>
<path d="M26.3219 84.887C26.3219 89.0267 22.9625 92.3817 18.8174 92.3817C14.6723 92.3817 11.3129 89.0267 11.3129 84.887C11.3129 80.7473 14.6723 77.3923 18.8174 77.3923C22.9625 77.3923 26.3219 80.7473 26.3219 84.887Z" fill="url(#paint0_linear_2153_60827)"/>
<path d="M26.2898 84.8869C26.2898 89.0106 22.9385 92.3575 18.8094 92.3575C14.6803 92.3575 11.3289 89.0106 11.3289 84.8869C11.3289 80.7632 14.6723 77.4163 18.8094 77.4163C22.9465 77.4163 26.2898 80.7632 26.2898 84.8869Z" fill="url(#paint1_linear_2153_60827)"/>
<path d="M26.2658 84.8871C26.2658 88.9948 22.9305 92.3257 18.8174 92.3257C14.7044 92.3257 11.369 88.9948 11.369 84.8871C11.369 80.7794 14.7044 77.4485 18.8174 77.4485C22.9305 77.4485 26.2658 80.7794 26.2658 84.8871Z" fill="url(#paint2_linear_2153_60827)"/>
<path d="M26.2417 84.887C26.2417 88.9786 22.9144 92.3016 18.8174 92.3016C14.7204 92.3016 11.3931 88.9786 11.3931 84.887C11.3931 80.7954 14.7124 77.4724 18.8174 77.4724C22.9224 77.4724 26.2417 80.7954 26.2417 84.887Z" fill="url(#paint3_linear_2153_60827)"/>
<path d="M26.2096 84.8869C26.2096 88.9625 22.8983 92.2695 18.8093 92.2695C14.7203 92.2695 11.4091 88.9625 11.4091 84.8869C11.4091 80.8113 14.7203 77.4963 18.8093 77.4963C22.8983 77.4963 26.2096 80.8033 26.2096 84.8869Z" fill="url(#paint4_linear_2153_60827)"/>
<path d="M26.1856 84.8871C26.1856 88.9547 22.8903 92.2456 18.8174 92.2456C14.7444 92.2456 11.4492 88.9467 11.4492 84.8871C11.4492 80.8275 14.7444 77.5286 18.8174 77.5286C22.8903 77.5286 26.1856 80.8275 26.1856 84.8871Z" fill="url(#paint5_linear_2153_60827)"/>
<path d="M26.1535 84.887C26.1535 88.9386 22.8663 92.2215 18.8094 92.2215C14.7524 92.2215 11.4652 88.9386 11.4652 84.887C11.4652 80.8354 14.7524 77.5525 18.8094 77.5525C22.8663 77.5525 26.1535 80.8354 26.1535 84.887Z" fill="url(#paint6_linear_2153_60827)"/>
<path d="M26.1295 84.887C26.1295 88.9226 22.8583 92.1895 18.8174 92.1895C14.7765 92.1895 11.5053 88.9145 11.5053 84.887C11.5053 80.8594 14.7765 77.5845 18.8174 77.5845C22.8583 77.5845 26.1295 80.8594 26.1295 84.887Z" fill="url(#paint7_linear_2153_60827)"/>
<path d="M26.1054 84.8871C26.1054 88.9067 22.8422 92.1656 18.8174 92.1656C14.7925 92.1656 11.5294 88.9067 11.5294 84.8871C11.5294 80.8675 14.7925 77.6086 18.8174 77.6086C22.8422 77.6086 26.1054 80.8675 26.1054 84.8871Z" fill="url(#paint8_linear_2153_60827)"/>
<path d="M26.0733 84.887C26.0733 88.8906 22.8262 92.1415 18.8093 92.1415C14.7925 92.1415 11.5453 88.8906 11.5453 84.887C11.5453 80.8835 14.7925 77.6326 18.8093 77.6326C22.8262 77.6326 26.0733 80.8754 26.0733 84.887Z" fill="url(#paint9_linear_2153_60827)"/>
<path d="M26.0493 84.887C26.0493 88.8745 22.8101 92.1094 18.8174 92.1094C14.8246 92.1094 11.5854 88.8745 11.5854 84.887C11.5854 80.8994 14.8246 77.6646 18.8174 77.6646C22.8101 77.6646 26.0493 80.8994 26.0493 84.887Z" fill="url(#paint10_linear_2153_60827)"/>
<path d="M26.0252 84.8869C26.0252 88.8584 22.8021 92.0853 18.8174 92.0853C14.8326 92.0853 11.6095 88.8664 11.6095 84.8869C11.6095 80.9073 14.8326 77.6885 18.8174 77.6885C22.8021 77.6885 26.0252 80.9073 26.0252 84.8869Z" fill="url(#paint11_linear_2153_60827)"/>
<path d="M25.9932 84.887C25.9932 88.8505 22.7781 92.0614 18.8094 92.0614C14.8406 92.0614 11.6255 88.8505 11.6255 84.887C11.6255 80.9235 14.8406 77.7126 18.8094 77.7126C22.7781 77.7126 25.9932 80.9235 25.9932 84.887Z" fill="url(#paint12_linear_2153_60827)"/>
<path d="M25.9691 84.887C25.9691 88.8345 22.7701 92.0293 18.8174 92.0293C14.8647 92.0293 11.6656 88.8345 11.6656 84.887C11.6656 80.9395 14.8647 77.7446 18.8174 77.7446C22.7701 77.7446 25.9691 80.9395 25.9691 84.887Z" fill="url(#paint13_linear_2153_60827)"/>
<path d="M25.9451 84.8869C25.9451 88.8184 22.754 92.0052 18.8174 92.0052C14.8807 92.0052 11.6897 88.8184 11.6897 84.8869C11.6897 80.9554 14.8807 77.7686 18.8174 77.7686C22.754 77.7686 25.9451 80.9554 25.9451 84.8869Z" fill="url(#paint14_linear_2153_60827)"/>
<path d="M25.913 84.887C25.913 88.8025 22.738 91.9733 18.8174 91.9733C14.8967 91.9733 11.7217 88.8025 11.7217 84.887C11.7217 80.9716 14.8967 77.7927 18.8174 77.7927C22.738 77.7927 25.913 80.9635 25.913 84.887Z" fill="url(#paint15_linear_2153_60827)"/>
<path d="M25.8889 84.887C25.8889 88.7865 22.7219 91.9493 18.8173 91.9493C14.9128 91.9493 11.7458 88.7865 11.7458 84.887C11.7458 80.9875 14.9128 77.8247 18.8173 77.8247C22.7219 77.8247 25.8889 80.9875 25.8889 84.887Z" fill="url(#paint16_linear_2153_60827)"/>
<path d="M25.8568 84.8869C25.8568 88.7703 22.7059 91.9251 18.8093 91.9251C14.9128 91.9251 11.7618 88.7783 11.7618 84.8869C11.7618 80.9954 14.9128 77.8486 18.8093 77.8486C22.7059 77.8486 25.8568 80.9954 25.8568 84.8869Z" fill="url(#paint17_linear_2153_60827)"/>
<path d="M25.8328 84.8871C25.8328 88.7545 22.6899 91.8933 18.8174 91.8933C14.9449 91.8933 11.8019 88.7545 11.8019 84.8871C11.8019 81.0196 14.9449 77.8809 18.8174 77.8809C22.6899 77.8809 25.8328 81.0196 25.8328 84.8871Z" fill="url(#paint18_linear_2153_60827)"/>
<path d="M25.8088 84.887C25.8088 88.7464 22.6819 91.8692 18.8174 91.8692C14.9529 91.8692 11.826 88.7464 11.826 84.887C11.826 81.0276 14.9529 77.9048 18.8174 77.9048C22.6819 77.9048 25.8088 81.0276 25.8088 84.887Z" fill="url(#paint19_linear_2153_60827)"/>
<path d="M25.7767 84.8869C25.7767 88.7303 22.6578 91.8451 18.8094 91.8451C14.9609 91.8451 11.842 88.7303 11.842 84.8869C11.842 81.0435 14.9609 77.9287 18.8094 77.9287C22.6578 77.9287 25.7767 81.0435 25.7767 84.8869Z" fill="url(#paint20_linear_2153_60827)"/>
<path d="M25.7527 84.8871C25.7527 88.7145 22.6498 91.8133 18.8174 91.8133C14.985 91.8133 11.8821 88.7145 11.8821 84.8871C11.8821 81.0597 14.985 77.9609 18.8174 77.9609C22.6498 77.9609 25.7527 81.0597 25.7527 84.8871Z" fill="url(#paint21_linear_2153_60827)"/>
<path d="M25.7286 84.887C25.7286 88.6984 22.6338 91.7891 18.8174 91.7891C15.001 91.7891 11.9062 88.6984 11.9062 84.887C11.9062 81.0756 15.001 77.9849 18.8174 77.9849C22.6338 77.9849 25.7286 81.0756 25.7286 84.887Z" fill="url(#paint22_linear_2153_60827)"/>
<path d="M25.6965 84.8869C25.6965 88.6823 22.6177 91.757 18.8094 91.757C15.001 91.757 11.9302 88.6823 11.9302 84.8869C11.9302 81.0915 15.009 78.0088 18.8094 78.0088C22.6097 78.0088 25.6965 81.0835 25.6965 84.8869Z" fill="url(#paint23_linear_2153_60827)"/>
<path d="M25.6724 84.8871C25.6724 88.6665 22.6017 91.7332 18.8174 91.7332C15.033 91.7332 11.9623 88.6665 11.9623 84.8871C11.9623 81.1077 15.033 78.041 18.8174 78.041C22.6017 78.041 25.6724 81.1077 25.6724 84.8871Z" fill="url(#paint24_linear_2153_60827)"/>
<path d="M25.6404 84.887C25.6404 88.6503 22.5857 91.7091 18.8094 91.7091C15.0331 91.7091 11.9783 88.6584 11.9783 84.887C11.9783 81.1157 15.0331 78.0649 18.8094 78.0649C22.5857 78.0649 25.6404 81.1157 25.6404 84.887Z" fill="url(#paint25_linear_2153_60827)"/>
<path d="M25.6163 84.887C25.6163 88.6343 22.5696 91.677 18.8174 91.677C15.0651 91.677 12.0184 88.6343 12.0184 84.887C12.0184 81.1396 15.0651 78.0969 18.8174 78.0969C22.5696 78.0969 25.6163 81.1396 25.6163 84.887Z" fill="url(#paint26_linear_2153_60827)"/>
<path d="M25.5923 84.8871C25.5923 88.6264 22.5616 91.6531 18.8174 91.6531C15.0731 91.6531 12.0425 88.6264 12.0425 84.8871C12.0425 81.1478 15.0731 78.1211 18.8174 78.1211C22.5616 78.1211 25.5923 81.1478 25.5923 84.8871Z" fill="url(#paint27_linear_2153_60827)"/>
<path d="M25.5602 84.887C25.5602 88.6103 22.5376 91.629 18.8094 91.629C15.0812 91.629 12.0585 88.6103 12.0585 84.887C12.0585 81.1637 15.0812 78.145 18.8094 78.145C22.5376 78.145 25.5602 81.1637 25.5602 84.887Z" fill="url(#paint28_linear_2153_60827)"/>
<path d="M25.5361 84.887C25.5361 88.5943 22.5295 91.5969 18.8174 91.5969C15.1052 91.5969 12.0986 88.5943 12.0986 84.887C12.0986 81.1797 15.1052 78.177 18.8174 78.177C22.5295 78.177 25.5361 81.1797 25.5361 84.887Z" fill="url(#paint29_linear_2153_60827)"/>
<path d="M25.5121 84.8871C25.5121 88.5784 22.5135 91.5731 18.8173 91.5731C15.1212 91.5731 12.1226 88.5784 12.1226 84.8871C12.1226 81.1958 15.1212 78.2012 18.8173 78.2012C22.5135 78.2012 25.5121 81.1958 25.5121 84.8871Z" fill="url(#paint30_linear_2153_60827)"/>
<path d="M25.48 84.887C25.48 88.5623 22.4975 91.5489 18.8093 91.5489C15.1212 91.5489 12.1387 88.5703 12.1387 84.887C12.1387 81.2037 15.1212 78.2251 18.8093 78.2251C22.4975 78.2251 25.48 81.2037 25.48 84.887Z" fill="url(#paint31_linear_2153_60827)"/>
<path d="M25.456 84.887C25.456 88.5462 22.4814 91.5169 18.8174 91.5169C15.1533 91.5169 12.1788 88.5462 12.1788 84.887C12.1788 81.2277 15.1533 78.2571 18.8174 78.2571C22.4814 78.2571 25.456 81.2277 25.456 84.887Z" fill="url(#paint32_linear_2153_60827)"/>
<path d="M25.4319 84.8869C25.4319 88.5301 22.4734 91.4927 18.8174 91.4927C15.1613 91.4927 12.2028 88.5381 12.2028 84.8869C12.2028 81.2356 15.1613 78.281 18.8174 78.281C22.4734 78.281 25.4319 81.2356 25.4319 84.8869Z" fill="url(#paint33_linear_2153_60827)"/>
<path d="M25.3999 84.8871C25.3999 88.5223 22.4494 91.4609 18.8174 91.4609C15.1854 91.4609 12.2349 88.5143 12.2349 84.8871C12.2349 81.2599 15.1854 78.3132 18.8174 78.3132C22.4494 78.3132 25.3999 81.2599 25.3999 84.8871Z" fill="url(#paint34_linear_2153_60827)"/>
<path d="M25.3758 84.887C25.3758 88.5062 22.4414 91.4368 18.8174 91.4368C15.1934 91.4368 12.259 88.5062 12.259 84.887C12.259 81.2678 15.1934 78.3372 18.8174 78.3372C22.4414 78.3372 25.3758 81.2678 25.3758 84.887Z" fill="url(#paint35_linear_2153_60827)"/>
<path d="M25.3437 84.8869C25.3437 88.4901 22.4173 91.4127 18.8093 91.4127C15.2014 91.4127 12.275 88.4901 12.275 84.8869C12.275 81.2837 15.2014 78.3611 18.8093 78.3611C22.4173 78.3611 25.3437 81.2837 25.3437 84.8869Z" fill="url(#paint36_linear_2153_60827)"/>
<path d="M25.3197 84.8871C25.3197 88.4743 22.4093 91.3809 18.8174 91.3809C15.2255 91.3809 12.3151 88.4743 12.3151 84.8871C12.3151 81.2999 15.2255 78.3933 18.8174 78.3933C22.4093 78.3933 25.3197 81.2999 25.3197 84.8871Z" fill="url(#paint37_linear_2153_60827)"/>
<path d="M25.2956 84.887C25.2956 88.4582 22.3932 91.3567 18.8174 91.3567C15.2415 91.3567 12.3391 88.4582 12.3391 84.887C12.3391 81.3158 15.2415 78.4172 18.8174 78.4172C22.3932 78.4172 25.2956 81.3158 25.2956 84.887Z" fill="url(#paint38_linear_2153_60827)"/>
<path d="M25.2636 84.8869C25.2636 88.4421 22.3772 91.3326 18.8094 91.3326C15.2415 91.3326 12.3552 88.4501 12.3552 84.8869C12.3552 81.3237 15.2415 78.4412 18.8094 78.4412C22.3772 78.4412 25.2636 81.3237 25.2636 84.8869Z" fill="url(#paint39_linear_2153_60827)"/>
<path d="M25.2395 84.8871C25.2395 88.4262 22.3612 91.3008 18.8174 91.3008C15.2736 91.3008 12.3953 88.4262 12.3953 84.8871C12.3953 81.3479 15.2736 78.4734 18.8174 78.4734C22.3612 78.4734 25.2395 81.3479 25.2395 84.8871Z" fill="url(#paint40_linear_2153_60827)"/>
<path d="M25.2155 84.887C25.2155 88.4181 22.3532 91.2767 18.8174 91.2767C15.2816 91.2767 12.4193 88.4181 12.4193 84.887C12.4193 81.3559 15.2816 78.4973 18.8174 78.4973C22.3532 78.4973 25.2155 81.3559 25.2155 84.887Z" fill="url(#paint41_linear_2153_60827)"/>
<path d="M25.1834 84.8869C25.1834 88.402 22.3291 91.2445 18.8174 91.2445C15.3056 91.2445 12.4514 88.394 12.4514 84.8869C12.4514 81.3798 15.3056 78.5212 18.8174 78.5212C22.3291 78.5212 25.1834 81.3718 25.1834 84.8869Z" fill="url(#paint42_linear_2153_60827)"/>
<path d="M25.1593 84.8871C25.1593 88.3862 22.3211 91.2207 18.8174 91.2207C15.3136 91.2207 12.4754 88.3862 12.4754 84.8871C12.4754 81.388 15.3136 78.5535 18.8174 78.5535C22.3211 78.5535 25.1593 81.388 25.1593 84.8871Z" fill="url(#paint43_linear_2153_60827)"/>
<path d="M25.1273 84.887C25.1273 88.3701 22.297 91.1966 18.8094 91.1966C15.3217 91.1966 12.4915 88.3701 12.4915 84.887C12.4915 81.4039 15.3217 78.5774 18.8094 78.5774C22.297 78.5774 25.1273 81.4039 25.1273 84.887Z" fill="url(#paint44_linear_2153_60827)"/>
<path d="M25.1032 84.887C25.1032 88.354 22.289 91.1645 18.8174 91.1645C15.3457 91.1645 12.5316 88.354 12.5316 84.887C12.5316 81.4199 15.3457 78.6094 18.8174 78.6094C22.289 78.6094 25.1032 81.4199 25.1032 84.887Z" fill="url(#paint45_linear_2153_60827)"/>
<path d="M25.0792 84.8871C25.0792 88.3382 22.273 91.1407 18.8174 91.1407C15.3618 91.1407 12.5556 88.3382 12.5556 84.8871C12.5556 81.436 15.3618 78.6335 18.8174 78.6335C22.273 78.6335 25.0792 81.436 25.0792 84.8871Z" fill="url(#paint46_linear_2153_60827)"/>
<path d="M25.0471 84.887C25.0471 88.3221 22.257 91.1165 18.8094 91.1165C15.3618 91.1165 12.5717 88.3301 12.5717 84.887C12.5717 81.4439 15.3618 78.6575 18.8094 78.6575C22.257 78.6575 25.0471 81.4439 25.0471 84.887Z" fill="url(#paint47_linear_2153_60827)"/>
<path d="M25.023 84.887C25.023 88.314 22.2409 91.0845 18.8173 91.0845C15.3938 91.0845 12.6117 88.306 12.6117 84.887C12.6117 81.4679 15.3938 78.6895 18.8173 78.6895C22.2409 78.6895 25.023 81.4679 25.023 84.887Z" fill="url(#paint48_linear_2153_60827)"/>
<path d="M24.999 84.8871C24.999 88.2981 22.2329 91.0606 18.8174 91.0606C15.4019 91.0606 12.6358 88.2981 12.6358 84.8871C12.6358 81.4761 15.4019 78.7136 18.8174 78.7136C22.2329 78.7136 24.999 81.4761 24.999 84.8871Z" fill="url(#paint49_linear_2153_60827)"/>
<path d="M24.9669 84.887C24.9669 88.282 22.2088 91.0365 18.8093 91.0365C15.4099 91.0365 12.6518 88.282 12.6518 84.887C12.6518 81.492 15.4099 78.7375 18.8093 78.7375C22.2088 78.7375 24.9669 81.492 24.9669 84.887Z" fill="url(#paint50_linear_2153_60827)"/>
<path d="M24.9428 84.887C24.9428 88.266 22.2008 91.0044 18.8174 91.0044C15.4339 91.0044 12.6919 88.266 12.6919 84.887C12.6919 81.508 15.4339 78.7695 18.8174 78.7695C22.2008 78.7695 24.9428 81.508 24.9428 84.887Z" fill="url(#paint51_linear_2153_60827)"/>
<path d="M18.3363 87.4572C17.7991 87.4572 17.2539 87.2491 16.837 86.8407L15.3537 85.3594C15.0491 85.0551 15.0491 84.5507 15.3537 84.2464C15.6584 83.9421 16.1635 83.9421 16.4682 84.2464L17.9515 85.7277C18.0557 85.8318 18.192 85.8878 18.3363 85.8878C18.4726 85.8878 18.6089 85.8398 18.7131 85.7277L20.1964 84.2464L21.6797 82.7651C21.9843 82.4608 22.4894 82.4608 22.7941 82.7651C23.1068 83.0693 23.1068 83.5738 22.7941 83.8781L21.3109 85.3594L19.8276 86.8407C19.4187 87.2491 18.8735 87.4572 18.3363 87.4572Z" fill="white"/>
<path d="M23.0747 50.1282C23.0747 52.4743 21.1665 54.38 18.8174 54.38C16.4682 54.38 14.56 52.4743 14.56 50.1282C14.56 47.7822 16.4682 45.8765 18.8174 45.8765C21.1665 45.8765 23.0747 47.7742 23.0747 50.1282Z" fill="url(#paint52_linear_2153_60827)"/>
<path d="M118.156 53.5311C120.69 50.8807 120.593 46.677 117.939 44.1387L112.223 38.6779C109.561 36.1396 105.352 36.2437 102.818 38.8941L78.5729 64.2286L93.9106 78.8656L118.156 53.5391V53.5311Z" fill="url(#paint53_linear_2153_60827)"/>
<path d="M118.156 53.5311C120.69 50.8807 120.593 46.677 117.939 44.1387L112.223 38.6779C109.561 36.1396 105.352 36.2437 102.818 38.8941L78.5729 64.2286L93.9106 78.8656L118.156 53.5391V53.5311Z" fill="url(#paint54_linear_2153_60827)"/>
<path d="M93.9186 78.8655L86.2457 71.539L78.5809 64.2285L76.0233 74.9661L83.2872 81.9002L93.9186 78.8655Z" fill="url(#paint55_linear_2153_60827)"/>
<path d="M83.2872 81.9L76.0233 74.9658L73.7302 84.6304L83.2872 81.9Z" fill="url(#paint56_linear_2153_60827)"/>
<path d="M23.0747 67.5037C23.0747 69.8498 21.1665 71.7555 18.8174 71.7555C16.4682 71.7555 14.56 69.8498 14.56 67.5037C14.56 65.1576 16.4682 63.252 18.8174 63.252C21.1665 63.252 23.0747 65.1496 23.0747 67.5037Z" fill="url(#paint57_linear_2153_60827)"/>
<path d="M56.813 32.3124C56.813 36.5562 52.2269 36.1478 46.5585 36.1478C40.89 36.1478 36.3039 36.4841 36.3039 32.3124C36.3039 26.6514 40.898 22.0713 46.5585 22.0713C52.2189 22.0713 56.813 26.6514 56.813 32.3124Z" fill="url(#paint58_linear_2153_60827)"/>
<path d="M52.4193 19.0604C52.4193 22.2953 49.7976 24.9216 46.5504 24.9216C43.3033 24.9216 40.6815 22.2953 40.6815 19.0604C40.6815 15.8256 43.3113 13.1992 46.5504 13.1992C49.7896 13.1992 52.4193 15.8175 52.4193 19.0604Z" fill="url(#paint59_linear_2153_60827)"/>
</g>
<defs>
<linearGradient id="paint0_linear_2153_60827" x1="14.8166" y1="78.2731" x2="26.4678" y2="97.5758" gradientUnits="userSpaceOnUse">
<stop stop-color="#A3A8F7"/>
<stop offset="1" stop-color="#5C63F2"/>
</linearGradient>
<linearGradient id="paint1_linear_2153_60827" x1="14.9128" y1="78.273" x2="26.2997" y2="97.5993" gradientUnits="userSpaceOnUse">
<stop stop-color="#A3A8F7"/>
<stop offset="1" stop-color="#5C63F2"/>
</linearGradient>
<linearGradient id="paint2_linear_2153_60827" x1="15.001" y1="78.2732" x2="26.1316" y2="97.615" gradientUnits="userSpaceOnUse">
<stop stop-color="#A3A8F7"/>
<stop offset="1" stop-color="#5C63F2"/>
</linearGradient>
<linearGradient id="paint3_linear_2153_60827" x1="15.0972" y1="78.2811" x2="25.9555" y2="97.6305" gradientUnits="userSpaceOnUse">
<stop stop-color="#A3A8F7"/>
<stop offset="1" stop-color="#5C63F2"/>
</linearGradient>
<linearGradient id="paint4_linear_2153_60827" x1="15.1934" y1="78.281" x2="25.7873" y2="97.646" gradientUnits="userSpaceOnUse">
<stop stop-color="#A3A8F7"/>
<stop offset="1" stop-color="#5C63F2"/>
</linearGradient>
<linearGradient id="paint5_linear_2153_60827" x1="15.2896" y1="78.2892" x2="25.6192" y2="97.6617" gradientUnits="userSpaceOnUse">
<stop stop-color="#A3A8F7"/>
<stop offset="1" stop-color="#5C63F2"/>
</linearGradient>
<linearGradient id="paint6_linear_2153_60827" x1="15.3778" y1="78.2972" x2="25.4512" y2="97.6692" gradientUnits="userSpaceOnUse">
<stop stop-color="#A3A8F7"/>
<stop offset="1" stop-color="#5C63F2"/>
</linearGradient>
<linearGradient id="paint7_linear_2153_60827" x1="15.474" y1="78.3051" x2="25.2832" y2="97.6767" gradientUnits="userSpaceOnUse">
<stop stop-color="#A3A8F7"/>
<stop offset="1" stop-color="#5C63F2"/>
</linearGradient>
<linearGradient id="paint8_linear_2153_60827" x1="15.5702" y1="78.3133" x2="25.1151" y2="97.6764" gradientUnits="userSpaceOnUse">
<stop stop-color="#A3A8F7"/>
<stop offset="1" stop-color="#5C63F2"/>
</linearGradient>
<linearGradient id="paint9_linear_2153_60827" x1="15.6584" y1="78.3212" x2="24.947" y2="97.6839" gradientUnits="userSpaceOnUse">
<stop stop-color="#A3A8F7"/>
<stop offset="1" stop-color="#5C63F2"/>
</linearGradient>
<linearGradient id="paint10_linear_2153_60827" x1="15.7466" y1="78.3291" x2="24.779" y2="97.6834" gradientUnits="userSpaceOnUse">
<stop stop-color="#A3A8F7"/>
<stop offset="1" stop-color="#5C63F2"/>
</linearGradient>
<linearGradient id="paint11_linear_2153_60827" x1="15.8428" y1="78.3451" x2="24.619" y2="97.6829" gradientUnits="userSpaceOnUse">
<stop stop-color="#A3A8F7"/>
<stop offset="1" stop-color="#5C63F2"/>
</linearGradient>
<linearGradient id="paint12_linear_2153_60827" x1="15.931" y1="78.3532" x2="24.4511" y2="97.6827" gradientUnits="userSpaceOnUse">
<stop stop-color="#A3A8F7"/>
<stop offset="1" stop-color="#5C63F2"/>
</linearGradient>
<linearGradient id="paint13_linear_2153_60827" x1="16.0192" y1="78.3692" x2="24.2911" y2="97.6742" gradientUnits="userSpaceOnUse">
<stop stop-color="#A3A8F7"/>
<stop offset="1" stop-color="#5C63F2"/>
</linearGradient>
<linearGradient id="paint14_linear_2153_60827" x1="16.1074" y1="78.3851" x2="24.1231" y2="97.6737" gradientUnits="userSpaceOnUse">
<stop stop-color="#A3A8F7"/>
<stop offset="1" stop-color="#5C63F2"/>
</linearGradient>
<linearGradient id="paint15_linear_2153_60827" x1="16.1956" y1="78.4013" x2="23.9631" y2="97.6655" gradientUnits="userSpaceOnUse">
<stop stop-color="#A3A8F7"/>
<stop offset="1" stop-color="#5C63F2"/>
</linearGradient>
<linearGradient id="paint16_linear_2153_60827" x1="16.2758" y1="78.4172" x2="23.8032" y2="97.649" gradientUnits="userSpaceOnUse">
<stop stop-color="#A3A8F7"/>
<stop offset="1" stop-color="#5C63F2"/>
</linearGradient>
<linearGradient id="paint17_linear_2153_60827" x1="16.364" y1="78.4332" x2="23.6433" y2="97.6406" gradientUnits="userSpaceOnUse">
<stop stop-color="#A3A8F7"/>
<stop offset="1" stop-color="#5C63F2"/>
</linearGradient>
<linearGradient id="paint18_linear_2153_60827" x1="16.4522" y1="78.4494" x2="23.4834" y2="97.6244" gradientUnits="userSpaceOnUse">
<stop stop-color="#A3A8F7"/>
<stop offset="1" stop-color="#5C63F2"/>
</linearGradient>
<linearGradient id="paint19_linear_2153_60827" x1="16.5323" y1="78.4733" x2="23.3235" y2="97.6079" gradientUnits="userSpaceOnUse">
<stop stop-color="#A3A8F7"/>
<stop offset="1" stop-color="#5C63F2"/>
</linearGradient>
<linearGradient id="paint20_linear_2153_60827" x1="16.6206" y1="78.4892" x2="23.1636" y2="97.5915" gradientUnits="userSpaceOnUse">
<stop stop-color="#A3A8F7"/>
<stop offset="1" stop-color="#5C63F2"/>
</linearGradient>
<linearGradient id="paint21_linear_2153_60827" x1="16.7007" y1="78.5134" x2="23.0117" y2="97.5753" gradientUnits="userSpaceOnUse">
<stop stop-color="#A3A8F7"/>
<stop offset="1" stop-color="#5C63F2"/>
</linearGradient>
<linearGradient id="paint22_linear_2153_60827" x1="16.7809" y1="78.5374" x2="22.8518" y2="97.5509" gradientUnits="userSpaceOnUse">
<stop stop-color="#A3A8F7"/>
<stop offset="1" stop-color="#5C63F2"/>
</linearGradient>
<linearGradient id="paint23_linear_2153_60827" x1="16.8691" y1="78.5613" x2="22.7" y2="97.5264" gradientUnits="userSpaceOnUse">
<stop stop-color="#A3A8F7"/>
<stop offset="1" stop-color="#5C63F2"/>
</linearGradient>
<linearGradient id="paint24_linear_2153_60827" x1="16.9493" y1="78.5855" x2="22.5401" y2="97.5023" gradientUnits="userSpaceOnUse">
<stop stop-color="#A3A8F7"/>
<stop offset="1" stop-color="#5C63F2"/>
</linearGradient>
<linearGradient id="paint25_linear_2153_60827" x1="17.0294" y1="78.6094" x2="22.3882" y2="97.4779" gradientUnits="userSpaceOnUse">
<stop stop-color="#A3A8F7"/>
<stop offset="1" stop-color="#5C63F2"/>
</linearGradient>
<linearGradient id="paint26_linear_2153_60827" x1="17.1096" y1="78.6334" x2="22.2364" y2="97.4535" gradientUnits="userSpaceOnUse">
<stop stop-color="#A3A8F7"/>
<stop offset="1" stop-color="#5C63F2"/>
</linearGradient>
<linearGradient id="paint27_linear_2153_60827" x1="17.1818" y1="78.6576" x2="22.0845" y2="97.4214" gradientUnits="userSpaceOnUse">
<stop stop-color="#A3A8F7"/>
<stop offset="1" stop-color="#5C63F2"/>
</linearGradient>
<linearGradient id="paint28_linear_2153_60827" x1="17.262" y1="78.6895" x2="21.9407" y2="97.389" gradientUnits="userSpaceOnUse">
<stop stop-color="#A3A8F7"/>
<stop offset="1" stop-color="#5C63F2"/>
</linearGradient>
<linearGradient id="paint29_linear_2153_60827" x1="17.3421" y1="78.7135" x2="21.7888" y2="97.3567" gradientUnits="userSpaceOnUse">
<stop stop-color="#A3A8F7"/>
<stop offset="1" stop-color="#5C63F2"/>
</linearGradient>
<linearGradient id="paint30_linear_2153_60827" x1="17.4143" y1="78.7457" x2="21.637" y2="97.3246" gradientUnits="userSpaceOnUse">
<stop stop-color="#A3A8F7"/>
<stop offset="1" stop-color="#5C63F2"/>
</linearGradient>
<linearGradient id="paint31_linear_2153_60827" x1="17.4945" y1="78.7776" x2="21.4932" y2="97.2842" gradientUnits="userSpaceOnUse">
<stop stop-color="#A3A8F7"/>
<stop offset="1" stop-color="#5C63F2"/>
</linearGradient>
<linearGradient id="paint32_linear_2153_60827" x1="17.5666" y1="78.8096" x2="21.3494" y2="97.2519" gradientUnits="userSpaceOnUse">
<stop stop-color="#A3A8F7"/>
<stop offset="1" stop-color="#5C63F2"/>
</linearGradient>
<linearGradient id="paint33_linear_2153_60827" x1="17.6388" y1="78.8335" x2="21.2056" y2="97.2116" gradientUnits="userSpaceOnUse">
<stop stop-color="#A3A8F7"/>
<stop offset="1" stop-color="#5C63F2"/>
</linearGradient>
<linearGradient id="paint34_linear_2153_60827" x1="17.711" y1="78.8657" x2="21.0618" y2="97.1716" gradientUnits="userSpaceOnUse">
<stop stop-color="#A3A8F7"/>
<stop offset="1" stop-color="#5C63F2"/>
</linearGradient>
<linearGradient id="paint35_linear_2153_60827" x1="17.7831" y1="78.8977" x2="20.918" y2="97.1232" gradientUnits="userSpaceOnUse">
<stop stop-color="#A3A8F7"/>
<stop offset="1" stop-color="#5C63F2"/>
</linearGradient>
<linearGradient id="paint36_linear_2153_60827" x1="17.8552" y1="78.9376" x2="20.7742" y2="97.0829" gradientUnits="userSpaceOnUse">
<stop stop-color="#A3A8F7"/>
<stop offset="1" stop-color="#5C63F2"/>
</linearGradient>
<linearGradient id="paint37_linear_2153_60827" x1="17.9274" y1="78.9698" x2="20.6384" y2="97.0349" gradientUnits="userSpaceOnUse">
<stop stop-color="#A3A8F7"/>
<stop offset="1" stop-color="#5C63F2"/>
</linearGradient>
<linearGradient id="paint38_linear_2153_60827" x1="17.9915" y1="79.0018" x2="20.5026" y2="96.9866" gradientUnits="userSpaceOnUse">
<stop stop-color="#A3A8F7"/>
<stop offset="1" stop-color="#5C63F2"/>
</linearGradient>
<linearGradient id="paint39_linear_2153_60827" x1="18.0637" y1="79.0417" x2="20.3588" y2="96.9384" gradientUnits="userSpaceOnUse">
<stop stop-color="#A3A8F7"/>
<stop offset="1" stop-color="#5C63F2"/>
</linearGradient>
<linearGradient id="paint40_linear_2153_60827" x1="18.1279" y1="79.0739" x2="20.2231" y2="96.8904" gradientUnits="userSpaceOnUse">
<stop stop-color="#A3A8F7"/>
<stop offset="1" stop-color="#5C63F2"/>
</linearGradient>
<linearGradient id="paint41_linear_2153_60827" x1="18.2" y1="79.1139" x2="20.0953" y2="96.8421" gradientUnits="userSpaceOnUse">
<stop stop-color="#A3A8F7"/>
<stop offset="1" stop-color="#5C63F2"/>
</linearGradient>
<linearGradient id="paint42_linear_2153_60827" x1="18.2641" y1="79.1458" x2="19.9595" y2="96.7859" gradientUnits="userSpaceOnUse">
<stop stop-color="#A3A8F7"/>
<stop offset="1" stop-color="#5C63F2"/>
</linearGradient>
<linearGradient id="paint43_linear_2153_60827" x1="18.3283" y1="79.186" x2="19.8237" y2="96.73" gradientUnits="userSpaceOnUse">
<stop stop-color="#A3A8F7"/>
<stop offset="1" stop-color="#5C63F2"/>
</linearGradient>
<linearGradient id="paint44_linear_2153_60827" x1="18.3924" y1="79.226" x2="19.6959" y2="96.6737" gradientUnits="userSpaceOnUse">
<stop stop-color="#A3A8F7"/>
<stop offset="1" stop-color="#5C63F2"/>
</linearGradient>
<linearGradient id="paint45_linear_2153_60827" x1="18.4566" y1="79.258" x2="19.5681" y2="96.6176" gradientUnits="userSpaceOnUse">
<stop stop-color="#A3A8F7"/>
<stop offset="1" stop-color="#5C63F2"/>
</linearGradient>
<linearGradient id="paint46_linear_2153_60827" x1="18.5127" y1="79.2981" x2="19.4403" y2="96.5616" gradientUnits="userSpaceOnUse">
<stop stop-color="#A3A8F7"/>
<stop offset="1" stop-color="#5C63F2"/>
</linearGradient>
<linearGradient id="paint47_linear_2153_60827" x1="18.5769" y1="79.3381" x2="19.3126" y2="96.5054" gradientUnits="userSpaceOnUse">
<stop stop-color="#A3A8F7"/>
<stop offset="1" stop-color="#5C63F2"/>
</linearGradient>
<linearGradient id="paint48_linear_2153_60827" x1="18.641" y1="79.3781" x2="19.1847" y2="96.4413" gradientUnits="userSpaceOnUse">
<stop stop-color="#A3A8F7"/>
<stop offset="1" stop-color="#5C63F2"/>
</linearGradient>
<linearGradient id="paint49_linear_2153_60827" x1="18.6971" y1="79.4182" x2="19.057" y2="96.3853" gradientUnits="userSpaceOnUse">
<stop stop-color="#A3A8F7"/>
<stop offset="1" stop-color="#5C63F2"/>
</linearGradient>
<linearGradient id="paint50_linear_2153_60827" x1="18.7532" y1="79.4662" x2="18.9371" y2="96.3212" gradientUnits="userSpaceOnUse">
<stop stop-color="#A3A8F7"/>
<stop offset="1" stop-color="#5C63F2"/>
</linearGradient>
<linearGradient id="paint51_linear_2153_60827" x1="18.8174" y1="79.5062" x2="18.8174" y2="96.2571" gradientUnits="userSpaceOnUse">
<stop stop-color="#A3A8F7"/>
<stop offset="1" stop-color="#5C63F2"/>
</linearGradient>
<linearGradient id="paint52_linear_2153_60827" x1="18.8174" y1="47.0055" x2="18.8174" y2="56.646" gradientUnits="userSpaceOnUse">
<stop stop-color="#A3A8F7"/>
<stop offset="1" stop-color="#5C63F2"/>
</linearGradient>
<linearGradient id="paint53_linear_2153_60827" x1="87.9622" y1="69.717" x2="124.836" y2="31.0799" gradientUnits="userSpaceOnUse">
<stop stop-color="#0592BB"/>
<stop offset="1" stop-color="#05CBBE"/>
</linearGradient>
<linearGradient id="paint54_linear_2153_60827" x1="112.784" y1="68.6885" x2="92.7664" y2="48.6445" gradientUnits="userSpaceOnUse">
<stop stop-color="#006EFB"/>
<stop offset="1" stop-color="#55DAFB"/>
</linearGradient>
<linearGradient id="paint55_linear_2153_60827" x1="87.5446" y1="79.4821" x2="68.7279" y2="60.6406" gradientUnits="userSpaceOnUse">
<stop offset="0.17" stop-color="#D3CFF7"/>
<stop offset="0.29" stop-color="#F0F0F8"/>
</linearGradient>
<linearGradient id="paint56_linear_2153_60827" x1="81.1305" y1="85.8875" x2="62.3138" y2="67.0461" gradientUnits="userSpaceOnUse">
<stop stop-color="#006EFB"/>
<stop offset="1" stop-color="#55DAFB"/>
</linearGradient>
<linearGradient id="paint57_linear_2153_60827" x1="18.8174" y1="64.389" x2="18.8174" y2="74.0295" gradientUnits="userSpaceOnUse">
<stop stop-color="#A3A8F7"/>
<stop offset="1" stop-color="#5C63F2"/>
</linearGradient>
<linearGradient id="paint58_linear_2153_60827" x1="46.5585" y1="23.953" x2="46.5585" y2="39.9111" gradientUnits="userSpaceOnUse">
<stop stop-color="#A3A8F7"/>
<stop offset="1" stop-color="#5C63F2"/>
</linearGradient>
<linearGradient id="paint59_linear_2153_60827" x1="46.5584" y1="14.7606" x2="46.5584" y2="28.0444" gradientUnits="userSpaceOnUse">
<stop stop-color="#A3A8F7"/>
<stop offset="1" stop-color="#5C63F2"/>
</linearGradient>
<clipPath id="clip0_2153_60827">
<rect width="120" height="108" fill="white" transform="translate(0 0.5)"/>
</clipPath>
</defs>
</svg>
