<svg width="24" height="25" viewBox="0 0 24 25" fill="none" xmlns="http://www.w3.org/2000/svg">
<path fill-rule="evenodd" clip-rule="evenodd" d="M20 4.5H4C3.73478 4.5 3.48043 4.60536 3.29289 4.79289C3.10536 4.98043 3 5.23478 3 5.5V19.5C3 19.7652 3.10536 20.0196 3.29289 20.2071C3.48043 20.3946 3.73478 20.5 4 20.5H20C20.2652 20.5 20.5196 20.3946 20.7071 20.2071C20.8946 20.0196 21 19.7652 21 19.5V5.5C21 5.23478 20.8946 4.98043 20.7071 4.79289C20.5196 4.60536 20.2652 4.5 20 4.5ZM4 2.5C3.20435 2.5 2.44129 2.81607 1.87868 3.37868C1.31607 3.94129 1 4.70435 1 5.5V19.5C1 20.2956 1.31607 21.0587 1.87868 21.6213C2.44129 22.1839 3.20435 22.5 4 22.5H20C20.7956 22.5 21.5587 22.1839 22.1213 21.6213C22.6839 21.0587 23 20.2956 23 19.5V5.5C23 4.70435 22.6839 3.94129 22.1213 3.37868C21.5587 2.81607 20.7956 2.5 20 2.5H4ZM6 7.5H8V9.5H6V7.5ZM11 7.5C10.7348 7.5 10.4804 7.60536 10.2929 7.79289C10.1054 7.98043 10 8.23478 10 8.5C10 8.76522 10.1054 9.01957 10.2929 9.20711C10.4804 9.39464 10.7348 9.5 11 9.5H17C17.2652 9.5 17.5196 9.39464 17.7071 9.20711C17.8946 9.01957 18 8.76522 18 8.5C18 8.23478 17.8946 7.98043 17.7071 7.79289C17.5196 7.60536 17.2652 7.5 17 7.5H11ZM8 11.5H6V13.5H8V11.5ZM10 12.5C10 12.2348 10.1054 11.9804 10.2929 11.7929C10.4804 11.6054 10.7348 11.5 11 11.5H17C17.2652 11.5 17.5196 11.6054 17.7071 11.7929C17.8946 11.9804 18 12.2348 18 12.5C18 12.7652 17.8946 13.0196 17.7071 13.2071C17.5196 13.3946 17.2652 13.5 17 13.5H11C10.7348 13.5 10.4804 13.3946 10.2929 13.2071C10.1054 13.0196 10 12.7652 10 12.5ZM8 15.5H6V17.5H8V15.5ZM10 16.5C10 16.2348 10.1054 15.9804 10.2929 15.7929C10.4804 15.6054 10.7348 15.5 11 15.5H17C17.2652 15.5 17.5196 15.6054 17.7071 15.7929C17.8946 15.9804 18 16.2348 18 16.5C18 16.7652 17.8946 17.0196 17.7071 17.2071C17.5196 17.3946 17.2652 17.5 17 17.5H11C10.7348 17.5 10.4804 17.3946 10.2929 17.2071C10.1054 17.0196 10 16.7652 10 16.5Z" fill="#0050CA"/>
</svg>
