<svg width="18" height="19" viewBox="0 0 18 19" fill="none" xmlns="http://www.w3.org/2000/svg">
<path d="M15.5514 12.2605V6.68226C15.5512 6.4377 15.4866 6.19752 15.3642 5.98579C15.2418 5.77406 15.0659 5.59824 14.8541 5.47596L9.97302 2.68684C9.76101 2.56444 9.52052 2.5 9.27571 2.5C9.03091 2.5 8.79042 2.56444 8.57841 2.68684L3.6973 5.47596C3.4855 5.59824 3.30959 5.77406 3.1872 5.98579C3.06481 6.19752 3.00025 6.4377 3 6.68226V12.2605C3.00025 12.5051 3.06481 12.7453 3.1872 12.957C3.30959 13.1687 3.4855 13.3445 3.6973 13.4668L8.57841 16.2559C8.79042 16.3783 9.03091 16.4428 9.27571 16.4428C9.52052 16.4428 9.76101 16.3783 9.97302 16.2559L14.8541 13.4668C15.0659 13.3445 15.2418 13.1687 15.3642 12.957C15.4866 12.7453 15.5512 12.5051 15.5514 12.2605Z" stroke="#8A949E" stroke-width="1.4" stroke-linecap="round" stroke-linejoin="round"/>
<path d="M3.18826 5.95703L9.27571 9.4783L15.3631 5.95703" stroke="#8A949E" stroke-width="1.4" stroke-linecap="round" stroke-linejoin="round"/>
<path d="M9.27567 16.5003V9.47168" stroke="#8A949E" stroke-width="1.4" stroke-linecap="round" stroke-linejoin="round"/>
</svg>
