<svg width="81" height="80" viewBox="0 0 81 80" fill="none" xmlns="http://www.w3.org/2000/svg">
<g clip-path="url(#clip0_3218_92781)">
<path d="M50.1955 75.503H13.3021C6.24088 75.503 0.5 69.7697 0.5 62.7178V16.2852C0.5 9.23334 6.24088 3.5 13.3021 3.5H50.1955C57.2567 3.5 62.9975 9.23334 62.9975 16.2852V62.7231C62.9975 69.775 57.2567 75.5083 50.1955 75.5083V75.503Z" fill="#CCD0F0"/>
<path d="M50.1955 75.4611H13.302C6.26759 75.4611 0.548096 69.7438 0.548096 62.7186V16.286C0.548096 9.26081 6.26759 3.54883 13.302 3.54883H50.1955C57.2299 3.54883 62.9494 9.26081 62.9494 16.286V62.7239C62.9494 69.7491 57.2299 75.4611 50.1955 75.4611Z" fill="#CDD1F0"/>
<path d="M50.1957 75.4123H13.3022C6.29453 75.4123 0.591064 69.7163 0.591064 62.7178V16.2853C0.591064 9.28679 6.29453 3.59082 13.3022 3.59082H50.1957C57.2034 3.59082 62.9069 9.28679 62.9069 16.2853V62.7232C62.9069 69.7217 57.2034 75.4177 50.1957 75.4177V75.4123Z" fill="#CED2F1"/>
<path d="M50.1957 75.3694H13.3022C6.32124 75.3694 0.63916 69.6948 0.63916 62.723V16.2851C0.63916 9.30795 6.3159 3.63867 13.3022 3.63867H50.1957C57.1767 3.63867 62.8587 9.31329 62.8587 16.2851V62.723C62.8587 69.6948 57.1767 75.3694 50.1957 75.3694Z" fill="#CFD3F1"/>
<path d="M50.1954 75.3216H13.302C6.34234 75.3216 0.681641 69.6684 0.681641 62.7179V16.2854C0.681641 9.3349 6.34234 3.68164 13.302 3.68164H50.1954C57.155 3.68164 62.8157 9.3349 62.8157 16.2854V62.7232C62.8157 69.6737 57.155 75.327 50.1954 75.327V75.3216Z" fill="#D0D4F1"/>
<path d="M50.1954 75.2787H13.3019C6.36905 75.2787 0.729736 69.6468 0.729736 62.7231V16.2852C0.729736 9.3614 6.36905 3.72949 13.3019 3.72949H50.1954C57.1283 3.72949 62.7676 9.3614 62.7676 16.2852V62.7231C62.7676 69.6468 57.1283 75.2787 50.1954 75.2787Z" fill="#D1D5F1"/>
<path d="M50.1956 75.23H13.3021C6.39599 75.23 0.772705 69.6194 0.772705 62.717V16.2845C0.772705 9.38204 6.39599 3.77148 13.3021 3.77148H50.1956C57.1017 3.77148 62.725 9.38204 62.725 16.2791V62.717C62.725 69.6141 57.1071 75.23 50.1956 75.23Z" fill="#D2D6F2"/>
<path d="M50.1956 75.1827H13.3021C6.41736 75.1827 0.820801 69.5882 0.820801 62.7178V16.2852C0.820801 9.40951 6.41736 3.82031 13.3021 3.82031H50.1956C57.0803 3.82031 62.6769 9.40951 62.6769 16.2852V62.7231C62.6769 69.5989 57.075 75.188 50.1956 75.188V75.1827Z" fill="#D3D6F2"/>
<path d="M50.1958 75.1413H13.3023C6.44429 75.1413 0.86377 69.5681 0.86377 62.719V16.2865C0.86377 9.43744 6.44429 3.86426 13.3023 3.86426H50.1958C57.0538 3.86426 62.6343 9.43744 62.6343 16.2811V62.719C62.6343 69.5681 57.0538 75.1413 50.1958 75.1413Z" fill="#D4D7F2"/>
<path d="M50.1955 75.092H13.3021C6.47076 75.092 0.911621 69.5402 0.911621 62.7178V16.2853C0.911621 9.46297 6.47076 3.91113 13.3021 3.91113H50.1955C57.0268 3.91113 62.586 9.46297 62.586 16.2853V62.7232C62.586 69.5455 57.0268 75.0974 50.1955 75.0974V75.092Z" fill="#D5D8F3"/>
<path d="M50.1955 75.0506H13.302C6.4921 75.0506 0.954346 69.5201 0.954346 62.7191V16.2866C0.954346 9.48556 6.4921 3.95508 13.302 3.95508H50.1955C57.0054 3.95508 62.5432 9.48556 62.5432 16.2812V62.7191C62.5432 69.5201 57.0054 75.0506 50.1955 75.0506Z" fill="#D6D9F3"/>
<path d="M50.1955 75.0014H13.302C6.51882 75.0014 1.00244 69.4922 1.00244 62.7179V16.2854C1.00244 9.51108 6.51882 4.00195 13.302 4.00195H50.1955C56.9787 4.00195 62.495 9.51108 62.495 16.2854V62.7233C62.495 69.4976 56.9787 75.0067 50.1955 75.0067V75.0014Z" fill="#D7DAF3"/>
<path d="M50.1957 74.9589H13.3022C6.54575 74.9589 1.04541 69.4658 1.04541 62.7182V16.2856C1.04541 9.53803 6.54575 4.04492 13.3022 4.04492H50.1957C56.9522 4.04492 62.4525 9.53269 62.4525 16.2803V62.7182C62.4525 69.4658 56.9575 74.9589 50.1957 74.9589Z" fill="#D8DBF4"/>
<path d="M50.1954 74.9097H13.302C6.57222 74.9097 1.09326 69.4379 1.09326 62.717V16.2845C1.09326 9.55822 6.56687 4.0918 13.302 4.0918H50.1954C56.9252 4.0918 62.4041 9.56355 62.4041 16.2845V62.7223C62.4041 69.4433 56.9252 74.915 50.1954 74.915V74.9097Z" fill="#D9DCF4"/>
<path d="M50.1954 74.8672H13.3019C6.59356 74.8672 1.13599 69.4168 1.13599 62.7173V16.2847C1.13599 9.58517 6.59356 4.13477 13.3019 4.13477H50.1954C56.9038 4.13477 62.356 9.58517 62.356 16.2794V62.7173C62.356 69.4168 56.8984 74.8672 50.1954 74.8672Z" fill="#DADDF4"/>
<path d="M50.1954 74.821H13.3019C6.62028 74.821 1.18408 69.3919 1.18408 62.719V16.2865C1.18408 9.61362 6.62028 4.18457 13.3019 4.18457H50.1954C56.877 4.18457 62.3132 9.61362 62.3132 16.2865V62.7244C62.3132 69.3972 56.877 74.8263 50.1954 74.8263V74.821Z" fill="#DBDEF4"/>
<path d="M50.1956 74.7756H13.3021C6.64721 74.7756 1.22705 69.3679 1.22705 62.7164V16.2838C1.22705 9.63231 6.64721 4.22461 13.3021 4.22461H50.1956C56.8505 4.22461 62.2653 9.63231 62.2653 16.2785V62.7164C62.2653 69.3625 56.8505 74.7756 50.1956 74.7756Z" fill="#DCDFF5"/>
<path d="M50.1953 74.7303H13.3019C6.66833 74.7303 1.2749 69.3439 1.2749 62.7191V16.2866C1.2749 9.66174 6.66833 4.27539 13.3019 4.27539H50.1953C56.8289 4.27539 62.2223 9.66174 62.2223 16.2866V62.7245C62.2223 69.3493 56.8289 74.7356 50.1953 74.7356V74.7303Z" fill="#DDE0F5"/>
<path d="M50.1955 74.6869H13.3021C6.69527 74.6869 1.31787 69.3165 1.31787 62.7184V16.2859C1.31787 9.68771 6.69527 4.31738 13.3021 4.31738H50.1955C56.8023 4.31738 62.1744 9.68237 62.1744 16.2805V62.7184C62.1744 69.3165 56.8023 74.6869 50.1955 74.6869Z" fill="#DEE1F5"/>
<path d="M50.1955 74.6386H13.3021C6.72198 74.6386 1.36597 69.2896 1.36597 62.7182V16.2857C1.36597 9.71421 6.72198 4.36523 13.3021 4.36523H50.1955C56.7756 4.36523 62.1316 9.71421 62.1316 16.2857V62.7235C62.1316 69.295 56.7756 74.644 50.1955 74.644V74.6386Z" fill="#DFE2F6"/>
<path d="M50.1955 74.5962H13.3021C6.74335 74.5962 1.41407 69.2686 1.41407 62.7185V16.2859C1.40872 9.73583 6.74335 4.4082 13.3021 4.4082H50.1955C56.7489 4.4082 62.0835 9.73583 62.0835 16.2806V62.7185C62.0835 69.2686 56.7489 74.5962 50.1955 74.5962Z" fill="#E0E2F6"/>
<path d="M50.1952 74.547H13.3018C6.7698 74.547 1.45654 69.2407 1.45654 62.7173V16.2848C1.45654 9.76135 6.7698 4.45508 13.3018 4.45508H50.1952C56.7272 4.45508 62.0405 9.76135 62.0405 16.2848V62.7226C62.0405 69.246 56.7272 74.5523 50.1952 74.5523V74.547Z" fill="#E1E3F6"/>
<path d="M50.1957 74.506H13.3023C6.797 74.506 1.50513 69.2211 1.50513 62.7244V16.2865C1.50513 9.7898 6.797 4.50488 13.3023 4.50488H50.1957C56.7009 4.50488 61.9928 9.7898 61.9928 16.2865V62.7244C61.9928 69.2211 56.7009 74.506 50.1957 74.506Z" fill="#E2E4F6"/>
<path d="M50.1954 74.4553H13.302C6.82344 74.4553 1.54761 69.1864 1.54761 62.7164V16.2838C1.54761 9.80849 6.8181 4.54492 13.302 4.54492H50.1954C56.6739 4.54492 61.9498 9.80849 61.9498 16.2838V62.7217C61.9498 69.1917 56.6793 74.4606 50.1954 74.4606V74.4553Z" fill="#E3E5F7"/>
<path d="M50.1954 74.4153H13.302C6.84481 74.4153 1.5957 69.1678 1.5957 62.7245V16.2866C1.5957 9.83791 6.84481 4.5957 13.302 4.5957H50.1954C56.6525 4.5957 61.9017 9.83791 61.9017 16.2866V62.7245C61.9017 69.1731 56.6472 74.4153 50.1954 74.4153Z" fill="#E4E6F7"/>
<path d="M50.1951 74.3666H13.3017C6.87126 74.3666 1.63818 69.1404 1.63818 62.7184V16.2859C1.63818 9.86389 6.87126 4.6377 13.3017 4.6377H50.1951C56.6255 4.6377 61.8586 9.86389 61.8586 16.2859V62.7237C61.8586 69.1457 56.6255 74.3719 50.1951 74.3719V74.3666Z" fill="#E5E7F7"/>
<path d="M50.1956 74.3227H13.3022C6.89846 74.3227 1.68677 69.1179 1.68677 62.7226V16.2847C1.68677 9.88408 6.89846 4.68457 13.3022 4.68457H50.1956C56.5993 4.68457 61.811 9.88941 61.811 16.2847V62.7226C61.811 69.1179 56.5993 74.3227 50.1956 74.3227Z" fill="#E6E8F8"/>
<path d="M50.1958 74.2759H13.3024C6.92005 74.2759 1.72974 69.0924 1.72974 62.7185V16.2859C1.72974 9.91201 6.92005 4.72852 13.3024 4.72852H50.1958C56.5781 4.72852 61.7684 9.91201 61.7684 16.2859V62.7238C61.7684 69.0977 56.5781 74.2812 50.1958 74.2812V74.2759Z" fill="#E7E9F8"/>
<path d="M50.1958 74.232H13.3024C6.94676 74.232 1.77783 69.0699 1.77783 62.7226V16.2848C1.77783 9.93753 6.94676 4.77539 13.3024 4.77539H50.1958C56.5514 4.77539 61.7203 9.93753 61.7203 16.2848V62.7226C61.7203 69.0699 56.5514 74.232 50.1958 74.232Z" fill="#E8EAF8"/>
<path d="M50.1955 74.1842H13.3021C6.97321 74.1842 1.82031 69.0381 1.82031 62.7176V16.285C1.82031 9.96448 6.97321 4.81836 13.3021 4.81836H50.1955C56.5244 4.81836 61.6772 9.95914 61.6772 16.2797V62.7176C61.6772 69.0381 56.5297 74.1842 50.1955 74.1842Z" fill="#E9EBF9"/>
<path d="M50.1955 74.1404H13.3021C6.99457 74.1404 1.86841 69.0156 1.86841 62.7217V16.2839C1.86841 9.98466 6.99457 4.86523 13.3021 4.86523H50.1955C56.4976 4.86523 61.6291 9.99 61.6291 16.2839V62.7217C61.6291 69.0209 56.4976 74.1404 50.1955 74.1404Z" fill="#EAECF9"/>
<path d="M50.1957 74.0936H13.3023C7.02151 74.0936 1.91138 68.9901 1.91138 62.7176V16.2851C1.91138 10.0126 7.02151 4.90918 13.3023 4.90918H50.1957C56.4764 4.90918 61.5866 10.0126 61.5866 16.2798V62.7176C61.5866 68.9901 56.4764 74.0936 50.1957 74.0936Z" fill="#EBEDF9"/>
<path d="M50.1957 74.0516H13.3022C7.04822 74.0516 1.95947 68.9696 1.95947 62.7238V16.2859C1.95947 10.0401 7.04822 4.95801 13.3022 4.95801H50.1957C56.4497 4.95801 61.5384 10.0401 61.5384 16.2859V62.7238C61.5384 68.9696 56.4497 74.0516 50.1957 74.0516Z" fill="#ECEDF9"/>
<path d="M50.1954 74.0029H13.302C7.07467 74.0029 2.00195 68.9422 2.00195 62.7177V16.2852C2.00195 10.0607 7.06932 5 13.302 5H50.1954C56.4227 5 61.4954 10.0607 61.4954 16.2798V62.7177C61.4954 68.9368 56.428 74.0029 50.1954 74.0029Z" fill="#EDEEFA"/>
<path d="M50.1954 73.961H13.302C7.09604 73.961 2.05005 68.9216 2.05005 62.7238V16.286C2.05005 10.0882 7.09604 5.04883 13.302 5.04883H50.1954C56.4013 5.04883 61.4473 10.0882 61.4473 16.286V62.7238C61.4473 68.9216 56.4013 73.961 50.1954 73.961Z" fill="#EEEFFA"/>
<path d="M50.1956 73.9122H13.3022C7.12297 73.9122 2.09302 68.8889 2.09302 62.7178V16.2852C2.09302 10.1142 7.12297 5.09082 13.3022 5.09082H50.1956C56.3748 5.09082 61.3994 10.1088 61.3994 16.2799V62.7178C61.3994 68.8889 56.3748 73.9122 50.1956 73.9122Z" fill="#EFF0FA"/>
<path d="M50.1956 73.8639H13.3022C7.14968 73.8639 2.14111 68.862 2.14111 62.7176V16.285C2.14111 10.1353 7.14968 5.13867 13.3022 5.13867H50.1956C56.348 5.13867 61.3566 10.1407 61.3566 16.285V62.7229C61.3566 68.8673 56.348 73.8693 50.1956 73.8693V73.8639Z" fill="#F0F1FB"/>
<path d="M50.1953 73.8215H13.3019C7.17078 73.8215 2.18359 68.8409 2.18359 62.7178V16.2853C2.18359 10.1623 7.17078 5.18164 13.3019 5.18164H50.1953C56.3264 5.18164 61.3082 10.1623 61.3082 16.28V62.7178C61.3082 68.8409 56.321 73.8215 50.1953 73.8215Z" fill="#F1F2FB"/>
<path d="M50.1953 73.7733H13.3019C7.1975 73.7733 2.23169 68.814 2.23169 62.7177V16.2851C2.23169 10.1888 7.1975 5.22949 13.3019 5.22949H50.1953C56.2996 5.22949 61.2655 10.1888 61.2655 16.2851V62.723C61.2655 68.8193 56.2996 73.7786 50.1953 73.7786V73.7733Z" fill="#F2F3FB"/>
<path d="M50.1955 73.7299H13.3021C7.22443 73.7299 2.27466 68.7919 2.27466 62.7169V16.2844C2.27466 10.2148 7.22443 5.27148 13.3021 5.27148H50.1955C56.2731 5.27148 61.2175 10.2094 61.2175 16.2791V62.7169C61.2175 68.7866 56.2731 73.7299 50.1955 73.7299Z" fill="#F3F4FB"/>
<path d="M50.1955 73.6826H13.3021C7.2458 73.6826 2.32275 68.7607 2.32275 62.7177V16.2852C2.32275 10.2369 7.2458 5.32031 13.3021 5.32031H50.1955C56.2464 5.32031 61.1748 10.2369 61.1748 16.2852V62.7231C61.1748 68.7714 56.2517 73.6879 50.1955 73.6879V73.6826Z" fill="#F4F5FC"/>
<path d="M50.1957 73.6407H13.3023C7.27276 73.6407 2.3711 68.7401 2.3711 62.7185V16.286C2.36575 10.2644 7.27276 5.36914 13.3023 5.36914H50.1957C56.2252 5.36914 61.1269 10.2644 61.1269 16.286V62.7238C61.1269 68.7454 56.2199 73.646 50.1957 73.646V73.6407Z" fill="#F5F6FC"/>
<path d="M50.1954 73.5919H13.302C7.2992 73.5919 2.41357 68.7127 2.41357 62.7178V16.2852C2.41357 10.2903 7.2992 5.41113 13.302 5.41113H50.1954C56.1982 5.41113 61.0839 10.2903 61.0839 16.2852V62.7231C61.0839 68.718 56.1982 73.5972 50.1954 73.5972V73.5919Z" fill="#F6F7FC"/>
<path d="M50.1954 73.549H13.302C7.32592 73.549 2.46167 68.6912 2.46167 62.7176V16.2851C2.45633 10.3115 7.32057 5.45898 13.302 5.45898H50.1954C56.1715 5.45898 61.0357 10.3168 61.0357 16.2851V62.7229C61.0357 68.6912 56.1715 73.5543 50.1954 73.5543V73.549Z" fill="#F7F8FD"/>
<path d="M50.1954 73.5012H13.302C7.34726 73.5012 2.50439 68.6647 2.50439 62.7179V16.2853C2.50439 10.3385 7.34726 5.50195 13.302 5.50195H50.1954C56.1501 5.50195 60.9929 10.3385 60.9929 16.2853V62.7232C60.9929 68.6701 56.1501 73.5066 50.1954 73.5066V73.5012Z" fill="#F8F9FD"/>
<path d="M50.1956 73.4583H13.3022C7.37422 73.4583 2.55273 68.6432 2.55273 62.723V16.2851C2.55273 10.365 7.37422 5.5498 13.3022 5.5498H50.1956C56.1236 5.5498 60.9451 10.365 60.9451 16.2851V62.723C60.9451 68.6432 56.1236 73.4583 50.1956 73.4583Z" fill="#F9F9FD"/>
<path d="M50.1953 73.4096H13.3019C7.40066 73.4096 2.59521 68.6104 2.59521 62.7169V16.2844C2.59521 10.3856 7.40066 5.5918 13.3019 5.5918H50.1953C56.0966 5.5918 60.902 10.3856 60.902 16.2844V62.7223C60.902 68.6158 56.1019 73.4149 50.1953 73.4149V73.4096Z" fill="#FAFAFE"/>
<path d="M50.1953 73.3676H13.3019C7.42203 73.3676 2.64331 68.5899 2.64331 62.7231V16.2852C2.64331 10.4131 7.42203 5.64062 13.3019 5.64062H50.1953C56.0752 5.64062 60.8539 10.4131 60.8539 16.2852V62.7231C60.8539 68.5952 56.0698 73.3676 50.1953 73.3676Z" fill="#FBFBFE"/>
<path d="M50.1953 73.3208H13.3018C7.44872 73.3208 2.68604 68.5644 2.68604 62.719V16.2864C2.68604 10.441 7.44872 5.68457 13.3018 5.68457H50.1953C56.0484 5.68457 60.8111 10.441 60.8111 16.2864V62.7243C60.8111 68.5698 56.0484 73.3262 50.1953 73.3262V73.3208Z" fill="#FCFCFE"/>
<path d="M50.1955 73.277H13.3021C7.47568 73.277 2.73438 68.5419 2.73438 62.7231V16.2853C2.73438 10.4665 7.47568 5.73145 13.3021 5.73145H50.1955C56.0219 5.73145 60.7632 10.4665 60.7632 16.2853V62.7231C60.7632 68.5419 56.0219 73.277 50.1955 73.277Z" fill="#FDFDFE"/>
<path d="M50.1957 73.2301H13.3023C7.49727 73.2301 2.77734 68.5164 2.77734 62.719V16.2865C2.77734 10.4891 7.49727 5.77539 13.3023 5.77539H50.1957C55.9954 5.77539 60.7207 10.4891 60.7207 16.2812V62.719C60.7207 68.5164 56.0007 73.2301 50.1957 73.2301Z" fill="#FEFEFF"/>
<path d="M50.1957 73.1863H13.3023C7.52398 73.1863 2.82544 68.4939 2.82544 62.7232V16.2853C2.82544 10.5146 7.52398 5.82227 13.3023 5.82227H50.1957C55.974 5.82227 60.6725 10.5146 60.6725 16.2853V62.7232C60.6725 68.4939 55.974 73.1863 50.1957 73.1863Z" fill="white"/>
<path d="M53.3333 34.4473H20.6841V39.0329H53.3333V34.4473Z" fill="#E3E7F7"/>
<path d="M53.3333 45.791H20.6841V50.3766H53.3333V45.791Z" fill="#E3E7F7"/>
<path d="M53.3333 57.1348H20.6841V61.7204H53.3333V57.1348Z" fill="#E3E7F7"/>
<path d="M18.0487 59.7603C18.0487 62.5202 15.809 64.757 13.0455 64.757C10.2819 64.757 8.04224 62.5202 8.04224 59.7603C8.04224 57.0004 10.2819 54.7637 13.0455 54.7637C15.809 54.7637 18.0487 57.0004 18.0487 59.7603Z" fill="url(#paint0_linear_3218_92781)"/>
<path d="M18.0276 59.7599C18.0276 62.5092 15.7933 64.7406 13.0404 64.7406C10.2876 64.7406 8.05322 62.5092 8.05322 59.7599C8.05322 57.0107 10.2822 54.7793 13.0404 54.7793C15.7986 54.7793 18.0276 57.0107 18.0276 59.7599Z" fill="url(#paint1_linear_3218_92781)"/>
<path d="M18.0112 59.761C18.0112 62.4996 15.7875 64.7203 13.0454 64.7203C10.3032 64.7203 8.07959 62.4996 8.07959 59.761C8.07959 57.0225 10.3032 54.8018 13.0454 54.8018C15.7875 54.8018 18.0112 57.0225 18.0112 59.761Z" fill="url(#paint2_linear_3218_92781)"/>
<path d="M17.9952 59.7607C17.9952 62.4885 15.7769 64.7039 13.0455 64.7039C10.314 64.7039 8.0957 62.4885 8.0957 59.7607C8.0957 57.0328 10.3087 54.8174 13.0455 54.8174C15.7823 54.8174 17.9952 57.0328 17.9952 59.7607Z" fill="url(#paint3_linear_3218_92781)"/>
<path d="M17.9742 59.7603C17.9742 62.4775 15.7665 64.6822 13.0404 64.6822C10.3143 64.6822 8.10669 62.4775 8.10669 59.7603C8.10669 57.0431 10.3143 54.833 13.0404 54.833C15.7665 54.833 17.9742 57.0377 17.9742 59.7603Z" fill="url(#paint4_linear_3218_92781)"/>
<path d="M17.958 59.7604C17.958 62.4722 15.7611 64.6663 13.0457 64.6663C10.3302 64.6663 8.1333 62.4669 8.1333 59.7604C8.1333 57.0539 10.3302 54.8545 13.0457 54.8545C15.7611 54.8545 17.958 57.0539 17.958 59.7604Z" fill="url(#paint5_linear_3218_92781)"/>
<path d="M17.9364 59.76C17.9364 62.4612 15.7448 64.6499 13.0401 64.6499C10.3354 64.6499 8.1438 62.4612 8.1438 59.76C8.1438 57.0588 10.3354 54.8701 13.0401 54.8701C15.7448 54.8701 17.9364 57.0588 17.9364 59.76Z" fill="url(#paint6_linear_3218_92781)"/>
<path d="M17.9203 59.7611C17.9203 62.4516 15.7394 64.6296 13.0453 64.6296C10.3513 64.6296 8.17041 62.4463 8.17041 59.7611C8.17041 57.0759 10.3513 54.8926 13.0453 54.8926C15.7394 54.8926 17.9203 57.0759 17.9203 59.7611Z" fill="url(#paint7_linear_3218_92781)"/>
<path d="M17.9046 59.7607C17.9046 62.4405 15.729 64.6132 13.0457 64.6132C10.3623 64.6132 8.18677 62.4405 8.18677 59.7607C8.18677 57.0809 10.3623 54.9082 13.0457 54.9082C15.729 54.9082 17.9046 57.0809 17.9046 59.7607Z" fill="url(#paint8_linear_3218_92781)"/>
<path d="M17.883 59.7603C17.883 62.4295 15.7181 64.5968 13.0401 64.5968C10.3621 64.5968 8.19727 62.4295 8.19727 59.7603C8.19727 57.0912 10.3621 54.9238 13.0401 54.9238C15.7181 54.9238 17.883 57.0858 17.883 59.7603Z" fill="url(#paint9_linear_3218_92781)"/>
<path d="M17.8668 59.7605C17.8668 62.4189 15.7073 64.5756 13.0454 64.5756C10.3834 64.5756 8.22388 62.4189 8.22388 59.7605C8.22388 57.102 10.3834 54.9453 13.0454 54.9453C15.7073 54.9453 17.8668 57.102 17.8668 59.7605Z" fill="url(#paint10_linear_3218_92781)"/>
<path d="M17.8511 59.7601C17.8511 62.4079 15.7023 64.5592 13.0457 64.5592C10.3891 64.5592 8.24023 62.4132 8.24023 59.7601C8.24023 57.1069 10.3891 54.9609 13.0457 54.9609C15.7023 54.9609 17.8511 57.1069 17.8511 59.7601Z" fill="url(#paint11_linear_3218_92781)"/>
<path d="M17.8296 59.7616C17.8296 62.4041 15.6861 64.5447 13.0401 64.5447C10.3942 64.5447 8.25073 62.4041 8.25073 59.7616C8.25073 57.1192 10.3942 54.9785 13.0401 54.9785C15.6861 54.9785 17.8296 57.1192 17.8296 59.7616Z" fill="url(#paint12_linear_3218_92781)"/>
<path d="M17.8134 59.7598C17.8134 62.3916 15.6806 64.5216 13.0454 64.5216C10.4101 64.5216 8.27734 62.3916 8.27734 59.7598C8.27734 57.128 10.4101 54.998 13.0454 54.998C15.6806 54.998 17.8134 57.128 17.8134 59.7598Z" fill="url(#paint13_linear_3218_92781)"/>
<path d="M17.7974 59.7594C17.7974 62.3805 15.67 64.5052 13.0455 64.5052C10.4209 64.5052 8.29346 62.3805 8.29346 59.7594C8.29346 57.1383 10.4209 55.0137 13.0455 55.0137C15.67 55.0137 17.7974 57.1383 17.7974 59.7594Z" fill="url(#paint14_linear_3218_92781)"/>
<path d="M17.7762 59.759C17.7762 62.3695 15.6594 64.4834 13.0456 64.4834C10.4317 64.4834 8.31494 62.3695 8.31494 59.759C8.31494 57.1486 10.4317 55.0293 13.0456 55.0293C15.6594 55.0293 17.7762 57.1433 17.7762 59.759Z" fill="url(#paint15_linear_3218_92781)"/>
<path d="M17.76 59.7601C17.76 62.3599 15.6486 64.4685 13.0454 64.4685C10.4422 64.4685 8.33081 62.3599 8.33081 59.7601C8.33081 57.1604 10.4422 55.0518 13.0454 55.0518C15.6486 55.0518 17.76 57.1604 17.76 59.7601Z" fill="url(#paint16_linear_3218_92781)"/>
<path d="M17.7389 59.7607C17.7389 62.3498 15.6382 64.4531 13.0403 64.4531C10.4425 64.4531 8.3418 62.3551 8.3418 59.7607C8.3418 57.1663 10.4425 55.0684 13.0403 55.0684C15.6382 55.0684 17.7389 57.1663 17.7389 59.7607Z" fill="url(#paint17_linear_3218_92781)"/>
<path d="M17.7227 59.7599C17.7227 62.3383 15.6274 64.4309 13.0456 64.4309C10.4638 64.4309 8.36841 62.3383 8.36841 59.7599C8.36841 57.1815 10.4638 55.0889 13.0456 55.0889C15.6274 55.0889 17.7227 57.1815 17.7227 59.7599Z" fill="url(#paint18_linear_3218_92781)"/>
<path d="M17.7065 59.7614C17.7065 62.3345 15.6218 64.4164 13.0454 64.4164C10.469 64.4164 8.38428 62.3345 8.38428 59.7614C8.38428 57.1884 10.469 55.1064 13.0454 55.1064C15.6218 55.1064 17.7065 57.1884 17.7065 59.7614Z" fill="url(#paint19_linear_3218_92781)"/>
<path d="M17.6852 59.7611C17.6852 62.3234 15.6059 64.4 13.0401 64.4C10.4743 64.4 8.39502 62.3234 8.39502 59.7611C8.39502 57.1987 10.4743 55.1221 13.0401 55.1221C15.6059 55.1221 17.6852 57.1987 17.6852 59.7611Z" fill="url(#paint20_linear_3218_92781)"/>
<path d="M17.6693 59.7602C17.6693 62.3119 15.6006 64.3778 13.0456 64.3778C10.4905 64.3778 8.42188 62.3119 8.42188 59.7602C8.42188 57.2085 10.4905 55.1426 13.0456 55.1426C15.6006 55.1426 17.6693 57.2085 17.6693 59.7602Z" fill="url(#paint21_linear_3218_92781)"/>
<path d="M17.6533 59.7598C17.6533 62.3009 15.59 64.3614 13.0457 64.3614C10.5013 64.3614 8.43799 62.3009 8.43799 59.7598C8.43799 57.2188 10.5013 55.1582 13.0457 55.1582C15.59 55.1582 17.6533 57.2188 17.6533 59.7598Z" fill="url(#paint22_linear_3218_92781)"/>
<path d="M17.6318 59.7604C17.6318 62.2908 15.5792 64.3407 13.0401 64.3407C10.5011 64.3407 8.45386 62.2908 8.45386 59.7604C8.45386 57.23 10.5065 55.1748 13.0401 55.1748C15.5738 55.1748 17.6318 57.2247 17.6318 59.7604Z" fill="url(#paint23_linear_3218_92781)"/>
<path d="M17.6156 59.7615C17.6156 62.2812 15.5683 64.3258 13.0453 64.3258C10.5224 64.3258 8.4751 62.2812 8.4751 59.7615C8.4751 57.2418 10.5224 55.1973 13.0453 55.1973C15.5683 55.1973 17.6156 57.2418 17.6156 59.7615Z" fill="url(#paint24_linear_3218_92781)"/>
<path d="M17.5943 59.7611C17.5943 62.2701 15.5577 64.3094 13.0401 64.3094C10.5224 64.3094 8.48584 62.2755 8.48584 59.7611C8.48584 57.2468 10.5224 55.2129 13.0401 55.2129C15.5577 55.2129 17.5943 57.2468 17.5943 59.7611Z" fill="url(#paint25_linear_3218_92781)"/>
<path d="M17.5786 59.7613C17.5786 62.2596 15.5474 64.2881 13.0458 64.2881C10.5442 64.2881 8.51294 62.2596 8.51294 59.7613C8.51294 57.2629 10.5442 55.2344 13.0458 55.2344C15.5474 55.2344 17.5786 57.2629 17.5786 59.7613Z" fill="url(#paint26_linear_3218_92781)"/>
<path d="M17.5622 59.7609C17.5622 62.2538 15.5416 64.2717 13.0454 64.2717C10.5491 64.2717 8.52856 62.2538 8.52856 59.7609C8.52856 57.2679 10.5491 55.25 13.0454 55.25C15.5416 55.25 17.5622 57.2679 17.5622 59.7609Z" fill="url(#paint27_linear_3218_92781)"/>
<path d="M17.5411 59.7605C17.5411 62.2428 15.5259 64.2553 13.0403 64.2553C10.5547 64.2553 8.53955 62.2428 8.53955 59.7605C8.53955 57.2782 10.5547 55.2656 13.0403 55.2656C15.5259 55.2656 17.5411 57.2782 17.5411 59.7605Z" fill="url(#paint28_linear_3218_92781)"/>
<path d="M17.5252 59.7606C17.5252 62.2322 15.5207 64.2341 13.0458 64.2341C10.5709 64.2341 8.56641 62.2322 8.56641 59.7606C8.56641 57.289 10.5709 55.2871 13.0458 55.2871C15.5207 55.2871 17.5252 57.289 17.5252 59.7606Z" fill="url(#paint29_linear_3218_92781)"/>
<path d="M17.5087 59.7602C17.5087 62.2212 15.5096 64.2177 13.0454 64.2177C10.5812 64.2177 8.58203 62.2212 8.58203 59.7602C8.58203 57.2993 10.5812 55.3027 13.0454 55.3027C15.5096 55.3027 17.5087 57.2993 17.5087 59.7602Z" fill="url(#paint30_linear_3218_92781)"/>
<path d="M17.4876 59.7598C17.4876 62.2101 15.4992 64.2013 13.0403 64.2013C10.5815 64.2013 8.59302 62.2154 8.59302 59.7598C8.59302 57.3042 10.5815 55.3184 13.0403 55.3184C15.4992 55.3184 17.4876 57.3042 17.4876 59.7598Z" fill="url(#paint31_linear_3218_92781)"/>
<path d="M17.4715 59.7609C17.4715 62.2005 15.4884 64.181 13.0456 64.181C10.6027 64.181 8.61963 62.2005 8.61963 59.7609C8.61963 57.3213 10.6027 55.3408 13.0456 55.3408C15.4884 55.3408 17.4715 57.3213 17.4715 59.7609Z" fill="url(#paint32_linear_3218_92781)"/>
<path d="M17.4553 59.7605C17.4553 62.1895 15.4829 64.1646 13.0454 64.1646C10.6079 64.1646 8.6355 62.1948 8.6355 59.7605C8.6355 57.3263 10.6079 55.3564 13.0454 55.3564C15.4829 55.3564 17.4553 57.3263 17.4553 59.7605Z" fill="url(#paint33_linear_3218_92781)"/>
<path d="M17.434 59.7607C17.434 62.1843 15.4669 64.1434 13.0455 64.1434C10.6241 64.1434 8.65698 62.1789 8.65698 59.7607C8.65698 57.3424 10.6241 55.3779 13.0455 55.3779C15.4669 55.3779 17.434 57.3424 17.434 59.7607Z" fill="url(#paint34_linear_3218_92781)"/>
<path d="M17.418 59.7603C17.418 62.1732 15.4617 64.127 13.0456 64.127C10.6295 64.127 8.6731 62.1732 8.6731 59.7603C8.6731 57.3474 10.6295 55.3936 13.0456 55.3936C15.4617 55.3936 17.418 57.3474 17.418 59.7603Z" fill="url(#paint35_linear_3218_92781)"/>
<path d="M17.3965 59.7599C17.3965 62.1621 15.4454 64.1106 13.04 64.1106C10.6346 64.1106 8.68359 62.1621 8.68359 59.7599C8.68359 57.3577 10.6346 55.4092 13.04 55.4092C15.4454 55.4092 17.3965 57.3577 17.3965 59.7599Z" fill="url(#paint36_linear_3218_92781)"/>
<path d="M17.3806 59.761C17.3806 62.1526 15.4402 64.0904 13.0455 64.0904C10.6508 64.0904 8.71045 62.1526 8.71045 59.761C8.71045 57.3694 10.6508 55.4316 13.0455 55.4316C15.4402 55.4316 17.3806 57.3694 17.3806 59.761Z" fill="url(#paint37_linear_3218_92781)"/>
<path d="M17.3646 59.7606C17.3646 62.1415 15.4296 64.074 13.0456 64.074C10.6616 64.074 8.72656 62.1415 8.72656 59.7606C8.72656 57.3797 10.6616 55.4473 13.0456 55.4473C15.4296 55.4473 17.3646 57.3797 17.3646 59.7606Z" fill="url(#paint38_linear_3218_92781)"/>
<path d="M17.343 59.7602C17.343 62.1304 15.4187 64.0576 13.04 64.0576C10.6614 64.0576 8.73706 62.1358 8.73706 59.7602C8.73706 57.3847 10.6614 55.4629 13.04 55.4629C15.4187 55.4629 17.343 57.3847 17.343 59.7602Z" fill="url(#paint39_linear_3218_92781)"/>
<path d="M17.3274 59.7604C17.3274 62.1199 15.4084 64.0363 13.0458 64.0363C10.6831 64.0363 8.76416 62.1199 8.76416 59.7604C8.76416 57.4008 10.6831 55.4844 13.0458 55.4844C15.4084 55.4844 17.3274 57.4008 17.3274 59.7604Z" fill="url(#paint40_linear_3218_92781)"/>
<path d="M17.3112 59.76C17.3112 62.1142 15.4029 64.0199 13.0456 64.0199C10.6883 64.0199 8.78003 62.1142 8.78003 59.76C8.78003 57.4058 10.6883 55.5 13.0456 55.5C15.4029 55.5 17.3112 57.4058 17.3112 59.76Z" fill="url(#paint41_linear_3218_92781)"/>
<path d="M17.2899 59.7615C17.2899 62.105 15.387 64.0001 13.0457 64.0001C10.7044 64.0001 8.80151 62.0997 8.80151 59.7615C8.80151 57.4233 10.7044 55.5176 13.0457 55.5176C15.387 55.5176 17.2899 57.418 17.2899 59.7615Z" fill="url(#paint42_linear_3218_92781)"/>
<path d="M17.2739 59.7617C17.2739 62.0945 15.3817 63.9843 13.0458 63.9843C10.7099 63.9843 8.81763 62.0945 8.81763 59.7617C8.81763 57.4288 10.7099 55.5391 13.0458 55.5391C15.3817 55.5391 17.2739 57.4288 17.2739 59.7617Z" fill="url(#paint43_linear_3218_92781)"/>
<path d="M17.2524 59.7613C17.2524 62.0834 15.3655 63.9678 13.0402 63.9678C10.715 63.9678 8.82812 62.0834 8.82812 59.7613C8.82812 57.4391 10.715 55.5547 13.0402 55.5547C15.3655 55.5547 17.2524 57.4391 17.2524 59.7613Z" fill="url(#paint44_linear_3218_92781)"/>
<path d="M17.2362 59.7604C17.2362 62.0719 15.36 63.9457 13.0455 63.9457C10.7309 63.9457 8.85474 62.0719 8.85474 59.7604C8.85474 57.4489 10.7309 55.5752 13.0455 55.5752C15.36 55.5752 17.2362 57.4489 17.2362 59.7604Z" fill="url(#paint45_linear_3218_92781)"/>
<path d="M17.22 59.76C17.22 62.0608 15.3491 63.9292 13.0453 63.9292C10.7415 63.9292 8.87061 62.0608 8.87061 59.76C8.87061 57.4592 10.7415 55.5908 13.0453 55.5908C15.3491 55.5908 17.22 57.4592 17.22 59.76Z" fill="url(#paint46_linear_3218_92781)"/>
<path d="M17.1989 59.7606C17.1989 62.0507 15.3387 63.9138 13.0403 63.9138C10.7418 63.9138 8.88159 62.0561 8.88159 59.7606C8.88159 57.4651 10.7418 55.6074 13.0403 55.6074C15.3387 55.6074 17.1989 57.4651 17.1989 59.7606Z" fill="url(#paint47_linear_3218_92781)"/>
<path d="M17.1828 59.7617C17.1828 62.0465 15.3279 63.8936 13.0455 63.8936C10.763 63.8936 8.9082 62.0412 8.9082 59.7617C8.9082 57.4823 10.763 55.6299 13.0455 55.6299C15.3279 55.6299 17.1828 57.4823 17.1828 59.7617Z" fill="url(#paint48_linear_3218_92781)"/>
<path d="M17.1668 59.7613C17.1668 62.0355 15.3227 63.8772 13.0456 63.8772C10.7685 63.8772 8.92432 62.0355 8.92432 59.7613C8.92432 57.4872 10.7685 55.6455 13.0456 55.6455C15.3227 55.6455 17.1668 57.4872 17.1668 59.7613Z" fill="url(#paint49_linear_3218_92781)"/>
<path d="M17.1452 59.7609C17.1452 62.0244 15.3064 63.8608 13.04 63.8608C10.7736 63.8608 8.93481 62.0244 8.93481 59.7609C8.93481 57.4975 10.7736 55.6611 13.04 55.6611C15.3064 55.6611 17.1452 57.4975 17.1452 59.7609Z" fill="url(#paint50_linear_3218_92781)"/>
<path d="M17.1293 59.7601C17.1293 62.0129 15.3012 63.8386 13.0455 63.8386C10.7898 63.8386 8.96167 62.0129 8.96167 59.7601C8.96167 57.5073 10.7898 55.6816 13.0455 55.6816C15.3012 55.6816 17.1293 57.5073 17.1293 59.7601Z" fill="url(#paint51_linear_3218_92781)"/>
<path d="M12.7248 61.4737C12.3667 61.4737 12.0032 61.335 11.7252 61.0627L10.7363 60.0751C10.5332 59.8723 10.5332 59.5359 10.7363 59.3331C10.9394 59.1302 11.2762 59.1302 11.4793 59.3331L12.4682 60.3207C12.5377 60.3901 12.6286 60.4274 12.7248 60.4274C12.8157 60.4274 12.9065 60.3954 12.976 60.3207L13.9649 59.3331L14.9538 58.3455C15.1569 58.1426 15.4937 58.1426 15.6968 58.3455C15.9053 58.5484 15.9053 58.8847 15.6968 59.0875L14.7079 60.0751L13.719 61.0627C13.4464 61.335 13.0829 61.4737 12.7248 61.4737Z" fill="white"/>
<path d="M15.8838 36.5866C15.8838 38.1507 14.6116 39.4212 13.0454 39.4212C11.4792 39.4212 10.207 38.1507 10.207 36.5866C10.207 35.0225 11.4792 33.752 13.0454 33.752C14.6116 33.752 15.8838 35.0171 15.8838 36.5866Z" fill="url(#paint52_linear_3218_92781)"/>
<path d="M79.2744 38.8555C80.9635 37.0885 80.8994 34.2859 79.1301 32.5937L75.3188 28.9529C73.5442 27.2607 70.7379 27.3301 69.0488 29.0971L52.8845 45.9875L63.1101 55.7459L79.2744 38.8608V38.8555Z" fill="url(#paint53_linear_3218_92781)"/>
<path d="M79.2744 38.8555C80.9635 37.0885 80.8994 34.2859 79.1301 32.5937L75.3188 28.9529C73.5442 27.2607 70.7379 27.3301 69.0488 29.0971L52.8845 45.9875L63.1101 55.7459L79.2744 38.8608V38.8555Z" fill="url(#paint54_linear_3218_92781)"/>
<path d="M63.1153 55.7457L57.9999 50.8612L52.8897 45.9873L51.1846 53.146L56.0274 57.7689L63.1153 55.7457Z" fill="url(#paint55_linear_3218_92781)"/>
<path d="M56.0271 57.7685L51.1843 53.1455L49.6555 59.5888L56.0271 57.7685Z" fill="url(#paint56_linear_3218_92781)"/>
<path d="M15.8838 48.1706C15.8838 49.7347 14.6116 51.0052 13.0454 51.0052C11.4792 51.0052 10.207 49.7347 10.207 48.1706C10.207 46.6065 11.4792 45.3359 13.0454 45.3359C14.6116 45.3359 15.8838 46.6011 15.8838 48.1706Z" fill="url(#paint57_linear_3218_92781)"/>
<path d="M38.377 24.7085C38.377 27.5378 35.3194 27.2656 31.5403 27.2656C27.7611 27.2656 24.7036 27.4898 24.7036 24.7085C24.7036 20.9344 27.7665 17.8809 31.5403 17.8809C35.3141 17.8809 38.377 20.9344 38.377 24.7085Z" fill="url(#paint58_linear_3218_92781)"/>
<path d="M35.4479 15.8735C35.4479 18.0301 33.6999 19.7811 31.5351 19.7811C29.3702 19.7811 27.6223 18.0301 27.6223 15.8735C27.6223 13.7168 29.3756 11.9658 31.5351 11.9658C33.6946 11.9658 35.4479 13.7114 35.4479 15.8735Z" fill="url(#paint59_linear_3218_92781)"/>
</g>
<defs>
<linearGradient id="paint0_linear_3218_92781" x1="10.3781" y1="55.3509" x2="18.146" y2="68.2199" gradientUnits="userSpaceOnUse">
<stop stop-color="#A3A8F7"/>
<stop offset="1" stop-color="#5C63F2"/>
</linearGradient>
<linearGradient id="paint1_linear_3218_92781" x1="10.4426" y1="55.3505" x2="18.0342" y2="68.2352" gradientUnits="userSpaceOnUse">
<stop stop-color="#A3A8F7"/>
<stop offset="1" stop-color="#5C63F2"/>
</linearGradient>
<linearGradient id="paint2_linear_3218_92781" x1="10.501" y1="55.3516" x2="17.9217" y2="68.2467" gradientUnits="userSpaceOnUse">
<stop stop-color="#A3A8F7"/>
<stop offset="1" stop-color="#5C63F2"/>
</linearGradient>
<linearGradient id="paint3_linear_3218_92781" x1="10.5652" y1="55.3566" x2="17.8044" y2="68.2567" gradientUnits="userSpaceOnUse">
<stop stop-color="#A3A8F7"/>
<stop offset="1" stop-color="#5C63F2"/>
</linearGradient>
<linearGradient id="paint4_linear_3218_92781" x1="10.6297" y1="55.3562" x2="17.6926" y2="68.2667" gradientUnits="userSpaceOnUse">
<stop stop-color="#A3A8F7"/>
<stop offset="1" stop-color="#5C63F2"/>
</linearGradient>
<linearGradient id="paint5_linear_3218_92781" x1="10.6937" y1="55.3616" x2="17.5804" y2="68.2772" gradientUnits="userSpaceOnUse">
<stop stop-color="#A3A8F7"/>
<stop offset="1" stop-color="#5C63F2"/>
</linearGradient>
<linearGradient id="paint6_linear_3218_92781" x1="10.7523" y1="55.3666" x2="17.4682" y2="68.2818" gradientUnits="userSpaceOnUse">
<stop stop-color="#A3A8F7"/>
<stop offset="1" stop-color="#5C63F2"/>
</linearGradient>
<linearGradient id="paint7_linear_3218_92781" x1="10.8163" y1="55.373" x2="17.356" y2="68.288" gradientUnits="userSpaceOnUse">
<stop stop-color="#A3A8F7"/>
<stop offset="1" stop-color="#5C63F2"/>
</linearGradient>
<linearGradient id="paint8_linear_3218_92781" x1="10.8808" y1="55.378" x2="17.2443" y2="68.2873" gradientUnits="userSpaceOnUse">
<stop stop-color="#A3A8F7"/>
<stop offset="1" stop-color="#5C63F2"/>
</linearGradient>
<linearGradient id="paint9_linear_3218_92781" x1="10.9394" y1="55.3829" x2="17.1321" y2="68.2919" gradientUnits="userSpaceOnUse">
<stop stop-color="#A3A8F7"/>
<stop offset="1" stop-color="#5C63F2"/>
</linearGradient>
<linearGradient id="paint10_linear_3218_92781" x1="10.9981" y1="55.3884" x2="17.02" y2="68.2918" gradientUnits="userSpaceOnUse">
<stop stop-color="#A3A8F7"/>
<stop offset="1" stop-color="#5C63F2"/>
</linearGradient>
<linearGradient id="paint11_linear_3218_92781" x1="11.0626" y1="55.3987" x2="16.9136" y2="68.2911" gradientUnits="userSpaceOnUse">
<stop stop-color="#A3A8F7"/>
<stop offset="1" stop-color="#5C63F2"/>
</linearGradient>
<linearGradient id="paint12_linear_3218_92781" x1="11.1212" y1="55.4056" x2="16.8014" y2="68.2924" gradientUnits="userSpaceOnUse">
<stop stop-color="#A3A8F7"/>
<stop offset="1" stop-color="#5C63F2"/>
</linearGradient>
<linearGradient id="paint13_linear_3218_92781" x1="11.1799" y1="55.4144" x2="16.6947" y2="68.285" gradientUnits="userSpaceOnUse">
<stop stop-color="#A3A8F7"/>
<stop offset="1" stop-color="#5C63F2"/>
</linearGradient>
<linearGradient id="paint14_linear_3218_92781" x1="11.2387" y1="55.4247" x2="16.5828" y2="68.2843" gradientUnits="userSpaceOnUse">
<stop stop-color="#A3A8F7"/>
<stop offset="1" stop-color="#5C63F2"/>
</linearGradient>
<linearGradient id="paint15_linear_3218_92781" x1="11.2976" y1="55.435" x2="16.4762" y2="68.2783" gradientUnits="userSpaceOnUse">
<stop stop-color="#A3A8F7"/>
<stop offset="1" stop-color="#5C63F2"/>
</linearGradient>
<linearGradient id="paint16_linear_3218_92781" x1="11.3509" y1="55.4468" x2="16.3694" y2="68.2685" gradientUnits="userSpaceOnUse">
<stop stop-color="#A3A8F7"/>
<stop offset="1" stop-color="#5C63F2"/>
</linearGradient>
<linearGradient id="paint17_linear_3218_92781" x1="11.41" y1="55.4581" x2="16.2631" y2="68.2635" gradientUnits="userSpaceOnUse">
<stop stop-color="#A3A8F7"/>
<stop offset="1" stop-color="#5C63F2"/>
</linearGradient>
<linearGradient id="paint18_linear_3218_92781" x1="11.4687" y1="55.4679" x2="16.1564" y2="68.2518" gradientUnits="userSpaceOnUse">
<stop stop-color="#A3A8F7"/>
<stop offset="1" stop-color="#5C63F2"/>
</linearGradient>
<linearGradient id="paint19_linear_3218_92781" x1="11.522" y1="55.4855" x2="16.0496" y2="68.2424" gradientUnits="userSpaceOnUse">
<stop stop-color="#A3A8F7"/>
<stop offset="1" stop-color="#5C63F2"/>
</linearGradient>
<linearGradient id="paint20_linear_3218_92781" x1="11.5808" y1="55.4958" x2="15.943" y2="68.2311" gradientUnits="userSpaceOnUse">
<stop stop-color="#A3A8F7"/>
<stop offset="1" stop-color="#5C63F2"/>
</linearGradient>
<linearGradient id="paint21_linear_3218_92781" x1="11.6344" y1="55.5109" x2="15.8419" y2="68.2194" gradientUnits="userSpaceOnUse">
<stop stop-color="#A3A8F7"/>
<stop offset="1" stop-color="#5C63F2"/>
</linearGradient>
<linearGradient id="paint22_linear_3218_92781" x1="11.6879" y1="55.5265" x2="15.7354" y2="68.2028" gradientUnits="userSpaceOnUse">
<stop stop-color="#A3A8F7"/>
<stop offset="1" stop-color="#5C63F2"/>
</linearGradient>
<linearGradient id="paint23_linear_3218_92781" x1="11.7466" y1="55.5431" x2="15.634" y2="68.1871" gradientUnits="userSpaceOnUse">
<stop stop-color="#A3A8F7"/>
<stop offset="1" stop-color="#5C63F2"/>
</linearGradient>
<linearGradient id="paint24_linear_3218_92781" x1="11.7999" y1="55.5603" x2="15.5272" y2="68.172" gradientUnits="userSpaceOnUse">
<stop stop-color="#A3A8F7"/>
<stop offset="1" stop-color="#5C63F2"/>
</linearGradient>
<linearGradient id="paint25_linear_3218_92781" x1="11.8534" y1="55.5759" x2="15.4261" y2="68.1554" gradientUnits="userSpaceOnUse">
<stop stop-color="#A3A8F7"/>
<stop offset="1" stop-color="#5C63F2"/>
</linearGradient>
<linearGradient id="paint26_linear_3218_92781" x1="11.9072" y1="55.592" x2="15.3252" y2="68.1393" gradientUnits="userSpaceOnUse">
<stop stop-color="#A3A8F7"/>
<stop offset="1" stop-color="#5C63F2"/>
</linearGradient>
<linearGradient id="paint27_linear_3218_92781" x1="11.9549" y1="55.6077" x2="15.2235" y2="68.1174" gradientUnits="userSpaceOnUse">
<stop stop-color="#A3A8F7"/>
<stop offset="1" stop-color="#5C63F2"/>
</linearGradient>
<linearGradient id="paint28_linear_3218_92781" x1="12.0087" y1="55.6286" x2="15.128" y2="68.0955" gradientUnits="userSpaceOnUse">
<stop stop-color="#A3A8F7"/>
<stop offset="1" stop-color="#5C63F2"/>
</linearGradient>
<linearGradient id="paint29_linear_3218_92781" x1="12.0622" y1="55.6448" x2="15.0269" y2="68.0741" gradientUnits="userSpaceOnUse">
<stop stop-color="#A3A8F7"/>
<stop offset="1" stop-color="#5C63F2"/>
</linearGradient>
<linearGradient id="paint30_linear_3218_92781" x1="12.1099" y1="55.6657" x2="14.9252" y2="68.0522" gradientUnits="userSpaceOnUse">
<stop stop-color="#A3A8F7"/>
<stop offset="1" stop-color="#5C63F2"/>
</linearGradient>
<linearGradient id="paint31_linear_3218_92781" x1="12.1637" y1="55.6867" x2="14.8296" y2="68.025" gradientUnits="userSpaceOnUse">
<stop stop-color="#A3A8F7"/>
<stop offset="1" stop-color="#5C63F2"/>
</linearGradient>
<linearGradient id="paint32_linear_3218_92781" x1="12.2117" y1="55.7092" x2="14.7337" y2="68.0046" gradientUnits="userSpaceOnUse">
<stop stop-color="#A3A8F7"/>
<stop offset="1" stop-color="#5C63F2"/>
</linearGradient>
<linearGradient id="paint33_linear_3218_92781" x1="12.2596" y1="55.7248" x2="14.6376" y2="67.9774" gradientUnits="userSpaceOnUse">
<stop stop-color="#A3A8F7"/>
<stop offset="1" stop-color="#5C63F2"/>
</linearGradient>
<linearGradient id="paint34_linear_3218_92781" x1="12.3078" y1="55.7463" x2="14.5418" y2="67.9507" gradientUnits="userSpaceOnUse">
<stop stop-color="#A3A8F7"/>
<stop offset="1" stop-color="#5C63F2"/>
</linearGradient>
<linearGradient id="paint35_linear_3218_92781" x1="12.356" y1="55.7672" x2="14.446" y2="67.9181" gradientUnits="userSpaceOnUse">
<stop stop-color="#A3A8F7"/>
<stop offset="1" stop-color="#5C63F2"/>
</linearGradient>
<linearGradient id="paint36_linear_3218_92781" x1="12.4039" y1="55.7935" x2="14.35" y2="67.8909" gradientUnits="userSpaceOnUse">
<stop stop-color="#A3A8F7"/>
<stop offset="1" stop-color="#5C63F2"/>
</linearGradient>
<linearGradient id="paint37_linear_3218_92781" x1="12.4522" y1="55.816" x2="14.2596" y2="67.8599" gradientUnits="userSpaceOnUse">
<stop stop-color="#A3A8F7"/>
<stop offset="1" stop-color="#5C63F2"/>
</linearGradient>
<linearGradient id="paint38_linear_3218_92781" x1="12.495" y1="55.837" x2="14.1691" y2="67.8274" gradientUnits="userSpaceOnUse">
<stop stop-color="#A3A8F7"/>
<stop offset="1" stop-color="#5C63F2"/>
</linearGradient>
<linearGradient id="paint39_linear_3218_92781" x1="12.5429" y1="55.8633" x2="14.0731" y2="67.7949" gradientUnits="userSpaceOnUse">
<stop stop-color="#A3A8F7"/>
<stop offset="1" stop-color="#5C63F2"/>
</linearGradient>
<linearGradient id="paint40_linear_3218_92781" x1="12.5861" y1="55.8847" x2="13.9829" y2="67.7629" gradientUnits="userSpaceOnUse">
<stop stop-color="#A3A8F7"/>
<stop offset="1" stop-color="#5C63F2"/>
</linearGradient>
<linearGradient id="paint41_linear_3218_92781" x1="12.634" y1="55.911" x2="13.8976" y2="67.7304" gradientUnits="userSpaceOnUse">
<stop stop-color="#A3A8F7"/>
<stop offset="1" stop-color="#5C63F2"/>
</linearGradient>
<linearGradient id="paint42_linear_3218_92781" x1="12.6769" y1="55.934" x2="13.8071" y2="67.6945" gradientUnits="userSpaceOnUse">
<stop stop-color="#A3A8F7"/>
<stop offset="1" stop-color="#5C63F2"/>
</linearGradient>
<linearGradient id="paint43_linear_3218_92781" x1="12.7197" y1="55.9608" x2="13.7167" y2="67.6572" gradientUnits="userSpaceOnUse">
<stop stop-color="#A3A8F7"/>
<stop offset="1" stop-color="#5C63F2"/>
</linearGradient>
<linearGradient id="paint44_linear_3218_92781" x1="12.7623" y1="55.9871" x2="13.6313" y2="67.6194" gradientUnits="userSpaceOnUse">
<stop stop-color="#A3A8F7"/>
<stop offset="1" stop-color="#5C63F2"/>
</linearGradient>
<linearGradient id="paint45_linear_3218_92781" x1="12.8049" y1="56.0076" x2="13.546" y2="67.5812" gradientUnits="userSpaceOnUse">
<stop stop-color="#A3A8F7"/>
<stop offset="1" stop-color="#5C63F2"/>
</linearGradient>
<linearGradient id="paint46_linear_3218_92781" x1="12.8422" y1="56.0339" x2="13.4606" y2="67.5434" gradientUnits="userSpaceOnUse">
<stop stop-color="#A3A8F7"/>
<stop offset="1" stop-color="#5C63F2"/>
</linearGradient>
<linearGradient id="paint47_linear_3218_92781" x1="12.8852" y1="56.0612" x2="13.3757" y2="67.5065" gradientUnits="userSpaceOnUse">
<stop stop-color="#A3A8F7"/>
<stop offset="1" stop-color="#5C63F2"/>
</linearGradient>
<linearGradient id="paint48_linear_3218_92781" x1="12.9279" y1="56.089" x2="13.2904" y2="67.4649" gradientUnits="userSpaceOnUse">
<stop stop-color="#A3A8F7"/>
<stop offset="1" stop-color="#5C63F2"/>
</linearGradient>
<linearGradient id="paint49_linear_3218_92781" x1="12.9654" y1="56.1153" x2="13.2053" y2="67.4271" gradientUnits="userSpaceOnUse">
<stop stop-color="#A3A8F7"/>
<stop offset="1" stop-color="#5C63F2"/>
</linearGradient>
<linearGradient id="paint50_linear_3218_92781" x1="13.0026" y1="56.1469" x2="13.1252" y2="67.384" gradientUnits="userSpaceOnUse">
<stop stop-color="#A3A8F7"/>
<stop offset="1" stop-color="#5C63F2"/>
</linearGradient>
<linearGradient id="paint51_linear_3218_92781" x1="13.0455" y1="56.1728" x2="13.0455" y2="67.3405" gradientUnits="userSpaceOnUse">
<stop stop-color="#A3A8F7"/>
<stop offset="1" stop-color="#5C63F2"/>
</linearGradient>
<linearGradient id="paint52_linear_3218_92781" x1="13.0454" y1="34.5047" x2="13.0454" y2="40.932" gradientUnits="userSpaceOnUse">
<stop stop-color="#A3A8F7"/>
<stop offset="1" stop-color="#5C63F2"/>
</linearGradient>
<linearGradient id="paint53_linear_3218_92781" x1="59.1444" y1="49.6466" x2="83.728" y2="23.8874" gradientUnits="userSpaceOnUse">
<stop stop-color="#0592BB"/>
<stop offset="1" stop-color="#05CBBE"/>
</linearGradient>
<linearGradient id="paint54_linear_3218_92781" x1="75.693" y1="48.9609" x2="62.3473" y2="35.5976" gradientUnits="userSpaceOnUse">
<stop stop-color="#006EFB"/>
<stop offset="1" stop-color="#55DAFB"/>
</linearGradient>
<linearGradient id="paint55_linear_3218_92781" x1="58.8658" y1="56.1568" x2="46.3208" y2="43.5953" gradientUnits="userSpaceOnUse">
<stop offset="0.17" stop-color="#D3CFF7"/>
<stop offset="0.29" stop-color="#F0F0F8"/>
</linearGradient>
<linearGradient id="paint56_linear_3218_92781" x1="54.5893" y1="60.4269" x2="42.0443" y2="47.8655" gradientUnits="userSpaceOnUse">
<stop stop-color="#006EFB"/>
<stop offset="1" stop-color="#55DAFB"/>
</linearGradient>
<linearGradient id="paint57_linear_3218_92781" x1="13.0454" y1="46.094" x2="13.0454" y2="52.5213" gradientUnits="userSpaceOnUse">
<stop stop-color="#A3A8F7"/>
<stop offset="1" stop-color="#5C63F2"/>
</linearGradient>
<linearGradient id="paint58_linear_3218_92781" x1="31.5403" y1="19.1354" x2="31.5403" y2="29.7746" gradientUnits="userSpaceOnUse">
<stop stop-color="#A3A8F7"/>
<stop offset="1" stop-color="#5C63F2"/>
</linearGradient>
<linearGradient id="paint59_linear_3218_92781" x1="31.5404" y1="13.0068" x2="31.5404" y2="21.863" gradientUnits="userSpaceOnUse">
<stop stop-color="#A3A8F7"/>
<stop offset="1" stop-color="#5C63F2"/>
</linearGradient>
<clipPath id="clip0_3218_92781">
<rect width="80" height="80" fill="white" transform="translate(0.5)"/>
</clipPath>
</defs>
</svg>
