<svg width="24" height="24" viewBox="0 0 24 24" fill="none" xmlns="http://www.w3.org/2000/svg">
<rect width="24" height="24" rx="12" fill="#0767C7"/>
<path d="M17.2822 18.5798C16.9785 18.5798 16.7323 18.3423 16.7323 18.0493C16.7323 15.9726 14.981 14.2831 12.8284 14.2831H12.0036C9.851 14.2831 8.0997 15.9726 8.0997 18.0493C8.0997 18.3423 7.85353 18.5798 7.54985 18.5798C7.24617 18.5798 7 18.3423 7 18.0493C7 15.3876 9.24462 13.2222 12.0036 13.2222H12.8284C15.5874 13.2222 17.832 15.3876 17.832 18.0493C17.832 18.3423 17.5859 18.5798 17.2822 18.5798Z" fill="white"/>
<path d="M12.3611 12.1613C10.3146 12.1613 8.64966 10.555 8.64966 8.58071C8.64966 6.60637 10.3146 5.00012 12.3611 5.00012C14.4077 5.00012 16.0726 6.60637 16.0726 8.58071C16.0726 10.555 14.4077 12.1613 12.3611 12.1613ZM12.3611 6.06104C10.921 6.06104 9.74936 7.19136 9.74936 8.58071C9.74936 9.97005 10.921 11.1004 12.3611 11.1004C13.8013 11.1004 14.9729 9.97005 14.9729 8.58071C14.9729 7.19136 13.8013 6.06104 12.3611 6.06104Z" fill="white"/>
</svg>
