<svg width="20" height="19" viewBox="0 0 20 19" fill="none" xmlns="http://www.w3.org/2000/svg">
<path d="M17.6562 7.03125C17.2248 7.03125 16.875 7.38102 16.875 7.8125C16.875 8.24398 17.2248 8.59375 17.6562 8.59375C18.087 8.59375 18.4375 8.94422 18.4375 9.375C18.4375 9.80578 18.087 10.1562 17.6562 10.1562C17.2248 10.1562 16.875 10.506 16.875 10.9375C16.875 11.369 17.2248 11.7187 17.6562 11.7187C18.9486 11.7187 20 10.6673 20 9.375C20 8.08266 18.9486 7.03125 17.6562 7.03125Z" fill="#414189"/>
<path d="M13.2414 0.000323798C12.5657 0.0116519 11.9275 0.314503 11.4908 0.831261L8.46523 4.41052C8.31648 4.58649 8.09898 4.68743 7.86859 4.68743H3.125C1.40187 4.68743 0 6.08931 0 7.81243V10.9374C0 12.6606 1.40187 14.0624 3.125 14.0624H7.86859C8.09898 14.0624 8.31652 14.1634 8.46523 14.3393L11.4908 17.9186C11.9276 18.4354 12.5657 18.7382 13.2414 18.7496C13.2546 18.7498 13.2677 18.7499 13.2809 18.7499C14.5853 18.7499 15.625 17.6618 15.625 16.3767V2.37321C15.625 1.07966 14.5691 -0.0216684 13.2414 0.000323798ZM14.0625 16.3767C14.0625 16.807 13.7123 17.1942 13.2676 17.1873C13.0426 17.1836 12.8299 17.0825 12.6841 16.91L9.65851 13.3307C9.21226 12.8027 8.55984 12.5 7.86859 12.5H3.125C2.26344 12.5 1.5625 11.799 1.5625 10.9375V7.81247C1.5625 6.95091 2.26344 6.24997 3.125 6.24997H7.86859C8.55984 6.24997 9.21226 5.9472 9.65855 5.41923L12.6841 1.83993C12.8299 1.66743 13.0426 1.56638 13.2677 1.56259C13.7059 1.55521 14.0625 1.93704 14.0625 2.37321V16.3767Z" fill="#414189"/>
<path d="M7.03125 7.8125C6.59977 7.8125 6.25 8.16227 6.25 8.59375V10.1562C6.25 10.5877 6.59977 10.9375 7.03125 10.9375C7.46273 10.9375 7.8125 10.5877 7.8125 10.1562V8.59375C7.8125 8.16227 7.46273 7.8125 7.03125 7.8125Z" fill="#414189"/>
</svg>
