<svg width="100" height="100" viewBox="0 0 100 100" fill="none" xmlns="http://www.w3.org/2000/svg">
<path d="M83.2451 45.1111C84.5213 44.8363 85.7757 44.4166 86.9846 43.8476C88.1935 43.2786 89.3546 42.5625 90.4441 41.6949C94.2096 38.6941 96.3972 34.4557 96.8921 30.0291C97.3869 25.6025 96.1867 20.9877 93.1765 17.234C90.1663 13.4803 85.9146 11.2994 81.4742 10.8061C77.0337 10.3129 72.4044 11.5093 68.6389 14.5101C64.8734 17.5109 62.6857 21.7493 62.1909 26.1759" stroke="#00AAFF" stroke-width="3" stroke-linecap="round" stroke-linejoin="round"/>
<path d="M72.1309 27.8892L78.173 33.986L86.9454 22.8568" stroke="#00AAFF" stroke-width="3" stroke-linecap="round" stroke-linejoin="round"/>
<path d="M76.7351 43.8598H40.3386V87.1995H76.7351V43.8598Z" stroke="#333333" stroke-width="3" stroke-linecap="round" stroke-linejoin="round"/>
<path d="M40.3386 24.795H16.7952V87.2048H40.3386V24.795Z" stroke="#333333" stroke-width="3" stroke-linecap="round" stroke-linejoin="round"/>
<path d="M21.8567 36.5614H35.6478" stroke="#333333" stroke-width="3" stroke-linecap="round" stroke-linejoin="round"/>
<path d="M21.8569 44.1194H35.648" stroke="#333333" stroke-width="3" stroke-linecap="round" stroke-linejoin="round"/>
<path d="M21.8569 51.6825H35.648" stroke="#333333" stroke-width="3" stroke-linecap="round" stroke-linejoin="round"/>
<path d="M51 52H47V55H51V52Z" fill="#333333"/>
<path d="M51 60H47V63H51V60Z" fill="#333333"/>
<path d="M61 52H57V55H61V52Z" fill="#333333"/>
<path d="M61 60H57V63H61V60Z" fill="#333333"/>
<path d="M71 52H67V55H71V52Z" fill="#333333"/>
<path d="M71 60H67V63H71V60Z" fill="#333333"/>
<path d="M65.3131 32.5969H51.7605V43.8598H65.3131V32.5969Z" stroke="#333333" stroke-width="3" stroke-linecap="round" stroke-linejoin="round"/>
<path d="M61.4174 37.2876H55.6614V38.8936H61.4174V37.2876Z" fill="#00B52B"/>
<path d="M59.3396 35.2045H57.7336V40.987H59.3396V35.2045Z" fill="#00B52B"/>
<path d="M66 71H52V87H66V71Z" stroke="#333333" stroke-width="3" stroke-linecap="round" stroke-linejoin="round"/>
<path d="M76.7349 88H40.3385C39.8986 88 39.5435 87.6449 39.5435 87.205V43.86C39.5435 43.4201 39.8986 43.0649 40.3385 43.0649H76.7349C77.1748 43.0649 77.53 43.4201 77.53 43.86V87.1997C77.53 87.6396 77.1748 87.9947 76.7349 87.9947V88ZM41.1335 86.4099H75.9399V44.655H41.1335V86.4046V86.4099Z" fill="#333333"/>
<path d="M40.3385 87.9999H16.795C16.3551 87.9999 16 87.6395 16 87.2048V24.795C16 24.3551 16.3551 24 16.795 24H40.3385C40.7784 24 41.1335 24.3551 41.1335 24.795V87.2048C41.1335 87.6448 40.7784 87.9999 40.3385 87.9999ZM17.5901 86.4098H39.5435V25.5901H17.5901V86.4098Z" fill="#333333"/>
<path d="M35.6477 37.3566H21.8566C21.4166 37.3566 21.0615 37.0015 21.0615 36.5616C21.0615 36.1217 21.4166 35.7666 21.8566 35.7666H35.6477C36.0876 35.7666 36.4427 36.1217 36.4427 36.5616C36.4427 37.0015 36.0876 37.3566 35.6477 37.3566Z" fill="#333333"/>
<path d="M35.6477 44.9145H21.8566C21.4166 44.9145 21.0615 44.5594 21.0615 44.1195C21.0615 43.6796 21.4166 43.3245 21.8566 43.3245H35.6477C36.0876 43.3245 36.4427 43.6796 36.4427 44.1195C36.4427 44.5594 36.0876 44.9145 35.6477 44.9145Z" fill="#333333"/>
<path d="M35.6477 52.4777H21.8566C21.4166 52.4777 21.0615 52.1226 21.0615 51.6827C21.0615 51.2427 21.4166 50.8876 21.8566 50.8876H35.6477C36.0876 50.8876 36.4427 51.2427 36.4427 51.6827C36.4427 52.1226 36.0876 52.4777 35.6477 52.4777Z" fill="#333333"/>
<path d="M65.313 44.6549H51.7604C51.3204 44.6549 50.9653 44.2998 50.9653 43.8599V32.597C50.9653 32.1571 51.3204 31.802 51.7604 31.802H65.313C65.7529 31.802 66.108 32.1571 66.108 32.597V43.8599C66.108 44.2998 65.7529 44.6549 65.313 44.6549ZM52.5554 43.0649H64.5179V33.392H52.5554V43.0649Z" fill="#333333"/>
<path d="M61.4174 37.2877H55.6614V38.8937H61.4174V37.2877Z" fill="#00AAFF"/>
<path d="M59.3396 35.2047H57.7336V40.9872H59.3396V35.2047Z" fill="#00AAFF"/>
</svg>
