<svg width="100" height="100" viewBox="0 0 100 100" fill="none" xmlns="http://www.w3.org/2000/svg">
<path d="M81.7348 39.8598H45.3384V83.1995H81.7348V39.8598Z" stroke="#333333" stroke-width="3" stroke-linecap="round" stroke-linejoin="round"/>
<path d="M45.3385 20.7951H21.795V83.2049H45.3385V20.7951Z" stroke="#333333" stroke-width="3" stroke-linecap="round" stroke-linejoin="round"/>
<path d="M26.8567 32.5614H40.6478" stroke="#333333" stroke-width="3" stroke-linecap="round" stroke-linejoin="round"/>
<path d="M26.8567 40.1194H40.6478" stroke="#333333" stroke-width="3" stroke-linecap="round" stroke-linejoin="round"/>
<path d="M26.8567 47.6825H40.6478" stroke="#333333" stroke-width="3" stroke-linecap="round" stroke-linejoin="round"/>
<path d="M56 48H52V51H56V48Z" fill="#333333"/>
<path d="M56 56H52V59H56V56Z" fill="#333333"/>
<path d="M66 48H62V51H66V48Z" fill="#333333"/>
<path d="M66 56H62V59H66V56Z" fill="#333333"/>
<path d="M76 48H72V51H76V48Z" fill="#333333"/>
<path d="M76 56H72V59H76V56Z" fill="#333333"/>
<path d="M70.313 28.5969H56.7604V39.8598H70.313V28.5969Z" stroke="#333333" stroke-width="3" stroke-linecap="round" stroke-linejoin="round"/>
<path d="M66.4173 33.2876H60.6613V34.8936H66.4173V33.2876Z" fill="#00B52B"/>
<path d="M64.3397 31.2045H62.7338V36.987H64.3397V31.2045Z" fill="#00B52B"/>
<path d="M71 67H57V83H71V67Z" stroke="#333333" stroke-width="3" stroke-linecap="round" stroke-linejoin="round"/>
<path d="M81.7349 84H45.3385C44.8986 84 44.5435 83.6449 44.5435 83.205V39.86C44.5435 39.4201 44.8986 39.0649 45.3385 39.0649H81.7349C82.1748 39.0649 82.53 39.4201 82.53 39.86V83.1997C82.53 83.6396 82.1748 83.9947 81.7349 83.9947V84ZM46.1335 82.4099H80.9399V40.655H46.1335V82.4046V82.4099Z" fill="#333333"/>
<path d="M45.3385 83.9999H21.795C21.3551 83.9999 21 83.6395 21 83.2048V20.795C21 20.3551 21.3551 20 21.795 20H45.3385C45.7784 20 46.1335 20.3551 46.1335 20.795V83.2048C46.1335 83.6448 45.7784 83.9999 45.3385 83.9999ZM22.5901 82.4098H44.5435V21.5901H22.5901V82.4098Z" fill="#333333"/>
<path d="M40.6478 33.3566H26.8567C26.4168 33.3566 26.0616 33.0015 26.0616 32.5616C26.0616 32.1217 26.4168 31.7666 26.8567 31.7666H40.6478C41.0877 31.7666 41.4428 32.1217 41.4428 32.5616C41.4428 33.0015 41.0877 33.3566 40.6478 33.3566Z" fill="#333333"/>
<path d="M40.6478 40.9145H26.8567C26.4168 40.9145 26.0616 40.5594 26.0616 40.1195C26.0616 39.6796 26.4168 39.3245 26.8567 39.3245H40.6478C41.0877 39.3245 41.4428 39.6796 41.4428 40.1195C41.4428 40.5594 41.0877 40.9145 40.6478 40.9145Z" fill="#333333"/>
<path d="M40.6478 48.4777H26.8567C26.4168 48.4777 26.0616 48.1226 26.0616 47.6827C26.0616 47.2427 26.4168 46.8876 26.8567 46.8876H40.6478C41.0877 46.8876 41.4428 47.2427 41.4428 47.6827C41.4428 48.1226 41.0877 48.4777 40.6478 48.4777Z" fill="#333333"/>
<path d="M70.313 40.6549H56.7604C56.3204 40.6549 55.9653 40.2998 55.9653 39.8599V28.597C55.9653 28.1571 56.3204 27.802 56.7604 27.802H70.313C70.7529 27.802 71.108 28.1571 71.108 28.597V39.8599C71.108 40.2998 70.7529 40.6549 70.313 40.6549ZM57.5554 39.0649H69.5179V29.392H57.5554V39.0649Z" fill="#333333"/>
<path d="M66.4175 33.2877H60.6615V34.8937H66.4175V33.2877Z" fill="#00AAFF"/>
<path d="M64.3397 31.2047H62.7338V36.9872H64.3397V31.2047Z" fill="#00AAFF"/>
</svg>
